<?xml version="1.0" encoding="UTF-8" standalone="no"?>
<svg
   xmlns:dc="http://purl.org/dc/elements/1.1/"
   xmlns:cc="http://creativecommons.org/ns#"
   xmlns:rdf="http://www.w3.org/1999/02/22-rdf-syntax-ns#"
   xmlns:svg="http://www.w3.org/2000/svg"
   xmlns="http://www.w3.org/2000/svg"
   xmlns:sodipodi="http://sodipodi.sourceforge.net/DTD/sodipodi-0.dtd"
   xmlns:inkscape="http://www.inkscape.org/namespaces/inkscape"
   sodipodi:docname="Alfa_Romeo_Racing_(Logo).svg"
   inkscape:version="1.0 (4035a4fb49, 2020-05-01)"
   id="svg8"
   version="1.1"
   viewBox="0 0 2000 899.47082"
   height="899.47083mm"
   width="2000mm">
  <defs
     id="defs2" />
  <sodipodi:namedview
     fit-margin-bottom="0"
     fit-margin-right="0"
     fit-margin-left="0"
     fit-margin-top="0"
     inkscape:window-maximized="1"
     inkscape:window-y="-11"
     inkscape:window-x="-11"
     inkscape:window-height="986"
     inkscape:window-width="1920"
     showgrid="false"
     inkscape:document-rotation="0"
     inkscape:current-layer="layer1"
     inkscape:document-units="mm"
     inkscape:cy="1910.7562"
     inkscape:cx="3246.2968"
     inkscape:zoom="0.15440836"
     inkscape:pageshadow="2"
     inkscape:pageopacity="0.0"
     borderopacity="1.0"
     bordercolor="#666666"
     pagecolor="#ffffff"
     id="base" />
  <metadata
     id="metadata5">
    <rdf:RDF>
      <cc:Work
         rdf:about="">
        <dc:format>image/svg+xml</dc:format>
        <dc:type
           rdf:resource="http://purl.org/dc/dcmitype/StillImage" />
        <dc:title />
      </cc:Work>
    </rdf:RDF>
  </metadata>
  <g
     transform="translate(171.09673,-63.125793)"
     id="layer1"
     inkscape:groupmode="layer"
     inkscape:label="Calque 1">
    <g
       transform="translate(0.75868096,0.2202959)"
       id="g87">
      <path
         d="m -54.010038,592.84375 c -4.928501,0.10925 -8.89238,1.31937 -11.333173,6.39503 l -9.072322,15.81118 c -1.577069,3.41184 0.914494,7.81465 5.024255,7.90783 h 16.869622 43.48378 1719.338976 c 4.9279,-0.10925 8.8905,-1.32001 11.3313,-6.39567 l 9.0723,-15.81053 c 1.5771,-3.41249 -0.9145,-7.8153 -5.0243,-7.90784 H -9.037876 -52.521656 Z"
         style="fill:#000000;stroke:none;stroke-width:42.1169;stroke-linecap:round;paint-order:stroke fill markers"
         id="rect320-2" />
      <path
         d="m 526.8255,595.78324 -14.04067,23.96065 616.49697,6.4e-4 14.04,-23.96129 z"
         style="fill:#ffffff;fill-opacity:1;stroke:none;stroke-width:66.8082;stroke-linecap:round;paint-order:stroke fill markers"
         id="rect320-5-7-6"
         sodipodi:nodetypes="ccccc" />
      <path
         sodipodi:nodetypes="cccccccccccccccccc"
         d="m 356.91788,743.59583 c 1.80457,3.49796 5.12965,9.94826 5.12451,15.17559 v 104.70991 h 34.2945 v -33.49504 h 48.12951 c 2.11818,0.35346 3.82057,1.49802 5.32245,3.34565 l 21.39646,30.14939 h 37.25327 l -27.34229,-36.01552 c 40.36885,-21.67473 26.64437,-76.25905 -8.83968,-82.85523 -3.74923,-0.56553 -5.38735,-0.82774 -8.79726,-1.01475 z m 39.41901,25.72666 h 60.26021 c 22.27305,0.68121 21.16126,35.48276 0.37274,35.48211 h -60.6336 z"
         style="fill:#a51d38;fill-opacity:1;stroke-width:0.869033"
         id="path95-1" />
      <path
         sodipodi:nodetypes="cccccc"
         d="m 906.50895,743.59583 c 2.99605,3.81671 5.57694,9.44442 5.55252,13.85494 v 106.03056 h 32.86524 v -119.8855 z"
         style="fill:#a51d38;fill-opacity:1;stroke-width:5.70444;stroke-linecap:round;paint-order:stroke fill markers"
         id="rect78-8" />
      <path
         sodipodi:nodetypes="ccccccccccccccccccc"
         d="m 756.81211,743.15112 c -17.27385,0.32132 -21.78463,11.43214 -21.86496,24.31089 v 72.42305 c 0.37916,18.53281 9.74389,23.09693 21.93565,23.59627 h 87.66741 c 15.65308,-0.66579 21.69658,-7.34488 22.5828,-20.88363 v -20.32709 l -31.81129,-7.65335 v 23.31607 h -61.94397 c -3.50245,-0.16709 -6.48243,-3.90411 -6.63988,-8.07236 v -57.45504 c 0.0771,-2.81996 2.2525,-5.10458 5.1123,-5.16114 h 63.47155 v 20.48326 l 31.81129,-6.01844 v -17.45572 c -0.80846,-16.61513 -9.10124,-19.99227 -22.97354,-21.10277 z"
         style="fill:#a51d38;fill-opacity:1;stroke-width:0.869033"
         id="path99-7" />
      <path
         d="m 595.96267,743.59583 c 1.66512,3.76466 2.68565,9.19764 1.15099,12.99636 l -58.77183,106.88914 h 32.98091 l 11.89678,-22.50504 h 77.05851 l 10.52664,22.50504 h 36.34327 l -65.98175,-119.8855 z m 25.49081,22.51147 25.40404,49.30428 h -50.80616 z"
         style="fill:#a51d38;fill-opacity:1;stroke:none;stroke-width:0.869033px;stroke-linecap:butt;stroke-linejoin:miter;stroke-opacity:1"
         id="path122-8" />
      <path
         sodipodi:nodetypes="cccccccccccccc"
         d="m 983.18894,743.59583 c 3.47803,2.47935 6.58076,7.49847 6.58268,11.1648 v 108.7207 h 32.54138 v -81.75694 l 80.221,81.75694 h 29.5639 v -119.8855 h -29.5639 v 79.07901 2.62523 l -1.6684,-1.69853 -78.5526,-80.00571 z"
         style="fill:#a51d38;fill-opacity:1;stroke:none;stroke-width:11.542;stroke-linecap:round;paint-order:stroke fill markers"
         id="rect138-9" />
      <path
         sodipodi:nodetypes="cccccccccccccccccccccc"
         d="m 1190.0002,743.15112 c -17.2732,0.32132 -21.784,11.43214 -21.8649,24.31089 v 72.42305 c 0.3791,18.53281 9.7445,23.09693 21.9363,23.59627 h 87.6674 c 15.653,-0.66579 21.6965,-7.34488 22.5828,-20.88363 v -23.9735 -19.24936 h -62.2872 c 1.6754,10.64553 6.8995,19.00194 14.085,19.24936 h 16.3909 v 19.30913 h -61.944 c -3.5024,-0.16709 -6.4831,-3.90411 -6.6399,-8.07236 v -57.45504 c 0.077,-2.81996 2.2525,-5.10458 5.1123,-5.16114 h 63.4716 v 12.12557 l 31.8113,-6.01844 v -9.09803 c -0.8091,-16.61513 -9.1013,-19.99227 -22.9736,-21.10277 z"
         style="fill:#a51d38;fill-opacity:1;stroke-width:0.869033"
         id="path99-1-0" />
      <path
         d="m -54.88276,595.78324 c -3.354645,0 -5.75945,0.92863 -8.369261,5.08917 l -7.218912,12.58056 c -2.598886,4.48635 -0.571961,5.9998 1.548149,6.29156 h 15.871583 34.598469 77.518644 339.770888 77.51865 l 36.42938,-6.4e-4 c 3.35529,0 5.7601,-0.92799 8.36991,-5.08788 l 7.21891,-12.58056 c 2.59889,-4.48636 0.57196,-5.9998 -1.54815,-6.29221 H 510.95392 476.35545 398.8368 59.065912 -18.452732 Z"
         style="fill:#0e583f;fill-opacity:1;stroke:none;stroke-width:33.5107;stroke-linecap:round;paint-order:stroke fill markers"
         id="rect320-5-0"
         sodipodi:nodetypes="ccccccccccccccccccc" />
      <path
         id="rect320-5-1-0"
         style="fill:#a41e37;fill-opacity:1;stroke:none;stroke-width:33.5107;stroke-linecap:round;paint-order:stroke fill markers"
         d="m 1143.3218,595.78324 c -3.3546,0 -5.7594,0.92863 -8.3692,5.08917 l -7.219,12.58056 c -2.5988,4.48635 -0.5719,5.9998 1.5482,6.29156 h 15.8716 34.5984 77.5187 339.7709 77.5186 36.4301 c 3.3546,0 5.7594,-0.92863 8.3692,-5.08852 l 7.2189,-12.58056 c 2.5989,-4.48636 0.572,-5.9998 -1.5481,-6.29221 h -15.8716 -34.5985 -77.5186 -339.7709 -77.5187 z" />
      <path
         style="clip-rule:evenodd;fill:#231f20;fill-rule:evenodd;stroke-width:14.2939"
         id="path24"
         d="m 1108.3982,325.88857 c 11.006,-3.1445 21.4408,-6.28899 31.8755,-9.00484 14.2939,-3.57379 28.7304,-6.8616 43.3103,-9.86279 3.8591,-0.85794 7.8615,-0.85794 11.864,-0.43057 7.7189,0.71463 11.006,4.28842 11.578,12.14998 0.1414,1.14328 0.2828,2.42987 0.4306,4.43109 4.0024,-1.00061 7.5762,-1.71524 11.1494,-2.71585 14.0078,-4.00244 28.0157,-8.29021 42.0243,-12.14998 5.1457,-1.42926 10.7201,-2.00122 16.0091,-2.14389 10.0054,-0.28277 13.5792,3.71646 13.5792,13.57924 0,1.00061 0,2.00122 0,3.71646 3.4305,-0.85794 6.289,-1.71524 9.2908,-2.57318 17.2957,-4.57376 34.5908,-9.29082 52.0298,-13.86522 4.7171,-1.28595 9.5768,-1.28595 14.1506,0.71527 4.8604,2.14389 7.4329,5.86034 6.2896,11.00606 -1.0006,4.43109 -2.5732,9.00484 -5.1457,12.57863 -5.575,7.7189 -12.0073,15.0085 -18.1536,22.29811 -5.2884,6.43231 -10.8634,12.72194 -16.0092,19.29692 -1.7152,2.2872 -3.0018,5.00305 -4.0017,7.7189 -1.144,3.43047 -0.1414,5.28838 3.5731,5.71767 3.8591,0.43058 8.0049,0.57196 11.864,0.14139 10.5774,-1.14328 20.8688,-4.00244 30.589,-8.43353 2.4298,-1.14328 4.0024,-2.42987 4.8597,-5.14572 10.1488,-29.73102 31.3036,-49.17061 58.6047,-62.89316 15.4378,-7.71825 31.7329,-13.00728 49.314,-12.43532 4.1457,0.14138 8.2908,1.00061 12.15,2.42987 6.8609,2.57318 9.1481,8.00423 7.4329,15.15117 -2.0013,8.43352 -6.861,15.15181 -12.8646,21.15547 -9.0049,8.86217 -19.4396,15.8658 -30.875,21.29749 -12.4353,5.86099 -25.2999,10.72073 -38.0212,16.15242 -0.7153,0.28277 -1.5726,0.57196 -2.5732,1.00061 1.2866,4.14511 4.5738,6.57498 7.7189,8.71887 6.4323,4.28842 13.5792,6.4323 21.1548,7.00426 14.8659,1.28659 29.0164,-2.00122 42.8816,-7.2896 0.7147,-0.28277 1.5726,-0.71527 2.2872,-1.00061 8.2902,-2.43051 13.436,-6.8616 16.4378,-15.72377 4.5737,-13.72191 14.7225,-24.15666 25.5859,-33.44748 19.4396,-16.58107 41.3097,-28.1591 66.467,-33.44748 8.8621,-1.85855 17.7243,-2.57318 26.7292,-0.85794 13.7219,2.71585 22.4414,10.29143 25.1572,24.44263 0.1414,0.85794 0.4306,1.57257 0.7146,2.2872 17.5817,-1.85855 34.1628,-17.2957 36.3067,-34.30542 5.4317,-1.14328 11.1494,-0.57196 17.1524,-0.28276 0.1414,5.00304 -1.8579,8.7195 -3.7165,12.29265 -8.8622,17.00972 -23.0127,28.01642 -40.4517,34.5914 -8.5762,3.1445 -14.5799,7.43291 -19.1536,15.72313 -8.1476,14.57985 -21.2975,25.0146 -35.0201,34.44809 -15.0085,10.14876 -31.0176,18.01033 -48.7419,22.01277 -9.2909,2.00121 -18.5823,2.85916 -28.0158,1.0006 -12.436,-2.42986 -21.2982,-9.14815 -26.4439,-20.72617 -0.2892,-0.57196 -0.5719,-1.00061 -1.1433,-2.14389 -2.4305,1.14328 -4.8603,2.14389 -7.2902,3.28781 -17.867,8.1469 -36.3067,14.86519 -55.6029,18.58165 -12.15,2.28719 -24.4427,3.2878 -36.7353,1.0006 -12.2927,-2.42986 -22.1555,-8.43352 -28.5878,-19.43958 -0.4305,-0.71463 -1.0006,-1.28659 -1.5725,-2.14389 -9.7201,3.57315 -19.2969,7.14693 -28.8738,10.4341 -16.581,5.71768 -33.3048,11.00671 -50.8858,12.57863 -5.575,0.43058 -11.2927,0.28277 -16.7244,-0.85729 -10.7201,-2.2872 -15.1512,-13.29327 -9.0048,-22.44142 4.5737,-7.00427 10.0054,-13.43657 15.1511,-19.86888 4.7171,-5.86035 9.8628,-11.43471 14.5799,-17.29506 2.1445,-2.71585 4.2884,-5.71768 5.7177,-8.86282 1.8585,-4.00179 0.4305,-6.28899 -4.0025,-7.14693 -1.5719,-0.28277 -3.4304,-0.28277 -5.0024,0 -6.7183,1.57257 -13.4365,2.85916 -20.0115,5.00305 -2.5732,0.85794 -5.0031,3.00182 -6.7183,5.14571 -16.2951,19.29692 -32.5902,38.73651 -48.5993,58.1761 -4.8597,6.00366 -10.7201,8.86217 -18.439,8.43352 -8.1475,-0.43057 -16.2951,0 -24.4426,-0.14138 -2.4299,0 -5.1457,0.28277 -6.575,-3.28781 1.2866,-1.85791 2.4299,-4.28777 4.1451,-6.28899 13.2933,-15.86645 26.5865,-31.73224 39.8798,-47.59869 2.7159,-3.2878 5.575,-6.86095 7.5762,-10.72072 3.4305,-6.289 1.1433,-9.71947 -5.861,-9.5768 -9.5768,0.14138 -18.2956,3.71645 -27.0151,7.29024 -1.8586,0.8573 -3.2878,3.1445 -4.7171,4.85974 -15.8664,18.86827 -31.7322,37.7359 -47.3127,56.74684 -5.1457,6.14632 -11.0061,9.00484 -19.0109,8.57619 -7.8616,-0.43058 -15.8665,-0.14138 -23.8707,-0.14138 -2.4299,0 -5.1457,0.28276 -6.7183,-3.57315 2.8592,-3.71646 6.0037,-7.86221 9.2908,-11.72133 12.5787,-15.15117 25.3006,-30.01701 37.7359,-45.16882 1.5726,-1.85791 3.0018,-4.00179 4.0025,-6.28899 2.1438,-5.28903 0,-8.86218 -5.5744,-9.14816 -4.1451,-0.28277 -8.2909,0 -12.436,0.57196 -3.1445,0.28277 -6.1463,1.42926 -9.1481,2.00122 -7.147,1.42926 -12.4353,4.43109 -16.0091,11.86336 -5.2884,11.29269 -14.5799,19.72557 -24.1567,27.58778 -18.153,14.86519 -38.3072,26.01456 -61.3206,31.30359 -9.0048,2.14389 -18.15298,2.71585 -27.30114,1.14328 -10.86339,-2.00122 -19.29692,-7.43292 -25.01459,-17.00972 -0.57197,-0.85794 -1.14328,-1.71524 -2.00122,-2.85852 -5.71704,2.14389 -11.29205,4.43109 -17.00972,6.289 -20.01091,6.86095 -40.30844,12.57863 -61.46327,13.57924 -6.00365,0.28277 -12.14998,-0.14139 -18.01033,-1.57257 -9.86278,-2.42987 -13.15059,-11.29204 -7.86156,-20.01155 2.14389,-3.57315 5.0024,-6.71764 7.71825,-9.86278 9.43414,-10.86276 19.01094,-21.72615 28.30241,-32.73286 3.71581,-4.43108 7.14693,-9.29082 10.4341,-14.15056 1.71524,-2.57317 2.71585,-5.43169 4.5744,-9.29146 -3.14514,0.28277 -5.14572,0.43058 -7.00427,0.71463 -15.72313,2.85916 -28.44507,-1.85791 -37.7359,-15.0085 -0.28276,-0.28277 -0.57196,-0.57196 -1.28659,-1.14328 -1.00061,1.14328 -2.14388,2.14389 -3.00118,3.43048 -15.43779,21.01215 -31.4469,41.73833 -50.31453,59.89133 -15.15181,14.57985 -32.01822,26.87251 -52.02977,34.01944 -24.87129,8.86218 -49.5999,7.57559 -74.32852,-0.43058 -5.14572,-1.71523 -10.29143,-3.71645 -15.15117,-5.71767 -7.00427,-2.85852 -7.29025,-4.28778 -1.57257,-9.14816 8.71951,-7.57558 17.2957,-15.15117 25.8719,-22.72675 2.85916,-2.43051 5.43169,-5.14572 8.14754,-7.7189 4.85974,-4.71707 4.85974,-4.71707 10.57741,-1.57257 9.86279,5.57501 20.4402,8.43353 31.87556,7.14694 10.29143,-1.14328 19.86823,-4.85974 28.73041,-10.00546 13.15059,-7.57558 24.58595,-17.15303 35.44934,-27.73044 20.01091,-19.43959 37.44992,-41.02307 55.31694,-62.3212 14.57985,-17.43837 29.44568,-34.73407 44.59685,-51.74379 6.28964,-7.00363 13.57924,-13.00729 20.29753,-19.43959 1.14328,-1.14328 2.42987,-2.2872 4.57375,-4.28842 -8.57619,-1.71524 -16.00911,-3.71646 -23.58469,-4.71707 -29.87433,-4.00179 -59.17671,-1.42926 -87.62178,8.71951 -17.58104,6.28964 -34.01944,15.0085 -48.02733,27.58713 -6.289,5.71768 -11.72069,12.00732 -16.00911,19.29692 -16.86641,29.01639 6.28963,53.6017 30.017,54.60231 3.71646,0.14138 7.29025,0.28276 12.00731,0.43057 -1.14392,2.00122 -1.42925,3.43048 -2.42986,4.28778 -8.71951,8.00488 -17.58168,16.15242 -26.44386,24.01399 -1.14392,1.00061 -3.43048,1.57257 -5.14572,1.42926 -12.86461,-1.57193 -25.01459,-5.28839 -35.16336,-13.43593 -14.29387,-11.57803 -17.58104,-26.72984 -13.14995,-44.02554 4.28778,-16.86641 13.86458,-30.73163 25.58592,-43.1676 16.72374,-18.01032 36.73529,-31.44626 58.89072,-41.73769 36.44931,-16.86705 74.75717,-23.29936 114.63695,-20.29753 13.29327,1.00061 26.44386,3.85913 39.59381,6.289 2.85916,0.57196 5.28903,0.71527 7.57623,-1.28595 4.43109,-3.71646 9.43349,-4.86038 15.15117,-4.43109 4.71707,0.43058 9.43413,0.14139 14.1512,0.14139 0.14138,0.43057 0.43058,0.85794 0.57196,1.42925 -5.28838,3.71646 -10.57741,7.57623 -16.58043,11.72134 2.42987,1.42926 4.14511,2.57254 6.00302,3.57315 12.43596,7.00426 22.44144,16.72374 29.30234,29.30237 12.722,23.29936 10.0061,49.74321 -7.2896,70.0401 -12.57861,14.72316 -28.73039,24.01398 -46.45538,30.87494 -7.14629,2.71585 -14.43654,5.14572 -22.15544,7.7189 3.57379,10.72008 0.14139,20.15421 -4.28777,29.58835 -3.00183,6.14633 -6.28964,12.29265 -9.29147,18.43898 -1.42926,2.85851 -2.71585,5.71767 -3.71581,8.57619 -2.43051,7.57559 0.43057,11.72134 8.43288,12.14999 2.71585,0.14138 5.57501,0.28276 8.14755,-0.43058 8.00487,-2.2872 15.86644,-5.00305 23.728,-7.57623 2.2872,-0.71463 3.71646,-2.14389 4.43109,-4.71707 4.14511,-14.43654 12.86461,-26.15723 23.58469,-36.30599 20.29756,-19.15425 44.02556,-32.16154 71.46936,-38.02188 8.5768,-1.85855 17.2957,-2.57318 26.1579,-0.85794 13.7225,2.57318 22.7274,9.86278 25.4432,24.01398 0,0.71463 0.572,1.71524 1.0006,3.1445 M 947.02304,198.10038 c -27.3018,26.58717 -49.02794,56.89015 -70.61206,88.05043 18.29631,-4.28777 33.87677,-0.14138 46.74138,12.86462 12.00667,-5.57437 22.29811,-12.72131 31.30359,-21.44081 7.00363,-6.71829 12.86397,-14.29387 16.58043,-23.29936 6.00366,-14.43654 4.00244,-27.7298 -5.57436,-40.02245 -5.00305,-6.43231 -11.00607,-11.43536 -18.43898,-16.15243 z m 694.25336,128.93083 c 0.1414,-8.71887 -4.0018,-13.29326 -12.1493,-14.43654 -5.861,-0.85794 -11.7214,-0.43058 -17.2957,1.71524 -22.2988,8.7195 -39.1652,23.58469 -50.7432,44.31087 -1.8586,3.43048 -3.1451,7.29025 -3.8598,11.14937 -1.4292,8.29022 3.0019,14.15121 11.1494,15.86645 6.575,1.42925 12.8646,-0.14139 19.0109,-2.2872 9.8628,-3.43048 18.153,-9.14816 26.4439,-15.29449 3.8591,-3.00182 6.1463,-6.28963 6.7176,-11.29204 1.144,-9.72011 6.433,-16.72374 14.8659,-21.01216 4.717,-2.2872 6.2896,-5.28902 5.8603,-8.7195 z m -567.4671,-15.0085 c -2.1439,0.14138 -4.2877,0.28276 -6.289,0.57196 -2.0012,0.43057 -4.0024,1.00061 -6.0036,1.71524 -22.1555,8.7195 -39.0219,23.728 -50.5999,44.59685 -1.8585,3.43048 -3.0018,7.43292 -3.5738,11.14937 -1.2866,8.14755 2.8585,13.57925 10.8634,15.43715 5.2884,1.28659 10.4348,0.28277 15.4372,-1.00061 10.5774,-2.85851 19.5829,-8.86217 28.445,-15.15117 4.8598,-3.57378 8.1476,-7.57622 8.4336,-13.72255 0,-1.14328 0.5719,-2.42987 1.0006,-3.57315 2.4298,-7.86156 8.0042,-13.00728 14.8652,-17.00972 1.7152,-1.00061 3.5738,-2.42986 4.1457,-4.1451 3.1445,-9.57681 -1.7152,-17.00972 -11.864,-18.43898 -1.5726,-0.28919 -3.2878,-0.28919 -4.8604,-0.43058 z m 348.1993,50.17186 c 7.0036,-2.71585 13.2933,-4.71707 19.2969,-7.29025 13.2933,-5.86034 25.7286,-13.00728 34.7341,-24.5853 3.2872,-4.43109 5.8603,-9.57681 7.8616,-14.72252 1.5719,-3.71646 -0.4306,-5.57501 -4.4311,-4.86038 -16.0091,2.71585 -30.4463,8.57683 -41.881,20.44084 -7.8616,8.29021 -13.2933,18.01033 -15.5805,31.01761 z M 905.85666,306.44834 c -5.71767,-11.29204 -24.58595,-14.00789 -31.87555,-5.00305 7.43292,9.14816 20.4402,11.29205 31.87555,5.00305 z"
         class="st5" />
      <path
         style="clip-rule:evenodd;fill:#231f20;fill-rule:evenodd;stroke-width:14.2939"
         id="path26-4"
         d="m 660.57108,355.47692 c -3.57379,4.14511 -6.86096,8.86218 -10.8634,12.57864 -21.15483,20.01155 -45.88344,33.1615 -74.32852,39.30782 -11.14873,2.43051 -22.58408,3.85977 -34.01944,4.5744 -7.14693,0.43058 -14.57985,-0.85794 -21.72678,-2.2872 -6.71765,-1.28659 -12.43532,-4.85973 -15.43715,-10.72008 -10.00546,3.1445 -19.15361,6.71764 -28.58775,9.00484 -12.57863,3.28781 -25.44324,4.14511 -38.45052,1.14392 -12.00668,-2.85916 -20.58351,-9.00548 -22.7274,-22.01276 0,-0.43058 -0.43058,-0.71463 -1.14328,-1.57257 -20.15422,2.42986 -40.73773,2.57318 -61.60657,-1.71524 -6.00366,6.57497 -12.14999,13.15059 -18.15364,19.86888 -20.01091,22.15543 -40.16577,44.16756 -62.60719,64.03644 -18.86762,16.58043 -38.87917,31.73224 -61.74924,42.45297 -15.29448,7.14693 -31.30359,11.72069 -48.17064,12.14934 -23.01274,0.43057 -43.31027,-7.00363 -62.463874,-21.44081 4.717064,-4.00244 9.148154,-7.71825 13.149954,-11.14938 6.4323,3.71646 12.14998,7.86221 18.43962,10.57806 17.15239,7.14694 34.30478,5.71704 51.02916,-1.71524 13.5786,-6.14697 25.29993,-14.72316 35.30538,-25.44324 26.30119,-28.01643 52.31575,-56.31819 78.33096,-84.61995 0.57196,-0.57197 0.99997,-1.28659 2.00058,-2.85852 -2.28656,0.57196 -3.85913,0.8573 -5.28839,1.28595 -24.01399,7.8622 -48.02733,15.58046 -72.89861,20.01154 -10.0061,1.71524 -20.29753,2.2872 -30.4463,3.1445 -3.28781,0.28277 -6.71828,-0.43058 -9.86278,-0.99997 -10.00546,-1.85855 -13.43593,-5.86098 -14.00789,-16.29509 -7.00427,2.28656 -13.86523,4.57376 -20.72618,6.71765 -16.72374,5.28903 -33.59079,10.00609 -51.17183,11.29268 -5.575009,0.43058 -11.292686,0.14139 -16.867052,-0.57196 -9.576804,-1.4299 -13.293262,-5.57501 -14.293871,-15.72377 -1.57257,0.57196 -3.001829,1.00061 -4.431087,1.57257 -18.867628,8.14755 -38.307859,14.1512 -59.0340371,15.58046 -8.4328829,0.57196 -16.7237399,-0.28277 -24.7279739,-3.1445 -22.012768,-7.8622 -34.01944,-29.30301 -30.160313,-53.03038 3.430478,-20.86948 12.721944,-39.30846 25.299934,-56.0322 41.4523563,-54.88829 96.055306,-89.76567 163.52223,-104.20221 11.29204,-2.42987 23.15604,-3.28781 34.73406,-4.00244 14.72317,-1.00061 31.01762,1.57257 47.17004,10.14877 0.43057,-0.14139 1.00061,-0.14139 1.14328,-0.28277 5.43169,-6.86096 12.72194,-8.5762 21.15482,-8.00488 10.0061,0.57196 20.01155,0.14139 30.01765,0.14139 1.42926,0 3.00118,-0.14139 4.43108,0.14138 2.71585,0.43058 3.43048,2.00122 2.00122,4.43109 -0.85794,1.42925 -2.00122,2.71584 -3.00182,4.00243 -21.01216,24.58531 -42.02432,49.31393 -63.03648,73.89923 -22.58409,26.58652 -45.0255,53.31636 -67.46692,80.0462 -3.28781,4.00179 -6.14633,8.43288 -9.00484,12.7213 -0.85794,1.14328 -1.57257,2.42986 -2.14453,3.85912 -1.14328,2.85916 -3.00119,5.86035 -0.8573,8.86218 2.2872,3.00183 5.86034,2.00122 8.71886,1.57257 3.43112,-0.43058 7.00427,-1.28659 10.29208,-2.57318 12.57863,-5.14572 25.01395,-10.29143 37.44992,-15.8658 2.42986,-1.14392 4.57375,-3.57379 6.4323,-5.71768 21.58348,-25.87189 44.0249,-50.88649 68.03888,-74.47118 24.72798,-24.29933 50.88585,-47.17004 80.04555,-66.03767 13.72192,-8.86217 27.87312,-16.72373 43.59625,-21.58411 6.57497,-2.00058 13.43657,-3.28717 20.29753,-3.00119 9.43413,0.43058 13.14995,5.4317 10.29143,14.57921 -1.28659,4.14575 -3.1445,8.29086 -5.71768,11.72133 -7.00362,9.29083 -14.00789,18.72496 -22.2981,27.01518 -29.15971,29.44568 -62.3212,53.74501 -100.0571,71.04071 -5.86099,2.71584 -12.00732,5.00304 -18.01033,7.14693 -2.85916,1.00061 -5.00305,2.42987 -6.86096,5.00305 -8.7195,12.43532 -17.72499,24.87128 -26.58716,37.30725 -1.57193,2.14389 -3.00119,4.57375 -4.0018,7.00362 -1.57257,4.00244 -0.28277,6.14633 3.85913,7.57559 5.71767,1.85855 11.29204,0.43057 16.72374,-0.71463 18.43897,-3.57315 36.16332,-9.86279 53.88767,-16.29509 0.43058,-0.14139 0.57196,-0.57196 1.28659,-1.14328 -0.85729,-1.85791 -2.00122,-3.71646 -2.71584,-5.86035 -3.57315,-9.00548 1.57257,-16.29509 11.14937,-15.43779 3.85913,0.28277 7.57558,2.00122 11.29204,3.43112 2.14453,0.8573 4.00244,2.14389 6.28964,3.57315 1.57193,-1.71524 3.1445,-3.43048 4.71707,-5.14572 23.29871,-26.44385 47.3127,-52.45842 73.04128,-76.61507 22.87071,-21.44081 46.88406,-41.59567 74.32852,-57.17549 13.14995,-7.43292 26.8725,-13.43657 41.88101,-16.15242 4.00243,-0.71463 8.29021,-1.00061 12.43532,-0.57196 7.29024,0.85794 10.72072,5.71767 8.7195,12.86461 -1.14328,4.43109 -2.85851,8.86218 -5.43169,12.43596 -6.43231,8.86218 -13.00729,18.01033 -20.72618,25.8719 -26.87251,27.87311 -57.31816,51.02916 -91.90956,68.75351 -7.71889,4.00244 -16.15178,6.71829 -24.15665,10.29143 -2.00122,0.85794 -4.28842,2.00122 -5.57437,3.57379 -10.14876,12.43532 -20.15486,25.01396 -30.16031,37.59259 -0.43058,0.43057 -0.57196,1.14392 -1.00061,2.14453 15.72313,5.14571 31.87555,5.71703 48.31331,6.57497 0.71463,-1.42926 1.28659,-2.71584 1.71524,-4.00243 6.57497,-18.153 18.86827,-31.87556 33.44748,-43.73956 19.29692,-15.57982 41.30968,-25.01395 65.89499,-28.01578 8.29021,-1.00061 16.72374,-0.8573 24.87128,1.00061 8.14755,1.85855 15.29449,5.57436 20.58351,13.43657 7.00363,-7.43292 16.00911,-7.57623 25.15727,-7.29025 5.86035,0.14139 11.72069,-0.14138 17.58104,0.14139 2.00122,0.14138 4.14575,0.99996 7.29024,1.71524 -3.14449,4.1451 -5.28902,7.2896 -7.71889,10.4341 -12.57863,15.58046 -25.29994,31.16092 -37.87857,46.74138 -3.14514,3.85913 -5.71768,8.29022 -8.29086,12.43532 -1.0006,1.71524 -1.71523,3.85977 -2.28655,5.86035 -1.85855,7.43291 1.00061,11.57866 8.57619,11.57866 5.00305,0 10.00546,-0.57196 14.86583,-1.71588 18.153,-4.71642 34.87674,-12.86397 49.45659,-24.87128 3.85913,-3.1445 7.14694,-7.00363 10.43475,-10.72008 1.71524,-2.14389 3.43048,-3.28781 6.28899,-3.1445 5.00305,0.14138 9.86279,0 14.86584,0 0.43057,0.57196 0.71463,1.14328 1.00061,1.71524 M 166.57457,206.38996 c 0,0.28276 -0.14139,0.57196 -0.14139,0.85729 -1.85855,0 -3.71646,-0.14138 -5.57501,0 -1.28659,0 -2.42986,0.43058 -3.71645,0.57196 -17.58104,2.57318 -33.73346,9.14816 -49.31393,17.2957 -28.730407,15.29449 -53.459023,35.73468 -75.61446,59.31938 -12.006672,12.86461 -23.1560463,26.44385 -30.4456509,42.59563 -3.0018287,6.28964 -5.2890281,13.1506 -6.4323064,20.15486 -1.7152389,10.00546 1.4292586,18.72496 10.2914333,24.442 8.290214,5.28902 17.724349,7.8622 27.444465,6.71828 23.012734,-2.71585 42.452323,-13.72191 57.604135,-30.15967 29.731024,-32.44751 58.033424,-66.32364 86.906504,-99.62845 5.00305,-5.86099 9.43414,-12.14998 12.14999,-19.5829 3.00183,-8.57619 0,-16.00911 -8.5762,-19.15361 -4.71706,-1.85855 -9.72011,-2.42987 -14.57985,-3.43047 z m 362.77848,105.20281 c -3.28781,0.57196 -6.57497,1.00061 -9.72011,2.00122 -21.58348,6.71829 -38.30722,20.15422 -50.74318,38.73651 -3.43048,5.14572 -6.00302,11.00606 -7.57559,17.00972 -3.43048,13.72191 5.71768,20.58287 17.86766,19.01094 6.14633,-0.71463 12.14934,-2.85916 17.86702,-5.14636 6.00366,-2.42987 12.00667,-5.00241 16.15242,-10.29143 10.14812,-12.72131 20.29689,-25.44325 30.30298,-38.30722 1.71524,-2.14453 2.71585,-5.28903 2.71585,-8.00488 0.43058,-9.43413 -6.28963,-15.15117 -16.86705,-15.0085 z m -116.06621,-9.00484 c 0.28277,0.43058 0.43058,0.8573 0.71463,1.28595 6.57498,-1.14328 12.57863,-4.0018 18.43898,-7.00363 27.01581,-13.72255 49.5999,-32.87616 69.32547,-55.60356 3.71646,-4.28777 6.57497,-9.5768 9.29082,-14.72252 1.28659,-2.2872 1.85855,-5.14571 2.14453,-7.71889 0.43058,-5.00241 -2.14453,-6.86096 -7.00426,-5.14572 -1.57257,0.57196 -3.00183,1.42926 -4.43109,2.42987 -4.14511,2.85916 -8.29022,5.57501 -12.29265,8.57683 -20.86949,16.15178 -39.16516,35.01941 -56.60417,54.74498 -6.43231,7.57623 -12.86397,15.43779 -19.58226,23.15669 z m -133.50522,0.14138 c 0.28276,0.43058 0.57196,1.00061 0.71527,1.42926 3.28717,-1.14328 6.71764,-2.00122 9.86278,-3.43048 31.87491,-13.86522 57.74681,-35.59201 79.90224,-61.89255 3.85977,-4.71707 6.28964,-10.72008 8.86218,-16.43776 1.28659,-2.71585 2.00122,-6.43231 -0.99997,-8.71951 -2.71585,-2.00121 -5.71768,-0.43057 -8.14754,1.14393 -4.86038,3.14449 -9.72012,6.43166 -14.43719,10.00545 -21.01215,16.29509 -39.30782,35.4487 -56.8895,55.46025 -6.28964,7.43291 -12.57863,15.0085 -18.86827,22.44141 z"
         class="st5" />
    </g>
  </g>
</svg>
