<?xml version="1.0" encoding="UTF-8"?><svg id="Calque_2" xmlns="http://www.w3.org/2000/svg" viewBox="0 0 1105.68 664.02"><g id="Calque_1-2"><g><path d="M435.97,1.11c-.83,.73-2.83,1.36-4.48,1.36-2.12,0-2.95,.52-2.71,1.89,.12,1.78-.12,1.78-2.48-.21-3.42-2.83-3.65-2.83-5.42,.94q-1.65,3.67-5.31,1.47c-1.53-.84-4.01-1.57-5.54-1.36-1.53,.1-4.24-.1-6.13-.63-2.59-.63-3.65-.42-4.48,.94-.59,.94-1.77,1.68-2.71,1.68s-2.48,1.05-3.42,2.31c-.94,1.15-3.18,2.31-4.95,2.52s-4.6,1.47-6.25,2.94c-1.77,1.57-3.77,2.73-4.48,2.73s-1.89,.73-2.71,1.57c-1.18,1.26-1.18,1.89,0,3.15,.83,.94,1.06,2.31,.59,3.36-.59,1.05-1.06,2.62-1.06,3.46-.12,.94-1.06,1.47-2.71,1.36-1.41-.21-6.37,1.36-10.96,3.46-6.72,3.04-8.25,4.2-8.25,6.19,0,1.36,.94,3.15,2.12,3.88s2.48,2.2,2.95,3.15c.59,1.47,.12,1.89-1.89,1.89-3.54,0-6.13,3.57-3.77,5.25,.83,.63,1.53,1.99,1.41,2.94,0,.94,.83,3.04,1.89,4.51,2,2.62,7.43,4.2,14.03,4.2,1.18,0,2.71,1.05,3.42,2.31,.83,1.26,2.12,2.73,2.95,3.15s1.53,2.41,1.41,4.41c-.12,1.99,.47,4.2,1.3,5.04,1.89,2.1,.71,17.31-1.65,19.62-1.18,1.15-1.77,3.88-1.77,7.66,0,5.14,.47,6.19,3.65,9.02,3.77,3.36,4.48,8.29,1.06,7.66-.94-.21-2.24,.31-2.95,1.05s-2.24,1.89-3.54,2.52c-2.24,1.15-3.77,5.25-4.48,12.49-.24,1.68,.83,5.46,2.24,8.39,1.53,2.83,2.95,8.08,3.3,11.54,.71,6.92,2.71,13.11,4.36,13.11,.59,0,1.06,.73,1.06,1.57,0,1.47,.59,1.78,4.72,1.99,.94,.1,1.77,.63,1.77,1.36,0,1.57,5.78,5.56,8.02,5.56,.94,0,2.12-1.15,2.48-2.62,.47-1.47,1.77-3.57,3.07-4.72,1.41-1.26,2.24-3.25,2.12-5.04-.35-5.04,12.5-19.09,17.57-19.09,1.41,0,3.18-.94,3.89-2.1s2.36-2.1,3.65-2.1c1.53,0,2.71-1.05,3.54-2.94,.83-2.1,3.18-3.88,8.61-6.3,4.13-1.89,8.61-3.36,10.02-3.36,2.71,0,10.73-4.09,15.21-7.76,4.83-3.88,6.25-7.34,5.42-13.74-.71-4.83-1.3-5.98-3.77-7.13-1.65-.63-3.42-2.52-3.89-4.2-.47-1.57-.47-2.62,.12-2.31,.47,.31,1.65-.21,2.48-1.15,1.41-1.47,1.65-1.47,2.95,.1,3.42,4.09,12.03-.31,9.08-4.62-1.18-1.68-1.06-1.89,.94-1.47,3.3,.84,2.95-2.94-.71-5.98-3.42-2.83-2.24-5.14,1.65-3.04,2,1.26,2.71,1.15,4.36-.31,1.89-1.68,1.3-4.51-.83-3.46-.59,.42-1.06-.1-1.06-.94,0-.94,.83-1.68,1.77-1.68,2.12,0,2.12-.1,.59-3.57-.83-2.1-.71-2.83,.94-3.67,1.89-.94,1.77-1.26-.47-5.56-1.65-3.15-2.12-5.46-1.53-7.66,.47-1.78,.83-2.73,.94-2.1,.47,2.62,3.65-3.46,3.65-6.92,0-2.2,.59-4.3,1.3-4.72,.71-.31,.94-1.78,.47-3.46q-.71-2.62,1.06-.63c1.65,1.78,2,1.89,3.07,.52,.71-.84,.94-2.52,.59-3.67-.35-1.68,.35-2.52,2.83-3.36,3.77-1.15,4.48-3.36,3.89-9.97-.59-4.72-3.18-5.88-6.72-2.94-2.36,1.89-9.67,3.04-8.49,1.26,.35-.42,.12-1.78-.47-3.15-1.06-2.52-3.89-3.04-5.42-1.05-1.41,2.1-4.36,1.57-5.19-.73-.47-1.89,.12-2.2,5.89-2.62,5.66-.42,6.6-.84,6.96-2.83,.24-1.26-.71-3.25-2-4.41-1.18-1.05-2.48-3.15-2.71-4.51l-.35-2.41-22.05-.31c-16.51-.21-22.28,.1-23.58,1.05Zm41.73,2.1c-.83,.73-1.41,2.31-1.41,3.67,0,2.1,.47,2.31,3.65,1.68,3.18-.52,3.65-.31,3.18,1.36-.35,1.68-1.3,1.99-5.66,1.78-2.95-.1-7.43-.52-10.02-.84-6.01-.84-10.14,1.47-8.13,4.41,.94,1.36,2.83,1.89,6.48,1.89,4.24,0,5.07,.31,4.83,1.89-.47,2.52,2.71,3.36,7.55,1.99,4.95-1.36,5.19,0,.47,2.94-1.89,1.26-3.54,2.73-3.54,3.25,0,1.68,9.08,1.15,9.9-.63,.35-.94,2.24-1.57,4.83-1.57s4.48-.63,4.83-1.57c1.06-2.41,2.48-1.89,3.18,1.26,.94,4.09-1.77,7.45-5.66,7.13-2.24-.31-3.3,.21-4.13,1.99-.59,1.36-1.89,2.73-2.83,3.04-1.53,.52-1.65,1.05-.59,2.62,.83,1.26,1.06,2.83,.47,3.99s-1.06,3.04-1.06,4.41c-.12,1.26-1.65,3.46-3.54,4.93-2.95,2.2-3.3,3.04-2.48,6.4,.35,2.1,1.65,5.04,2.59,6.4,1.65,2.2,1.65,2.73,.24,3.57-.94,.52-2.36,.94-3.3,.94-1.53,0-1.53,1.36,.59,8.6,.71,2.73,.47,2.94-2.95,2.94-3.07,0-3.65,.42-3.65,2.31,0,1.36,.83,3.36,1.77,4.41,1.53,1.78,1.53,2.2-.12,3.25s-1.65,1.57-.35,3.46c1.3,1.78,1.3,2.52,.12,3.57-1.06,.94-2,.73-4.13-1.05-3.18-2.62-5.07-2.94-5.89-.84-.47,.94-1.65,1.26-3.07,.94-3.18-.73-3.18,1.78-.12,7.76,1.53,3.15,2.95,4.51,4.72,4.51,2,0,2.36,.63,2.36,4.41q-.12,4.41-2.12,2.41c-3.07-3.15-8.61-6.82-10.37-6.82-2.59,0-1.89,2.52,1.41,5.35l3.07,2.52-2.83,.52c-1.41,.31-2.83,1.36-3.07,2.41-.35,1.36,.71,1.89,4.48,2.41,2.59,.42,5.07,1.05,5.42,1.57,.94,1.36-8.84,7.13-14.15,8.39-9.67,2.31-18.27,6.5-20.4,10.07-1.18,1.89-2.95,3.46-4.13,3.46-1.06,0-2.48,.73-3.07,1.57-.47,.94-2.24,1.78-3.89,2.1-5.54,.84-19.45,16.68-18.27,20.77,.35,1.36-.47,3.25-2.24,5.04-1.41,1.68-2.95,3.57-3.3,4.3-.47,.94-1.41,.52-3.07-1.26-1.41-1.47-3.07-3.25-3.77-3.99s-2-1.15-2.83-.84c-.94,.31-2.48-.63-3.42-2.1-2-2.52-2.48-4.62-3.77-15.11-.47-3.15-1.77-7.34-2.95-9.23-2.71-4.2-2.83-7.87-.35-11.12,1.18-1.68,1.41-2.73,.59-3.25-2.12-1.05-1.41-2.62,1.06-2.62,1.3,0,2.71-.73,3.18-1.68,.35-.84,1.3-1.36,2.12-1.05,2.59,.84,4.01-.94,4.24-5.35,.24-3.57-.24-4.72-3.18-7.03-3.3-2.62-2-3.88,1.89-1.78,2.71,1.57,3.54,.31,1.65-2.83-.83-1.57-2-4.41-2.36-6.3-.83-3.67-1.53-3.99-4.01-2.1-1.06,.84-.94,.52,.12-.73,3.65-4.09,5.54-20.56,2.59-22.66-.94-.73-1.53-2.73-1.41-4.62,.35-2.62-.59-4.2-4.48-7.76-3.54-3.36-5.42-4.3-7.19-3.88-1.3,.42-2.83,0-3.77-.94-1.06-1.15-1.89-1.26-3.07-.42-1.89,1.36-4.36-2.2-3.3-4.72,.47-1.05,0-1.89-1.18-2.31-2.59-.94-2.36-2.52,.35-2.52,1.3,0,2.71-.52,3.07-1.05,.47-.63,1.77-.84,3.07-.52,1.18,.42,2.71,.42,3.3,0,2.12-1.05-.12-3.67-3.07-3.67-1.89,0-3.18-.73-3.54-1.99-.35-1.15-1.53-2.2-2.83-2.52-2.83-.63-2.95-2.73-.12-3.57,1.06-.42,4.01-1.78,6.37-3.15,2.48-1.36,6.25-2.41,8.61-2.41,2.95,0,4.36-.52,4.83-1.89,.35-.94,1.41-3.15,2.36-4.93,1.53-2.62,1.53-3.25,.12-4.2-1.3-.84-.94-1.47,2.24-3.36s4.01-1.99,4.48-.63c.94,1.99,3.18,.63,2.83-1.57-.24-1.26,.59-1.89,2.95-2.1,2.24-.21,3.65-1.15,4.36-2.94,1.06-2.52,3.54-3.57,3.54-1.47,0,.52,.83,1.05,1.89,1.05,1.3,0,1.77-.63,1.41-1.89-.59-1.68,.12-1.99,4.6-1.89,4.72,.1,5.07,.31,4.6,2.31-.47,1.36,0,2.83,.94,3.57,1.41,.94,2,.73,3.07-1.05,.94-1.57,2-1.99,3.65-1.57,1.3,.42,2.24,.21,2.24-.52,0-.63,.71-1.89,1.65-2.62,1.41-1.26,2-.94,4.36,1.78,6.37,7.45,6.84,7.76,8.02,6.09,.83-1.05,.71-2.31-.47-3.78-1.41-1.99-1.41-2.2,.35-2.1,1.53,.1,2-.63,1.77-2.83-.24-3.04,2.71-4.09,3.89-1.26,1.06,2.2,5.19,1.99,5.19-.31,0-1.47,.83-1.78,4.48-1.47,3.42,.21,24.99-1.15,27.35-1.78,.24,0-.12,.42-.94,1.15Zm-7.9,10.28c.47,.63-.83,1.05-2.95,1.05s-3.42-.42-2.95-1.05c.35-.63,1.77-1.05,2.95-1.05s2.59,.42,2.95,1.05Zm-89.01,96c0,.84-.47,1.57-1.18,1.57-.59,0-1.18-.73-1.18-1.57s.59-1.57,1.18-1.57c.71,0,1.18,.73,1.18,1.57Zm83.7,12.07c0,1.36-1.3,1.36-3.54,0-1.41-.84-1.3-1.05,.94-1.05,1.41,0,2.59,.42,2.59,1.05Z"/><path d="M790.59,33.64c.12,4.09,.59,7.66,.94,7.97,.94,.84-8.96,7.03-10.73,6.71-.83-.1-3.3,.42-5.66,1.26-2.83,1.05-4.13,2.2-4.13,3.78,0,1.15-.94,2.52-2,2.83-7.55,2.62-11.67,13.11-6.6,16.79,1.41,.94,1.3,1.47-1.06,2.83-1.41,.94-3.42,1.68-4.48,1.68-1.65,0-4.72,4.3-4.72,6.71,0,.63,2,2.83,4.36,5.04,5.31,4.83,4.72,6.19-.94,1.89-4.36-3.25-7.43-3.99-8.96-1.89-.47,.73-2,1.36-3.3,1.36-1.77,0-2.48,.94-3.18,4.72-.47,2.62-.35,6.09,.24,7.87,4.48,12.59,6.13,16.58,8.25,19.62,3.3,4.83,2.95,8.18-1.18,12.38l-3.54,3.67,1.89-3.36c2.12-3.99,1.65-8.08-1.89-14.48-1.41-2.62-2.71-5.35-2.83-6.09-.12-.84-1.06-2.73-2.24-4.2-1.06-1.57-2-3.88-2-5.35s-.47-2.94-1.18-3.25c-.59-.31-1.18-2.31-1.18-4.3,0-6.09-8.72-11.54-10.02-6.3-.24,1.26-.71,4.09-1.06,6.4-.24,2.31-.83,5.98-1.3,8.08-.59,3.25-.35,3.99,1.77,5.04,1.65,.73,2.36,1.89,2,3.04-.24,1.05,.47,3.04,1.65,4.41s2.24,3.04,2.24,3.78c0,2.41-2.59,2.62-4.36,.31-.94-1.26-2.36-1.99-3.18-1.78-.71,.31-2.36-.1-3.54-.94-1.18-.73-4.48-1.68-7.43-2.1-3.3-.42-5.54-1.36-6.37-2.62-1.53-2.52-4.13-2.52-5.66,0-1.53,2.31,1.3,4.93,5.78,5.56,2.36,.21,3.07,1.05,3.3,3.46,.24,2.2,0,2.73-.71,1.68-.94-1.15-2.12-1.15-6.84,.42-3.18,1.05-6.48,2.62-7.19,3.57-1.3,1.36-1.53,1.26-1.53-.73,0-3.25-2.83-3.99-5.78-1.36-1.41,1.26-3.3,2.2-4.24,2.2-1.06,0-2.36,1.15-2.95,2.62-1.65,3.88-5.66,4.83-10.61,2.52-4.48-2.2-9.43-2.62-9.43-.94,0,.63,1.06,2.94,2.36,5.25,2.95,5.14,2.95,5.77-.12,5.98-3.18,.21-10.49,7.45-10.49,10.49,0,2.83-.83,2.94-4.01,.84-3.07-1.99-4.01-1.99-4.6,.21-.35,1.36-.71,.94-1.41-1.26-.47-1.78-1.65-4.3-2.59-5.67l-1.77-2.52,6.48,.63c7.55,.84,9.31-.31,9.55-6.3,.12-3.57-.35-4.09-4.6-6.09-2.59-1.15-6.25-3.15-8.13-4.51-1.89-1.26-4.83-2.31-6.72-2.31-2.12,0-4.13-.94-5.78-2.83-2-2.31-3.54-2.94-7.19-2.94-4.6,0-4.24-.31,1.77-2.1q2.24-.63,0-2.62c-1.18-1.05-4.24-2.31-6.72-2.73-4.01-.63-4.6-.42-5.19,1.57-.47,1.68-1.06,1.99-2.12,1.15-1.89-1.36-7.31-.31-8.13,1.57-.35,.84-1.53,1.15-2.95,.84-1.77-.42-2.48-.1-2.48,1.05,0,.84-1.89,2.52-4.13,3.78-2.24,1.15-4.13,2.62-4.13,3.25,0,.52-2.12,2.73-4.6,4.83-2.59,1.99-4.83,4.72-5.07,5.98s-1.53,2.73-2.95,3.36c-2,.73-2.95,2.52-4.01,7.55-.94,4.09-2.12,6.61-3.07,6.61-.83,0-1.53,.94-1.53,1.99,0,2.73-5.89,10.6-7.9,10.6s-5.42,2.83-7.31,6.09c-1.18,1.89-1.06,2.41,.47,2.94s1.77,1.78,1.18,6.82c-.71,5.67-.47,6.4,2.24,8.81,3.54,3.15,8.25,2.73,11.55-.94,1.77-1.89,2.12-1.89,2.12-.42,0,.94,.94,2.52,2,3.46,1.18,1.05,2,3.88,2.24,7.13,.24,3.04,.35,5.77,.47,6.19,.24,2.94,10.14,1.15,11.44-1.99,.35-1.05,1.65-3.15,2.83-4.62,1.18-1.57,2.48-4.72,2.83-7.13,.24-2.31,1.18-5.25,2-6.4,1.18-1.68,1.18-2.62-.47-4.93-3.65-5.56-1.06-15.63,5.54-22.03,1.3-1.26,3.3-3.46,4.48-4.93,2-2.52,6.72-3.78,6.72-1.89,0,.52-1.53,2.83-3.42,5.14-4.83,5.88-6.48,17.31-3.3,21.72,1.89,2.52,10.26,4.51,12.85,3.15,.83-.42,.94-.21,.47,.42-.47,.73-1.65,1.26-2.48,1.26-2.95,0-4.48,3.99-2.95,7.34,1.89,3.99,.59,5.56-3.54,4.72-3.18-.63-3.54-.42-4.83,3.88-.83,2.52-2.12,5.25-3.07,6.19-.83,.84-1.53,2.31-1.53,3.25,0,1.15-1.41,1.57-4.95,1.57-2.83,0-5.54,.21-6.25,.31-.59,.1-4.24,.21-7.9,.1-8.25-.1-11.2-2.1-8.72-5.67,1.89-2.52,.94-10.7-1.06-10.7-1.89,0-7.07,3.99-8.02,6.19-.59,1.26-.24,2.62,1.06,3.88,1.06,1.05,1.53,2.31,1.18,2.94-.47,.52-.24,1.26,.47,1.68,2.95,1.68,.83,4.3-5.31,6.71-3.54,1.36-6.6,2.83-6.6,3.36-.12,.52-.24,1.57-.35,2.2,0,.73-.83,1.36-1.65,1.36-.94,0-2.24,.73-2.95,1.68-1.65,1.89-4.95,3.15-6.01,2.31-.35-.42,.12-1.47,1.18-2.52,2.12-2.1,1.53-5.14-1.06-5.14-.83,0-2.48-1.57-3.54-3.46-1.06-1.78-3.77-5.46-6.01-8.08-3.3-3.88-3.77-5.14-2.83-7.34,.83-2.1,.59-2.94-1.18-4.3-1.3-.94-2.36-2.52-2.24-3.67,.24-1.99-.83-2.2-10.96-1.26-3.42,.31-4.83,4.62-1.89,5.67,.94,.31,1.41,1.26,1.06,2.1s0,2.2,.83,3.04c.71,.84,1.06,1.99,.59,2.62-.83,1.26,4.24,5.98,8.25,7.87,3.65,1.68,3.77,4.72,.12,4.72-2.24,0-3.07,.52-3.07,2.1,0,1.15-.71,2.1-1.65,2.1-2.24,0-3.3,2.94-1.89,5.35,.94,1.36,.83,1.99,0,1.99-.71,0-1.18,1.26-.94,2.83,.24,2.31,.94,2.83,2.71,2.62,1.3-.21,4.01-.63,5.89-.84,2.48-.42,3.07-.31,1.89,.42-.94,.63-1.3,1.78-.94,2.73,.59,1.36-.12,1.68-3.42,1.68-3.89,0-4.13,.21-3.77,2.83,.24,1.89,1.41,3.36,3.54,4.3,2.36,.94,3.42,2.52,4.48,6.61,.94,3.36,1.06,5.67,.35,6.3-.59,.52-6.01,1.05-11.91,1.05-7.9,.1-11.2,.52-12.26,1.68-1.77,1.99-2.24,21.09-.47,23.92,1.65,2.73,3.3,3.78,5.19,3.15,.71-.21,1.41,.21,1.41,1.05s.71,1.57,1.65,1.57c2.59,0,3.54,3.99,1.53,6.61-.94,1.26-4.13,4.51-7.07,7.13-3.42,3.25-5.54,6.19-6.01,8.81-.59,2.62-2.71,5.56-6.72,9.23-3.18,2.83-5.78,5.46-5.78,5.56,0,1.05-7.9,11.86-10.85,14.9-4.36,4.51-5.19,7.87-2.95,12.07,2.36,4.41,2.83,11.12,.94,14.27-1.77,2.94-2.48,8.39-1.06,9.13,.47,.31,.94,1.57,.94,2.94,0,1.26,1.41,3.57,3.3,5.04,5.19,4.3,8.37,7.97,9.2,10.81,.35,1.47,1.18,2.62,1.77,2.62,.47,0,4.36,3.04,8.49,6.71,9.08,8.08,13.32,9.34,20.28,5.98,3.3-1.57,4.95-1.78,6.01-1.05,.94,.73,3.65,.84,7.19,.31,3.07-.52,6.13-.73,6.6-.63s2.24-.84,3.77-2.2c2.24-1.78,4.01-2.31,7.43-1.99,3.77,.31,4.95,1.05,6.72,3.99,2,3.36,2.48,3.57,8.37,3.57,7.55,0,8.49,1.57,5.66,9.02-2.36,5.98-2.36,10.49,.12,12.69,.94,.84,1.77,2.1,1.77,2.83s2.48,3.67,5.42,6.4c4.24,3.88,5.54,5.77,5.66,8.81,.12,2.1,.94,5.14,1.77,6.82,1.65,3.78,1.18,6.61-3.77,19.83l-3.77,10.28,5.54,9.13c4.6,7.66,5.54,10.07,5.42,14.37-.12,4.09,.71,6.5,3.54,10.7,2,3.04,3.54,5.56,3.18,5.56-.24,0,.94,2.94,2.59,6.5,1.65,3.67,2.95,8.39,2.83,10.49-.24,4.09,.47,4.83,6.96,6.82,6.96,2.2,14.85,1.57,23.11-1.99,1.41-.52,3.54-.84,4.83-.63,2.48,.31,6.25-1.78,6.25-3.67,0-.52,2.95-3.46,6.48-6.5,5.54-4.72,6.48-6.19,6.48-9.44,0-3.04,.83-4.51,4.48-7.34,2.36-1.99,4.72-3.67,5.07-3.67,2.12,0,4.6-7.76,4.6-14.58,0-8.08,.94-9.55,11.08-16.37,2.59-1.78,5.54-5.04,6.72-7.66,2.24-4.51,2.24-5.98,.35-14.9-.47-1.99-1.06-8.29-1.3-13.95l-.47-10.18,4.48-5.56c2.36-2.94,8.13-9.02,12.73-13.32,10.37-9.97,14.38-14.48,19.1-21.93,3.77-5.98,5.54-12.38,4.36-15.21-.59-1.47-.94-1.47-3.18-.1-4.48,2.83-21.34,1.26-22.75-2.1-.35-.73-1.65-1.57-2.95-1.89-1.53-.42-2.24-1.47-2.24-3.67s-.71-3.36-2.36-3.88c-1.3-.42-4.6-3.57-7.19-7.13-2.71-3.57-5.54-6.92-6.48-7.34s-1.65-1.36-1.65-1.89c0-.63-.71-2.62-1.65-4.41-.94-1.89-2.24-5.14-3.07-7.24-.71-2.2-1.89-4.2-2.36-4.51-.59-.31-2-2.41-3.07-4.51-.94-2.1-2.59-5.46-3.54-7.34-2-4.09-2.12-5.46-.47-5.46,.71,0,1.18,.73,1.18,1.57s.47,1.57,.94,1.57c1.53,0,13.56,16.89,14.97,20.98,.47,1.47,3.07,5.46,5.78,8.92,2.59,3.46,6.01,8.6,7.55,11.54,1.53,2.83,4.72,7.03,7.07,9.13,5.07,4.72,9.55,5.14,16.39,1.68,2.48-1.26,6.37-3.04,8.61-4.09s5.89-3.04,8.13-4.51,4.83-2.73,5.66-2.73c.94,0,4.95-2.94,8.84-6.4,8.61-7.66,8.96-9.86,3.18-16.89-4.48-5.46-9.79-7.87-19.33-8.6-3.18-.31-6.25-.52-6.72-.52-.59-.1-.94-.84-.94-1.68,0-.73-.71-1.89-1.53-2.31s-2.12-2.1-2.95-3.78c-.71-1.57-2.95-3.67-4.95-4.83-3.42-1.78-3.42-1.99-1.18-2.52,1.65-.42,3.42,.42,5.78,2.52,1.89,1.68,4.36,3.04,5.31,3.04,1.06,0,1.89,.42,1.89,1.05,0,.52,.59,1.05,1.18,1.05,.71,0,2.71,1.15,4.48,2.62,3.77,3.15,4.36,3.25,6.84,.63,1.89-1.89,2-1.89,4.13,0,1.3,1.15,2.24,2.41,2.24,3.04,0,.94,1.77,1.15,13.32,1.57,1.77,.1,3.77,.63,4.48,1.26,.94,.84,2.36,.84,4.36,.21,1.53-.52,4.72-.73,6.84-.31,4.72,.73,15.09,8.81,17.8,13.74,1.77,3.46,6.13,4.93,6.37,2.1,.12-2.1,2.12,2.73,2.12,5.35,.12,1.36,1.18,4.41,2.59,6.82,1.3,2.41,3.54,7.03,4.83,10.18s3.89,7.45,5.78,9.55c1.77,2.1,3.65,5.04,4.01,6.5,1.06,3.67,3.54,5.25,6.72,4.62,3.18-.73,4.95-4.09,6.84-13.22,1.06-4.93,2.48-7.97,5.31-11.12,2.24-2.31,4.48-5.56,5.19-7.13s2-2.83,2.95-2.83c2.36,0,12.38-8.92,13.79-12.28,1.06-2.52,1.3-2.62,3.3-.94,3.54,2.83,6.84,1.99,6.13-1.78,0-.42,.24-.73,.71-.63,1.89,.1,12.73,16.26,12.85,18.89,.24,4.83,1.41,6.19,5.07,6.19,1.89,0,3.89-.52,4.24-1.05,.94-1.47,2.95-1.36,2.95,.21,0,.63,1.18,3.57,2.71,6.5,2.95,5.88,3.3,11.65,.94,17.73-1.89,4.83-1.06,7.03,2.48,7.03,2.71,0,4.36,2.31,8.13,11.54,.83,1.99,2,4.3,2.59,4.93,.71,.94,.71,1.36-.12,1.36-.71,0-3.3-2.31-5.89-5.04-4.6-4.83-5.07-5.04-10.85-5.14-6.01-.1-6.01,0-5.31,2.73,.35,1.47,2.12,3.67,3.77,4.83,9.31,6.3,13.2,10.39,14.03,14.9,.35,2.52,1.18,4.51,1.77,4.51s1.06,.73,1.06,1.57,1.18,1.78,2.71,2.1c1.77,.42,3.18,1.89,3.89,3.88,1.06,3.46,6.37,6.92,10.61,7.03,3.89,.1,6.13-2.94,5.66-7.76-.12-2.31-.35-4.83-.35-5.56-.12-.73-1.06-1.68-2.12-1.99-3.89-1.26-8.61-4.93-8.61-6.61,0-.94-1.41-2.83-3.07-4.09-3.89-3.04-3.07-3.67,2.12-1.68,6.6,2.41,6.96-.52,.94-8.18-2.59-3.36-4.72-7.24-4.72-8.71,0-1.36-.47-2.52-1.06-2.52s-3.3-2.62-6.01-5.77l-4.95-5.67,2.71-4.93,2.59-4.93,3.18,3.25c1.77,1.89,4.01,3.36,5.07,3.36,1.18,0,2.95,1.89,4.36,4.83,3.07,5.88,6.13,5.88,9.79-.1,1.41-2.2,3.89-5.14,5.42-6.3,2.71-2.1,2.71-2.41,1.3-8.39-1.06-4.41-2.59-7.24-4.95-9.23-4.01-3.57-7.07-9.65-6.6-13.22,.35-2.41,7.43-7.24,8.84-5.98,.35,.31-.24,2.52-1.41,5.04-1.89,4.3-1.89,4.51,.47,6.19,1.41,1.05,3.54,1.47,5.42,1.26,2.71-.52,2.95-.94,2.95-6.71,0-4.72,.35-5.98,1.65-5.56,.83,.31,2.95-.94,4.6-2.62,1.65-1.78,4.13-3.25,5.42-3.25,2.24,0,5.54-1.99,10.85-6.4,1.06-1.05,2.83-4.41,3.89-7.66s2.59-5.88,3.42-5.88c1.41,0,4.36-6.71,4.36-9.86,0-.73-.83-1.99-1.77-2.73s-1.41-1.78-1.06-2.31-.24-1.99-1.53-3.15c-2.12-2.1-2.12-2.2,.47-1.47,4.48,1.26,4.48-1.57,.12-5.04-2.36-1.78-5.66-5.56-7.31-8.5l-3.18-5.25,5.07-3.88c2.83-2.1,4.72-4.09,4.36-4.41-.35-.42-3.77-.84-7.66-1.05-3.77-.21-7.9-.73-8.96-1.15-3.18-1.15-2.48-4.09,1.53-6.71l3.54-2.31-.83,3.67c-.83,4.41,0,4.72,4.13,1.26,1.77-1.36,5.31-2.73,8.13-3.15,5.19-.73,5.66-.31,4.95,4.93-.12,1.15,.83,2.2,2.36,2.52,1.89,.42,2.36,1.15,1.89,2.62-.35,1.47,.12,2.31,1.77,2.62,1.53,.42,2.24,1.47,2.24,3.46,0,1.57,.94,3.99,2.24,5.35l2.12,2.31,5.54-3.99c2.95-2.31,5.42-4.51,5.42-5.14,0-1.15-6.96-11.44-8.37-12.17-3.54-2.1-2.83-9.76,1.3-14.16,.94-1.05,1.77-3.15,1.77-4.62,0-2.1,.71-2.83,2.95-3.04,4.13-.52,6.48-2.62,10.02-9.34,5.54-10.39,7.78-29.59,4.48-37.56-2.36-5.56-3.3-11.12-1.65-8.92,.71,.84,1.3,2.62,1.3,3.99,0,1.26,.71,2.62,1.65,2.94,1.53,.52,3.89,10.91,3.42,15.11-.24,2.41,2.83,6.82,6.72,9.86,7.07,5.25,9.31,2.41,4.13-5.14-3.54-5.14-3.65-6.09-.59-5.25,3.3,.94,3.07-1.47-.59-6.19-1.65-2.1-2.95-4.51-2.95-5.35s-.47-1.78-1.18-2.1c-.59-.31-1.18-1.78-1.18-3.15,0-1.26-1.3-3.46-2.95-4.83-1.77-1.47-2.95-3.67-2.95-5.46,0-1.57-.83-3.15-1.77-3.46-.94-.42-1.77-1.57-1.77-2.73,0-2.73-2.71-1.89-3.54,1.05-.59,2.2-.83,2.1-5.78-1.36-5.78-4.09-7.43-4.41-9.55-2.1-1.65,1.78-2.36,1.89-4.36,.73-.94-.52-.71-3.46,.83-11.23,1.3-5.77,2.24-12.17,2.36-14.27,0-4.51,3.65-7.87,7.9-7.45,1.53,.21,3.42-.1,4.24-.63s3.3-1.36,5.54-1.78c7.78-1.36,8.37-1.68,7.66-3.78-.47-1.15-.24-1.99,.59-1.99s1.65,.84,2,1.89c.47,1.89,.83,1.89,6.01,.42,8.96-2.52,11.44-3.78,11.79-6.3,.35-1.78-.24-2.31-2.36-2.31-2.59,0-2.71-.31-2.71-7.55,0-6.3,.35-7.66,2-7.97,1.06-.21,2.59,.63,3.3,1.89,.83,1.47,2,1.99,3.18,1.57,1.06-.31,2.36,0,2.83,.63,1.18,1.78,3.42,.1,3.42-2.52,0-3.99,1.77-5.35,3.3-2.41,.94,1.89,.83,2.94-.47,4.72-.94,1.15-2,5.14-2.36,8.71-.47,3.67-1.77,9.44-3.07,12.9-1.65,4.41-2.12,7.55-1.53,11.02,1.06,7.03,2.83,12.28,4.48,13.85,2.83,2.62,5.54,7.13,5.54,9.02,0,1.15,.71,2.62,1.53,3.25,.94,.63,2.24,2.94,3.07,5.04,.71,2.2,2.59,5.35,4.24,7.13,4.24,4.51,5.89,2.41,6.01-7.66,.12-4.51,.71-9.13,1.3-10.18,.71-1.15,.94-2.62,.71-3.36-.24-.63,.59-1.47,1.89-1.89,2.95-.84,3.18-3.36,.59-6.71-1.41-1.68-1.77-3.67-1.3-6.71,.71-4.72-.47-7.55-4.6-10.7-1.53-1.15-4.01-4.41-5.66-7.13l-2.95-5.04,2.59-4.41c2.24-3.78,2.83-4.3,4.01-2.94,1.18,1.47,1.53,1.26,2.71-.94,1.06-2.2,2.12-2.62,5.66-2.73,7.78,0,8.84-.84,7.9-6.5-.59-4.3-.35-5.46,2.48-9.13,2.12-2.83,3.42-5.98,3.77-9.65,.47-4.93,.71-5.35,2.71-4.2,1.65,.84,2.48,.94,3.54,0,1.89-1.68-1.06-5.35-5.66-7.13-2.59-.94-3.89-2.2-3.89-3.67,0-1.15-.83-2.41-1.77-2.73-1.18-.42-1.41-1.05-.83-1.89,.59-.63,1.41-3.25,1.89-5.88l.83-4.83,6.13,.63c3.42,.31,8.37,1.68,11.08,2.94,8.84,4.09,10.85,2.73,5.54-3.57-2.83-3.25-3.07-4.2-2.59-10.39,.47-4.2,.24-6.5-.47-6.19-.59,.31-2.12-.21-3.54-1.26-1.53-1.26-4.24-1.99-8.02-2.1-3.77,0-6.37-.73-7.78-1.99-1.18-1.05-4.36-2.83-6.96-3.88s-6.13-2.94-7.78-4.09c-2-1.47-5.19-2.2-10.02-2.52-3.77-.1-10.61-1.05-15.21-1.89-7.07-1.36-9.2-1.47-14.97-.21-7.78,1.57-9.2,2.2-9.2,4.3,0,.84-1.18,1.47-2.95,1.47-2.59,0-2.95,.42-2.71,2.83,.24,2.2-.24,2.94-2,3.25-6.01,.84-7.9,1.47-10.02,3.36-2.24,1.99-2.71,1.99-6.48,.63-2.24-.84-4.13-2.1-4.13-2.62,0-.63-.71-1.15-1.65-1.15-.83,0-3.54-1.47-6.01-3.15-5.31-3.78-5.78-3.78-9.43-.63-3.42,3.04-9.43,3.99-13.44,2.1-1.65-.84-4.01-1.15-5.07-.84-1.53,.42-2.48-.21-3.3-2.1-1.06-2.52-2.59-3.36-5.31-2.73-7.66,1.68-8.61,1.68-10.61,.42-1.77-1.15-2.59-1.15-5.42,.1-1.77,.84-5.66,1.57-8.72,1.57-4.95,0-6.84,1.15-4.13,2.62,.71,.31,1.18,1.47,1.18,2.41,0,1.05,1.06,2.62,2.36,3.67,3.89,2.94,2.71,5.04-3.77,6.92-2.48,.73-4.72,1.68-5.07,2.2s-1.77,0-2.95-1.05c-1.3-1.15-3.18-2.1-4.13-2.1-2,0-2.36,2.62-.59,3.67,2.83,1.57,.83,2.31-3.77,1.36-5.07-.94-10.37-4.93-10.37-7.76,0-2.2-5.42-3.78-13.91-4.09-8.02-.31-10.14,1.05-7.66,4.62,1.18,1.68,.12,1.78-12.73,1.57-7.66-.1-14.62-.63-15.44-1.15-1.77-1.26-6.84-1.15-8.84,0-1.77,.94-2,4.62-.47,5.14,.59,.1,.12,1.47-1.18,2.83-1.77,1.89-2.24,2.1-2.24,.73,0-2.62,2.36-11.33,3.65-13.53,2.12-3.46-.24-10.28-4.95-14.69-2.48-2.41-4.95-3.78-5.78-3.36-.71,.42-2.36-.1-3.65-1.15-2.12-1.78-2.36-1.68-4.95,.42-2.12,1.78-3.42,2.1-6.13,1.36-2.95-.63-3.42-1.26-3.18-3.46,.47-3.04-.71-3.88-6.25-5.04l-3.89-.73,.47,7.24Zm6.96,0c0,1.36,1.06,2.83,2.48,3.46s3.54,1.78,4.6,2.62c1.77,1.26,2.24,1.26,3.65-.42,.83-1.05,1.77-2.52,2-3.15,.35-.84,1.3-.73,3.07,.1,1.3,.73,3.18,1.36,4.13,1.36,1.89,0,9.43,6.3,8.49,7.03-.24,.31,0,1.89,.71,3.57,.83,2.1,.83,3.46,0,4.41-.59,.63-2,5.25-3.07,10.07-.94,4.93-2.24,9.13-2.71,9.44-1.3,.84-7.43,8.29-7.43,8.92,0,.31,.83,.63,1.77,.63,2.36,0,10.96-7.97,12.97-12.17,.94-1.78,2.48-3.78,3.42-4.51,1.41-1.05,1.53-1.89,.47-3.67q-1.18-2.1,.94-.42c1.41,1.05,3.54,1.57,5.78,1.26,11.55-1.47,15.09-1.57,18.04-.63,1.89,.52,4.13,.63,4.95,.21,.71-.42,3.18-.31,5.42,.31,5.07,1.36,6.25,.31,3.77-3.46l-1.89-2.94,4.72-.63c6.48-.94,12.14,2.31,15.09,8.5,.59,1.36,2.12,2.41,3.3,2.41s2.59,.42,3.18,.94c.71,.52,3.18,1.26,5.54,1.57,3.65,.63,4.36,.42,5.07-1.47,.47-1.15,1.77-2.1,3.07-2.1s3.65-.84,5.31-1.78c2.95-1.68,3.07-1.68,5.78,1.36l2.83,3.04,.12-4.83c0-2.62,.59-5.25,1.18-5.77,1.53-1.36-1.06-6.71-3.18-6.71-.83,0-1.53-.73-1.53-1.57,0-1.05,1.18-1.57,3.42-1.57,2,0,3.89-.52,4.24-1.05,1.06-1.57,5.31-1.26,4.6,.31-.59,1.47,3.54,5.98,5.54,5.98,.71,0,1.06-1.26,.83-2.94-.35-2.62,0-2.83,3.89-3.15,3.42-.21,4.36,.1,5.31,1.99,1.18,2.41,1.89,2.52,14.62,3.46,5.66,.31,6.84,.1,9.55-2.2l3.07-2.52,4.48,2.62c2.48,1.47,4.83,2.73,5.42,2.73,.47,0,2.24,1.15,3.89,2.62,1.89,1.68,4.24,2.62,6.72,2.62s4.72-.84,6.48-2.62c1.89-1.78,4.01-2.62,6.84-2.62,2.24,0,4.48-.42,4.83-1.05,.47-.63,2-.42,4.13,.52,4.72,2.1,6.72,1.99,7.43-.63,.47-1.47-.24-2.94-2.24-4.62-1.53-1.26-2.83-2.73-2.83-3.25,0-1.15,10.37-4.2,12.97-3.88,.94,.1,4.13,.52,7.07,.94,2.95,.31,5.78,1.05,6.37,1.57,.71,.52,2.71,.94,4.6,.94,2,0,5.66,.94,8.37,1.99s7.07,2.52,9.9,3.25c3.54,.84,6.72,2.73,10.49,6.4,3.07,2.83,6.48,5.14,7.66,5.14,2.36,0,2.71-1.15,.83-2.83-2.36-2.1,3.54-2.31,6.6-.21,2.48,1.89,2.83,2.62,2.24,6.61-.47,3.04-.12,5.46,1.18,7.76,2.59,4.51,2.48,4.62-2.95,1.78-3.42-1.68-6.13-2.31-8.72-1.89-3.3,.42-4.24,0-7.55-3.78-3.89-4.3-6.6-5.46-7.55-3.04-.59,1.57,1.53,6.09,2.71,6.09,1.89,0,3.07,4.83,1.77,8.08-1.06,2.73-1.53,3.15-3.3,2.2-1.18-.52-2.95-.73-3.89-.42-2.95,1.05-1.77,3.36,2.59,4.72,2.83,.94,4.72,2.52,6.01,4.83,1.18,2.2,3.3,3.99,5.31,4.62,1.77,.63,3.3,1.26,3.3,1.57s-.83,.31-1.77,0c-2-.73-2.71,.52-3.42,6.82-.35,2.52-1.77,6.09-3.3,7.87-2,2.52-2.71,4.62-2.71,9.23,0,5.67-.12,5.98-2.95,6.3-1.65,.21-3.89-.1-5.07-.73-1.65-.84-2.36-.63-3.3,.73-.59,.94-2,1.47-3.18,1.15-1.77-.31-2.95,.84-5.42,5.46-2,3.88-2.83,6.82-2.36,8.29,1.53,4.3,6.37,11.65,8.96,13.32,1.89,1.36,2.59,3.04,2.83,7.66,.24,3.15,1.3,7.03,2.36,8.5,1.89,2.52,1.77,2.62-.47,2.62-2.59,0-3.89,4.51-4.48,15.21-.47,11.65-.24,10.81-2.83,7.87-1.3-1.47-2.36-3.04-2.36-3.57,0-.94-2.12-5.46-6.84-14.27-1.06-1.99-2.59-4.41-3.42-5.35-2.36-2.52-5.31-13.53-4.48-16.89,.47-1.57,.71-3.15,.71-3.46,0-.21,.83-2.31,1.89-4.41,.94-2.2,2-6.61,2.24-9.76s1.06-7.03,1.77-8.6c1.65-3.67,.47-9.86-2.83-14.16-2.71-3.67-6.48-4.83-4.95-1.68,1.65,3.67,2,5.56,1.3,7.97-.83,3.04-5.31,3.46-7.43,.73-2-2.52-4.24-2.62-6.84-.42-1.3,1.26-1.77,3.36-1.65,8.18,.24,3.46-.12,7.45-.59,8.71-.71,2.1-.47,2.41,2.36,2.41,4.24,0,2.48,1.57-3.3,2.94-2.71,.63-4.48,.73-4.48,.1,0-1.36-12.61-1.15-13.56,.1-.47,.63-.24,1.78,.47,2.52,1.06,1.15,.47,1.57-3.07,2.1-2.48,.42-6.96,1.47-10.14,2.31-6.84,1.99-8.37,4.72-9.43,16.68-.35,4.62-1.53,10.6-2.36,13.22-1.53,4.41-1.53,5.04,.24,6.4,1.06,.84,2.48,2.52,3.3,3.57,1.18,1.57,1.65,1.68,2.48,.63,.83-1.15,1.3-1.05,1.89,.42,.71,1.68,.94,1.68,1.89,.42,.59-.84,.83-2.41,.47-3.46-.83-2.2,.59-2.31,4.13-.1,2.12,1.36,2.36,1.89,1.18,2.62-1.3,.73-.94,1.47,1.65,3.15,1.77,1.15,3.18,2.73,3.18,3.57,0,.73,1.3,4.83,2.83,9.02,2.36,6.61,2.71,9.02,2,16.16-.47,4.62-1.53,9.55-2.36,11.02-.94,1.36-1.89,3.99-2.12,5.67-.71,5.88-4.36,10.49-10.26,13.01-4.13,1.68-5.42,2.83-4.95,3.99,.35,.94,0,2.94-.94,4.41-5.07,8.71-5.31,9.97-2.95,14.16,1.3,2.1,2.71,3.88,3.18,3.88,.59,0,2.12,2.2,3.65,4.93l2.59,4.83-3.54,3.25c-2,1.68-4.01,2.73-4.48,2.31s-.83-2.83-.71-5.46c.12-2.52-.35-4.83-.94-5.25-.71-.42-.71-1.15,.24-2.1,1.65-1.78-1.18-3.04-4.83-2.2-1.41,.31-2.12,.1-1.65-.52,.35-.52-.24-2.62-1.41-4.62-2.36-3.78-2.71-3.88-13.32-1.89-2.48,.42-2.71,.21-2.24-2.1,.71-3.25-1.65-3.67-4.01-.73-.94,1.15-3.07,2.62-4.72,3.25-5.78,2.41-7.66,9.55-2.71,10.28,1.3,.21,3.3,1.15,4.48,2.1,1.41,1.15,2.48,1.26,3.3,.52,.71-.63,2.24-.94,3.42-.63,1.89,.42,1.77,.73-.71,3.15-1.53,1.47-2.83,3.36-2.83,4.2,0,1.78,3.18,7.34,6.01,10.7,2.71,3.04,2.83,4.09,.35,3.88-3.42-.21-3.07,2.31,.59,4.2,2,1.05,3.18,2.41,2.83,3.25s.47,2.62,1.89,3.88c2.48,2.41,2.59,2.62,.71,5.98-.94,1.99-3.07,5.46-4.72,7.76s-2.95,5.25-2.95,6.5c0,2.62-9.08,9.76-12.5,9.76-1.18,0-3.42,1.15-4.83,2.52-3.07,2.83-8.72,4.2-10.02,2.41-1.41-2.1-14.38,4.51-14.85,7.45-.47,3.15,5.19,13.53,8.84,16.37,3.77,2.94,5.42,13.85,2.24,14.9-1.06,.42-3.07,2.52-4.36,4.72-1.3,2.31-2.59,4.09-2.95,4.09s-1.41-1.68-2.36-3.67c-1.06-2.31-2.48-3.67-3.77-3.67-1.18,0-3.89-1.57-6.01-3.57-5.89-5.46-7.78-5.46-10.26,0-2.36,5.14-4.13,5.14-3.18,0,.35-2.2-.12-4.72-1.18-6.61-.94-1.57-2.48-4.41-3.18-6.3-1.65-3.99-5.07-5.25-8.96-3.36-3.54,1.68-4.24,.94-4.6-4.3-.24-2.94-1.41-5.46-4.36-8.6-2.24-2.52-5.19-6.19-6.6-8.18-3.18-4.72-7.19-7.13-8.61-5.14-.47,.84-.47,1.89,.12,2.41,.71,.63,1.18,1.78,1.18,2.62,0,1.15-.71,.94-2.71-.73-3.89-3.25-5.31-2.83-6.72,1.99-.71,2.31-2.24,4.51-3.3,4.83-1.06,.42-3.18,2.1-4.72,3.67s-3.54,2.94-4.48,2.94c-.83,0-2.71,1.78-4.01,3.88-3.3,5.56-4.83,7.55-7.9,10.39-1.53,1.36-2.71,3.25-2.83,4.3-.35,8.29-2.95,16.05-5.31,16.05-.94,0-2.59-1.68-3.54-3.78-.94-1.99-3.3-5.67-5.19-7.97s-3.89-5.98-4.24-8.08c-.47-2.1-1.53-4.72-2.36-5.88-1.77-2.41-6.37-17.31-6.37-20.46s-3.3-2.62-4.24,.52c-.35,1.47-1.06,2.62-1.53,2.62-1.41,0-3.65-2.41-3.77-4.09,0-.94-2.36-3.36-5.19-5.35-2.83-2.1-5.42-4.93-5.89-6.61-.83-2.94-1.77-3.46-3.54-1.89-1.53,1.26-11.44,1.78-13.32,.73-.83-.42-4.72-.84-8.61-.94-6.6-.21-7.55-.52-10.37-3.67-3.77-3.88-5.42-4.2-7.19-1.15-1.18,1.89-1.53,1.99-3.3,.63-1.06-.84-4.95-3.04-8.72-4.83-4.36-2.2-6.84-4.2-7.31-5.88-.83-2.94-3.65-3.46-4.72-.94-.47,1.15-1.53,1.47-3.65,1.05-1.65-.42-2.95-.42-2.95-.21s-.35,1.15-.71,2.1c-.47,1.05,.94,2.41,4.24,4.3,4.36,2.52,8.84,8.39,8.02,10.7-.24,.52,.12,.94,.71,1.05s1.41,.73,1.89,1.47c.59,.73,2.95,1.26,5.54,1.15,2.48-.1,7.19,.31,10.49,.84,5.42,1.05,6.37,1.68,10.37,6.92,2.36,3.25,4.24,6.3,4.01,6.71-.71,1.89-13.09,12.59-14.5,12.59-.83,0-3.3,1.15-5.54,2.41-2.24,1.36-7.43,4.09-11.67,6.09-4.13,1.99-7.66,3.88-7.9,4.3-.59,1.15-3.18,1.05-6.6-.31-3.18-1.36-10.49-10.39-11.67-14.58-.47-1.47-2.83-5.04-5.19-7.87-2.48-2.94-6.25-8.6-8.49-12.59-2.24-4.09-5.19-8.5-6.6-9.97s-4.36-5.14-6.48-8.18c-4.13-5.77-4.72-6.09-8.25-4.41-2.83,1.36-2.48,2.2,6.37,19.09,2.36,4.41,4.24,8.6,4.24,9.13,0,.63,1.06,2.94,2.36,5.04,1.3,2.2,2.36,4.41,2.36,5.04s1.06,1.68,2.24,2.31c1.3,.73,4.01,3.88,6.13,7.03s5.07,6.19,6.6,6.82c1.89,.73,2.71,1.99,2.71,3.99,.12,2.31,1.3,3.57,5.66,6.09,4.95,2.83,6.48,3.15,15.21,3.15s9.79,.21,9.79,1.89c0,2.31-5.31,11.65-9.31,16.47-5.66,6.71-6.6,7.66-17.68,18.26-14.5,13.95-14.74,14.48-13.91,26.86,.35,5.46,1.06,11.12,1.41,12.59,3.3,12.59,1.89,16.05-9.9,24.87-4.48,3.36-8.37,6.61-8.72,7.24s-.12,3.46,.47,6.3c1.65,7.66,.35,10.7-6.6,16.47-4.95,3.99-6.37,5.98-6.96,9.34-1.06,5.88-2.48,7.76-7.78,10.81-2.59,1.47-4.72,3.25-4.72,4.09,0,2.1-2.59,3.67-7.19,4.2-2.24,.21-6.01,1.15-8.37,2.1-5.19,1.99-9.79,2.1-15.21,.42-5.07-1.47-5.89-2.62-5.07-6.71,.35-1.89,.12-3.67-.47-3.99-.71-.31-2.48-3.88-3.89-7.76s-3.89-9.13-5.42-11.65c-1.65-2.94-2.71-6.4-2.71-9.44,0-3.67-1.18-6.71-4.72-12.49-5.31-8.6-5.78-12.28-2.36-18.89,1.18-2.41,2-4.41,1.77-4.41-.12,0,.35-2.2,1.3-4.93,2.12-6.19,2.12-10.81-.12-14.58-.94-1.68-1.41-3.99-1.06-5.14,.59-2.1-3.89-8.29-8.25-11.44-.83-.63-2.83-3.15-4.24-5.56-2.36-3.88-2.59-4.93-1.53-8.39,3.89-12.07,2.95-15.32-4.6-15-7.07,.42-7.78,.1-9.31-3.67-1.53-3.57-1.65-3.67-8.13-3.67-3.54,0-7.55,.63-8.84,1.36-4.13,2.41-12.5,4.2-13.91,2.94-2-1.78-5.78-1.36-9.67,.94-1.89,1.15-4.36,2.1-5.42,2.1-2.48,0-12.85-7.24-12.85-8.92,0-.73-1.89-2.31-4.13-3.57-2.24-1.15-4.13-2.94-4.13-3.99s-2.36-4.3-5.19-7.24c-2.95-2.94-6.25-7.34-7.31-9.86-1.89-4.09-1.89-4.62-.12-7.24,2.12-3.25,2.12-12.38-.12-17.21-2.12-4.62-1.77-5.98,3.18-11.23,2.59-2.73,5.42-6.5,6.37-8.5s4.36-5.98,7.55-8.92c3.54-3.25,6.96-7.87,8.61-11.44,1.77-3.88,4.6-7.55,7.9-10.28,2.83-2.31,5.07-4.72,5.07-5.46,0-1.05,1.77-1.26,6.96-.84,6.48,.52,7.19,.42,10.02-2.31,2.59-2.41,3.89-2.83,9.2-2.83,3.42,0,7.9-.63,10.02-1.47,2.83-1.15,4.48-1.26,6.96-.42,2.24,.84,4.36,.84,6.84,0,3.07-.94,3.89-.84,5.19,.73,.83,1.05,1.18,2.52,.71,3.46-1.06,2.31-1.41,6.3-.59,6.3,.35,0,1.65,1.47,2.71,3.15,1.41,2.1,2.95,3.15,4.83,3.15,1.53,0,4.83,1.36,7.31,3.15s5.19,3.15,6.13,3.15,3.18,.84,4.83,1.89c5.07,3.15,9.31,1.47,11.32-4.41,.83-2.1,2.59-1.99,11.91,.42,9.43,2.41,18.39,3.15,23.34,1.99,3.54-.84,4.95-.84,5.31,0,.59,1.68,5.42,1.36,9.43-.63,3.65-1.89,6.25-6.92,6.01-11.86-.12-1.47,.24-3.67,.71-4.83,.94-2.83-1.77-3.88-6.01-2.52-3.89,1.36-9.55,1.36-10.49,0-.35-.63-2.24-1.05-4.01-1.05-8.25,0-10.61-1.05-12.03-5.46-.59-2.31-1.41-4.72-1.77-5.46-.71-1.78,8.37-5.98,9.9-4.62,1.89,1.68,4.95,.21,4.95-2.2,0-1.47,1.06-2.41,3.3-2.83,1.77-.42,4.01-1.36,5.19-2.2,1.06-.84,4.95-1.68,8.84-1.89,6.01-.31,7.19,0,10.14,2.41,2.59,2.2,3.65,2.52,5.31,1.68,1.06-.63,2.12-2.2,2.12-3.46,.12-1.26,.47-2.52,.83-2.94,1.65-1.36-1.77-4.51-4.83-4.51-2.12,0-4.6-1.15-6.72-3.15-1.89-1.78-4.13-3.15-4.95-3.15-2,0-2-1.57,.24-3.57,3.54-3.04,1.06-10.49-2.59-7.87-.83,.73-1.53,1.78-1.53,2.41s-1.77,1.89-3.89,2.83c-2,.94-3.65,2.41-3.42,3.15,.59,1.89-2.36,6.3-3.77,5.88-.71-.21-1.3-1.68-1.3-3.36,0-3.88-3.18-5.67-5.89-3.36-1.06,.94-2.83,1.78-3.89,1.78s-3.3,1.26-5.07,2.73c-3.18,2.62-3.18,3.04-1.65,6.19,1.18,2.62,1.18,3.78,.24,4.62-1.06,.94-.94,1.78,.12,3.36,1.65,2.31,.94,4.09-1.53,4.09-.94,0-2,1.15-2.48,2.62l-.71,2.62-2.48-2.94c-1.3-1.57-2.71-3.04-2.95-3.36s-1.41,.52-2.59,1.78c-1.18,1.36-2.95,2.41-4.01,2.41-1.18,0-1.89,.94-1.89,2.41,0,3.57-1.06,3.99-3.77,1.57-1.77-1.57-2-2.31-.94-3.46,1.53-1.68,.59-3.67-1.77-3.67-.83,0-1.77-1.26-2-2.83-.24-1.78-1.18-3.04-2.48-3.25-2.48-.42-12.61-8.92-12.61-10.6,0-1.78-5.42-3.57-8.61-2.83-3.77,.84-4.72,4.2-1.89,6.5,1.18,.94,2.24,2.31,2.24,3.04,0,1.47,9.08,9.97,10.61,9.97,.71,0,1.18,.94,1.18,1.99,0,1.15,.59,2.41,1.18,2.73,.71,.31,1.18,1.36,1.18,2.2s-3.3-1.57-7.43-5.35-7.78-6.82-8.13-6.82c-1.06,0-8.02-6.3-8.02-7.24,0-.42-1.41-1.47-3.07-2.2-2.71-1.36-3.18-1.26-4.95,.84-1.65,1.89-3.42,2.41-9.55,2.73-7.43,.42-9.55,1.47-9.55,4.83,0,.84-2.71,3.57-5.89,6.09-4.48,3.46-5.89,5.25-5.89,7.55,0,4.62-1.18,6.3-4.24,6.3-1.65,0-4.13,.63-5.54,1.47-5.42,3.04-7.19,2.94-10.02-.84-1.77-2.41-3.42-3.36-4.83-3.04-2.24,.52-5.42-4.2-4.13-6.19,.94-1.26,.94-10.28,0-12.38-1.53-3.46,1.06-4.41,12.73-4.62,6.72-.1,11.91-.73,12.73-1.47,2.95-2.62,.12-15.42-3.77-16.47-1.18-.31-2.83-1.36-3.65-2.31-1.41-1.47-1.18-1.57,2.12-.94,3.07,.63,4.01,.42,5.07-1.47,.83-1.47,2-1.99,3.18-1.68,3.18,1.15,5.89-.31,9.08-4.62,1.65-2.31,3.77-4.2,4.72-4.2s1.89-.73,2.36-1.57c.35-.84,1.65-1.57,2.83-1.57,1.53,0,2.48-.94,2.95-2.94,.71-2.83,5.66-5.46,10.61-5.46,1.06,0,2.24-1.15,2.71-2.62,.59-1.99,1.3-2.52,2.83-2.1,4.83,1.36,19.22,1.57,20.87,.31,1.3-.94,2.24-.94,4.13,.1,2.71,1.47,5.66,0,5.66-3.04,0-1.05,.83-2.41,1.77-3.15s1.77-2.2,1.77-3.15c0-3.88,1.41-5.25,5.19-5.25,2.95,0,4.24-.63,5.42-2.62,1.41-2.31,1.3-2.83-.47-4.62-2.36-2.31-2.12-4.51,.59-4.93,10.96-2.2,14.62-3.36,14.97-4.93s-.94-1.78-11.44-1.78c-13.79,0-14.74-.63-13.56-9.13,1.06-8.08,1.41-9.02,5.19-12.8,4.36-4.41,4.24-7.55-.35-9.02-3.18-.94-3.77-.63-8.02,3.67-2.48,2.62-5.66,5.77-6.96,7.13-3.89,3.99-4.95,6.61-5.42,13.64-.24,4.62,.12,7.24,1.06,7.76,1.06,.52,1.06,1.78-.12,5.56-.83,2.62-1.41,5.56-1.41,6.61,0,4.62-7.19,12.8-11.2,12.8-.35,0-.59-2.52-.59-5.67,0-3.99-.59-6.3-2-7.45-1.06-1.05-2.12-2.83-2.24-4.09-.12-1.15-.35-2.52-.35-3.04-.24-1.78-4.72-.52-6.48,1.89-2.36,3.25-7.19,3.46-8.96,.52-1.53-2.62-.24-10.49,1.89-11.23,2.59-.84,1.89-2.1-1.41-2.83-2.48-.63-2.83-.94-1.65-2.2,.83-.84,1.89-1.36,2.36-1.05,.59,.31,1.3-.42,1.77-1.57,.35-1.15,1.41-2.1,2.24-2.1,1.89,0,8.96-7.76,8.96-9.86,0-.94,.59-1.68,1.18-1.68,.71,0,1.18-.73,1.18-1.57,0-.73,.59-3.88,1.3-6.82,.94-3.78,1.77-5.25,3.07-5.04,1.18,.21,2.48-1.36,3.89-4.3,1.06-2.62,4.01-6.19,6.37-7.87,2.36-1.78,4.24-3.88,4.24-4.62s.47-1.15,.94-.84c.59,.31,2.36-.63,4.13-2.1,1.65-1.36,3.89-2.52,4.95-2.52,.94,0,1.77-.73,1.77-1.68,0-1.26,.47-1.47,1.53-.73,.71,.63,3.18,1.15,5.31,1.15,2.36,0,4.6,.84,5.42,1.89,1.06,1.26,2.36,1.57,4.6,1.05,2.48-.52,3.89,0,6.84,2.52,2.12,1.68,5.07,3.15,6.6,3.15,2.71,0,7.55,2.2,10.73,4.93,.83,.73,2.12,1.36,2.71,1.36,2.12,0,2.83,.21,4.36,1.26,1.89,1.47,1.77,3.04-.83,5.98l-2.12,2.41-10.26-1.78c-5.66-1.05-10.61-1.57-10.96-1.15-.35,.31,1.06,1.36,3.3,2.41,5.66,2.73,9.31,6.19,9.31,8.81,0,3.46,8.02,8.18,10.96,6.5,.83-.42,2.24-.84,3.18-.84,1.18,0,1.77-1.15,1.77-3.36,.12-4.51,5.66-9.76,10.26-9.76,3.89,0,4.36-2.41,1.41-7.45-2-3.57-1.65-4.72,1.3-3.78,1.06,.42,1.77,1.89,1.77,3.67,0,3.78,3.18,6.61,4.83,4.3,.59-.84,1.06-2.31,1.06-3.36,0-1.15,1.06-2.2,2.36-2.52,1.41-.31,3.18-1.89,4.24-3.57,.94-1.68,2.24-3.04,2.71-3.04,.59,0,1.89-.31,2.83-.63,1.89-.63,3.65,3.36,1.89,4.41-.59,.31-1.06,1.26-1.06,2.1,0,2.94,3.77,1.05,6.37-3.04,2.95-4.72,10.61-7.97,12.26-5.25,.59,.84,1.77,1.15,2.95,.73,1.89-.63,2.59-3.46,2.12-8.08-.35-2.2,3.07-2.31,6.25-.21,1.3,.84,3.07,1.57,4.01,1.57s2.59,1.05,3.65,2.2c1.41,1.57,2.71,2.1,4.6,1.57,3.77-1.15,4.36-4.41,1.3-8.81-1.41-2.1-2.48-5.35-2.48-7.24,.12-1.89-.59-3.78-1.41-4.2-1.3-.63-1.53-2.52-1.06-7.97,.35-3.88,1.06-7.03,1.53-7.03,2.12,0,4.95,4.3,4.48,6.82-.35,1.47,.12,3.15,.94,3.78,.94,.63,1.65,2.1,1.65,3.15s1.06,3.57,2.36,5.67,2.36,4.3,2.36,5.04,1.3,3.57,2.95,6.4c3.54,6.3,3.65,8.29,.47,11.02-2.71,2.2-2.24,5.77,.71,6.82,1.89,.63,5.78-2.62,8.37-6.92,2-3.46,1.18-10.39-1.89-15-5.19-7.66-9.67-27.28-5.78-25.18,.71,.42,1.18,2.41,1.06,4.62-.35,5.98-.12,6.4,2.95,6.4,3.77,0,5.07-2.62,2.59-5.04-1.3-1.26-1.53-2.31-.71-3.67,.94-1.36,.83-2.31-.12-3.46-1.18-1.15-1.06-1.47,.35-1.47,.94,0,2,.31,2.24,.73,.24,.52,2.12,1.89,4.24,3.25,7.19,4.51,10.14,.1,3.65-5.56-5.66-4.93-6.13-6.19-2.95-8.81,2.95-2.41,5.89-2.94,9.31-1.68,3.18,1.15,2.59-3.67-.83-6.92-1.65-1.57-3.07-3.46-3.3-4.2-.59-2.62,4.72-7.97,10.26-10.28,4.6-1.89,5.31-2.62,4.72-4.41-.71-1.99-.47-2.1,2.83-1.47,2.12,.42,3.65,.31,3.65-.31s1.65-1.57,3.54-2.2c2-.52,3.54-1.68,3.54-2.41s1.06-1.99,2.48-2.73c1.65-.94,2.12-1.78,1.3-2.62-1.77-1.89-2.95-8.6-2-11.23,.83-2.2,.94-2.2,2.71-.63,1.06,.94,2,2.73,2,3.99Zm224.35,15.21c.59,1.89-2.71,1.68-4.6-.31-1.3-1.47-1.18-1.57,1.3-1.26,1.53,.1,2.95,.94,3.3,1.57Zm-273.28,52.77c0,.52-.47,1.05-1.18,1.05-.59,0-1.18-.52-1.18-1.05,0-.63,.59-1.05,1.18-1.05,.71,0,1.18,.42,1.18,1.05Zm-130.74,16.79c.71,0,.83,.42,.47,1.05-1.18,1.68-5.31,1.26-5.31-.63,0-1.15,.59-1.47,1.89-1.05,1.06,.31,2.36,.63,2.95,.63Zm391.17,77.22c.35,1.68,.12,1.78-1.53,.52-2.24-1.68-2.48-3.57-.35-3.04,.71,.31,1.65,1.36,1.89,2.52Zm-491.5,2.31c0,.52,1.41,1.47,3.07,2.2,2.71,1.05,3.07,1.68,2.48,4.83-.47,2.83,0,4.62,2.36,7.87,1.77,2.31,3.54,4.2,4.13,4.2,.47,0,1.65,1.68,2.59,3.67s2.59,3.99,3.65,4.3c1.53,.52,1.3,1.15-1.41,3.78-3.54,3.25-7.19,4.93-12.38,5.77-3.42,.42-4.6-1.15-1.53-2.2,2.83-.94,2-2.73-1.18-2.73s-4.01-1.57-1.18-2.52c.94-.31,1.77-1.26,1.77-2.2s1.06-1.57,2.95-1.57c2.36,0,2.95-.52,2.95-2.52,0-3.36-1.18-5.88-2.59-5.88-1.77,0-6.96-5.25-6.25-6.3,.35-.42-.24-1.36-1.18-2.1-1.3-.94-1.65-5.35-.71-9.23,.24-.63,2.48-.1,2.48,.63Zm496.33,6.61c0,3.15-3.18,1.15-3.77-2.31-.47-2.83-.47-2.94,1.65-1.26,1.18,.94,2.12,2.52,2.12,3.57Zm-448.47,.94c-.12,1.78-.83,3.67-1.53,4.3-1.77,1.57-3.18-4.09-1.41-5.98,2.12-2.31,3.18-1.68,2.95,1.68Zm451.77,6.5c.59,1.36,.83,4.09,.71,6.09s.83,5.46,2,7.55c2.71,4.72,2.83,5.67,.35,3.88-3.07-2.2-4.83-6.4-5.54-13.32-.83-6.61,.59-8.92,2.48-4.2Zm-480.77,22.66c0,2.2-4.72,4.62-7.66,3.99-3.65-.84-3.77-2.1-.24-3.57,3.18-1.36,7.9-1.57,7.9-.42Zm124.26,17.52c-.59,1.36-5.54,4.72-6.96,4.72-1.65,0-.35-1.99,1.65-2.62,1.3-.31,2.71-1.57,3.07-2.73,.47-1.05,1.18-1.78,1.77-1.47s.83,1.26,.47,2.1Zm-18.63,5.35c-2,4.72,4.01,7.87,7.66,3.99,3.89-4.2,8.25-3.25,16.39,3.57,1.53,1.26,3.89,2.31,5.31,2.31,3.54,0,4.13,.84,2.71,3.78-1.53,3.04-2.24,3.15-4.72,.52-1.53-1.68-3.18-1.89-11.08-1.47-6.37,.21-9.79,.84-10.61,1.89-.71,.84-2,1.57-2.83,1.57-2.24,0-5.89,3.15-5.89,5.14,0,1.26-.35,1.26-1.41,.31-2-1.78-5.31-1.57-6.13,.31-.35,.84-1.89,1.47-3.3,1.47q-2.59-.21-.24-.63c3.54-.63,6.01-4.93,4.13-7.03-.83-.84-1.18-2.1-.71-2.83,.47-.63,.12-2.31-.71-3.78-1.65-2.73-.71-5.35,2.59-6.61l5.19-2.31c4.6-2.2,4.48-2.2,3.65-.21Zm-57.3,5.98c0,.73,1.89,2.94,4.13,4.93s4.13,4.2,4.13,4.93,1.3,1.36,3.07,1.36c2.48,0,2.95,.42,2.48,2.1-.35,1.15,.12,2.83,1.06,3.57,.94,.84,1.65,2.41,1.65,3.46s1.06,2.52,2.36,3.25c1.77,.94,2.24,1.99,1.65,3.78-1.3,4.62,6.25,8.92,9.9,5.67,2-1.78,1.77-5.04-.47-5.04-.94,0-1.53-.42-1.18-.94,.35-.42,.12-2.31-.47-4.2-.83-2.83-.71-3.25,1.18-3.25,1.18,0,2.36-.52,2.59-1.15,.59-1.47,6.48,2.73,7.31,5.14,.35,.94,1.18,3.78,1.89,6.19,1.18,4.41,1.3,4.41,8.02,5.14,3.65,.31,7.78,1.15,9.08,1.89,3.07,1.47,8.84,1.68,11.55,.42,1.89-.84,2.12-.63,1.89,1.47-.24,1.36,0,3.04,.59,3.78,2.36,3.46-6.13,11.75-9.9,9.65-2.48-1.36-7.9-1.26-10.49,.21-1.77,.94-2.95,.94-5.42,0-1.65-.73-4.36-.94-6.01-.63-1.89,.42-3.65,.1-5.19-1.15-1.18-.94-2.83-1.47-3.54-1.05s-2.59-.1-4.13-.94c-4.95-2.94-13.32,.1-11.67,4.09,1.18,2.52-4.01,2.94-7.66,.63-1.89-1.26-4.24-2.2-5.19-2.2-1.06,0-3.42-1.15-5.31-2.62-2-1.47-4.83-2.62-6.48-2.62-3.77,0-7.31-5.88-5.66-9.65,2.12-5.14-3.65-9.76-9.08-7.24-1.65,.84-3.42,.84-5.54,.1-4.6-1.57-7.43-1.26-9.9,.94-1.65,1.47-2.71,1.68-4.24,.84-3.65-1.78-12.38-.21-15.56,2.83-2.83,2.73-6.01,3.25-10.26,1.78-1.77-.63-1.3-1.05,2.95-2.41,2.83-.94,6.6-1.99,8.25-2.31,2.95-.52,4.48-3.46,5.07-9.55,.12-1.36,5.89-6.3,8.25-7.13,1.06-.42,2.24-2.1,2.59-3.78,.83-3.57,3.54-4.72,9.9-4.41,3.18,.1,4.95-.52,6.96-2.41l2.71-2.62,6.37,5.77c3.54,3.15,6.84,5.67,7.55,5.67,.59,0,1.18,.73,1.18,1.57s.47,1.57,.94,1.57,2.83,1.57,5.19,3.46c3.54,2.83,4.13,3.99,3.65,6.5l-.71,2.94,3.65-2.31c2.12-1.26,3.77-2.83,3.77-3.46s.94-2.1,2-3.25c2-1.89,2-1.99-.24-3.46-1.3-.73-2.95-1.89-3.77-2.52-.83-.52-2-1.05-2.59-1.05-1.53,0-8.02-6.3-10.85-10.49-1.89-2.62-1.89-3.15-.47-3.15,.94,0,1.77-.52,1.77-1.05,0-.73,.71-.73,2.36,0,1.3,.63,2.36,1.68,2.36,2.41Zm26.88,32c-1.41,.52-4.6-1.99-3.89-3.04,.35-.42,1.65-.1,2.71,.94,1.18,.94,1.65,1.99,1.18,2.1Zm323.85,69.04c0,1.05-.94,2.1-2,2.31-2.12,.31-3.07-2.83-1.3-4.41,1.41-1.15,3.3,0,3.3,2.1Zm-27,47.95c.24,2.31,2.12,5.46,6.01,10.07,2.24,2.52,3.77,4.72,3.65,4.93-.24,.1-2.36-.31-4.72-.94-3.77-1.05-4.83-2.1-7.31-7.03-1.77-3.46-2.71-6.82-2.24-8.18,.47-1.68,.12-2.31-1.3-2.31-1.06,0-1.89-.63-1.89-1.47,0-2.2-2.36-3.15-3.89-1.78-1.89,1.68-3.18,1.36-3.18-.73,0-4.62,2.59-4.3,8.72,1.05,3.3,2.83,6.01,5.77,6.13,6.4Zm-12.03,7.55c1.41,2.2,5.19,5.46,12.5,10.91,2.59,1.89,4.72,4.3,4.72,5.35s1.65,2.94,3.54,4.2c2,1.26,3.54,2.83,3.54,3.67,0,.73,.71,1.57,1.65,1.89,2.48,.84,1.77,8.5-.83,8.92-3.3,.63-7.66-2.52-8.13-5.77-.24-1.99-1.41-3.36-3.65-4.3-3.3-1.47-6.72-6.71-6.72-10.28,0-1.89-11.08-11.96-13.2-11.96-1.18,0-4.36-3.04-4.48-4.2,0-.31,2.24-.52,4.95-.42,3.54,0,5.31,.63,6.13,1.99Z"/><path d="M701.58,248.09c-1.41,.94-2.48,2.31-2.48,3.15s-.47,1.47-1.18,1.47c-.59,0-1.18,.94-1.18,2.2s-.94,2.41-2.36,2.73c-1.3,.31-2.36,.94-2.36,1.36,0,2.2,1.77,4.41,4.13,5.25,1.77,.63,2.95,2.1,3.42,4.72,.47,2.2,2.24,5.14,3.89,6.5,2.24,2.1,2.59,2.94,1.3,3.57-1.3,.73-1.18,1.47,.35,4.3,1.06,1.89,2.59,4.83,3.3,6.5,1.18,2.52,1.77,2.83,4.6,2.2,1.77-.42,4.24-.84,5.66-.94,4.36-.52,5.54-1.78,4.83-5.25-1.06-5.77-7.07-15.63-12.26-20.14-5.42-4.62-6.48-8.08-2.83-9.76,4.72-2.31,4.24-6.71-1.06-8.29-2.48-.84-3.89-.73-5.78,.42Zm7.9,3.25c.24,.73-.94,1.89-2.59,2.52-2.48,1.05-3.07,1.99-3.07,4.93s1.18,4.72,5.66,9.13c5.78,5.67,13.09,18.89,11.32,20.35-.59,.52-2.95,1.15-5.19,1.47-4.01,.52-4.36,.31-6.72-4.3-2-3.67-2.24-5.14-1.18-6.61,1.06-1.57,.71-2.31-1.89-4.51-1.65-1.36-3.42-3.88-3.77-5.56-1.3-5.14-1.65-5.56-4.72-6.61-3.54-1.15-3.89-3.15-.59-3.15,1.3,0,2.36-.63,2.36-1.36,0-.84,.83-2.94,1.89-4.83,1.53-2.73,2.48-3.36,4.95-3.04,1.65,.21,3.18,.94,3.54,1.57Z"/><path d="M736.01,249.35c-2.59,2.1-5.54,9.44-4.83,12.38,.24,1.57,1.41,1.99,4.72,1.99,2.48,.1,5.07,.63,5.89,1.36s2.12,1.26,2.83,1.26c2.24,0,1.89-12.59-.24-13.32-.94-.31-1.65-1.15-1.65-1.99,0-2.62-4.24-3.67-6.72-1.68Zm4.36,2.83c0,.94,.71,1.89,1.65,2.2s1.53,1.99,1.41,4.41l-.12,3.88-4.95-.42c-3.89-.21-5.07-.73-5.07-2.2,0-1.05,.83-2.41,1.77-3.15s1.77-2.41,1.77-3.78c0-1.57,.71-2.52,1.77-2.52,.94,0,1.77,.73,1.77,1.57Z"/><path d="M77.81,34.37c0,.63-1.41,1.47-3.18,1.78-1.89,.42-5.66,1.89-8.49,3.25-2.83,1.26-5.89,2.41-6.72,2.41s-1.89,.94-2.24,2.1c-.47,1.36-1.77,2.1-3.65,2.1-1.53,0-2.83,.42-2.83,.84,0,.52-1.65,.94-3.54,.94-5.66,0-7.43,2.31-7.78,10.91-.24,4.2,.12,8.18,.71,8.81,1.3,1.36,.24,8.08-1.18,7.34-.47-.21-.59-1.57-.35-2.94,1.06-4.62-5.42-4.51-16.15,.1-6.25,2.73-6.48,2.94-6.72,7.24-.12,3.15,.59,5.35,2.36,7.24,2.12,2.52,2.95,2.73,8.25,2.1l5.89-.52-2.48,2.1c-1.41,1.15-2.59,2.73-2.59,3.57s-.71,1.26-1.65,.94c-2.24-.73-15.8,5.77-20.28,9.86-6.25,5.77-6.25,17.52,.12,21.4,.71,.52,.47,1.78-.83,3.67-2.36,3.67-.94,6.61,3.18,6.61,1.53,0,3.18,.42,3.54,1.05,.35,.52,1.77,1.05,3.07,1.05,3.18,0,2.83,1.68-.94,3.88-6.13,3.57-13.32,10.07-13.32,12.07,0,2.1,3.3,2.52,6.84,.94,1.06-.52,4.36-1.99,7.31-3.25,11.91-5.35,18.98-9.97,19.69-12.8,.59-2.62,12.85-13.43,15.21-13.43,.47,0-1.3,1.68-4.01,3.78-3.3,2.52-4.95,4.62-4.95,6.3,0,1.36,.12,2.52,.35,2.52,4.13-.52,13.44-4.51,14.38-6.19,.94-1.89,1.77-2.1,5.31-1.47,2.24,.31,5.78,1.78,7.78,3.15,2,1.26,4.24,2.41,5.07,2.41,2.48,0,7.31,3.46,6.72,4.83-.35,.73,.24,1.89,1.3,2.62,.94,.73,3.07,3.88,4.48,6.92,2.71,5.25,2.95,5.46,6.37,4.93l3.65-.73,.12,9.86c.35,16.05,1.3,26.12,2.95,28.43,.59,.73,1.06,3.78,1.18,6.82,.24,4.2-.12,5.56-1.41,5.56-2.59,0-1.89,2.83,2.24,8.71,3.42,4.93,3.77,5.98,3.07,10.7-.47,2.83-2.71,10.07-5.07,16.05-6.01,15.53-6.6,26.75-1.89,38.61,2.12,5.35,5.54,11.12,9.31,15.63,3.42,3.99,6.37,8.39,6.72,9.86,.47,1.47,1.77,5.35,2.95,8.5,1.77,5.04,1.89,5.98,.35,7.45-1.41,1.47-1.41,1.89,.59,3.46,1.18,.94,4.72,5.46,7.66,10.07,5.54,8.29,7.78,10.07,9.79,8.29,1.41-1.26-2.12-11.33-5.19-15.53-1.18-1.57-2.24-3.57-2.36-4.62-.24-1.05-1.06-3.15-2-4.72-1.89-3.25-3.65-10.7-2.59-10.7,.35,0,1.3,2.2,2,4.83,.83,2.62,3.65,7.66,6.37,11.23,16.74,21.93,16.15,20.88,15.8,25.29-.35,7.24-.12,7.76,6.72,11.86,11.91,7.24,16.86,9.65,23.58,11.44,5.07,1.26,6.84,1.36,8.13,.42,1.41-1.05,2.36-.94,4.6,.42,6.01,3.46,18.39,9.02,20.16,9.02,2,0,4.36,4.3,4.6,8.39,.12,1.68,1.18,3.04,3.42,3.99,1.77,.73,3.89,2.31,4.72,3.46,.71,1.05,2.59,1.99,4.13,1.99s3.54,.73,4.48,1.57c1.06,.84,3.77,1.57,6.25,1.57,5.19,0,9.55,3.04,9.55,6.82,0,1.36,.35,3.15,.71,3.99s-1.53,3.57-4.48,6.5c-7.07,6.82-7.9,8.6-8.02,15.74,0,3.57-.47,6.82-1.18,7.45-1.65,1.47,.83,8.18,5.89,15.63,2.36,3.46,6.01,9.44,8.02,13.22,2.48,4.41,7.31,10.18,13.2,15.74,5.07,4.83,10.61,10.18,12.38,11.86,2,1.99,3.3,4.51,3.54,7.34,.24,2.31,.83,8.29,1.3,13.22,1.06,10.39,1.06,10.18,.12,27.28-.71,13.74-1.89,19.93-4.13,23.71-2.12,3.46-.83,21.19,1.65,23.61,1.06,1.05,2.95,6.09,4.13,11.12,2.71,11.44,2.71,10.81,0,10.81-2.48,0-4.36,3.36-3.07,5.25,.59,.84,1.3,.73,2.48-.1,1.3-.94,1.65-.73,1.65,.94,0,1.15,.83,2.83,1.77,3.78,.94,.84,1.77,2.41,1.77,3.57s.83,2.62,1.77,3.36c1.3,.94,1.41,1.78,.47,3.46-1.06,1.68-.94,2.41,.24,3.25,.94,.63,2.36,2.52,3.18,4.09,2.24,4.51,8.61,11.23,10.73,11.23,2.12,.1,9.55,5.77,9.55,7.34,0,2.1,3.18,.94,4.48-1.57,.83-1.57,2.36-2.62,3.77-2.62,1.3,0,2.48-.52,2.48-1.05,.59-3.88,.24-4.72-1.89-5.04-6.6-.84-7.43-1.26-6.84-3.15,.24-1.15-.35-3.78-1.3-5.98-2.59-5.35-2.36-10.39,.71-18.05,2.24-5.35,2.36-6.71,1.06-8.08-.83-.94-2.24-1.68-3.07-1.68-1.77,0-3.3-2.83-2.24-4.3,.35-.52,1.41-.94,2.36-.94,1.18,0,1.65-1.26,1.65-4.09,0-3.04,.83-5.04,2.95-7.03,3.65-3.57,3.65-4.09-.12-6.4l-3.07-1.68,2.95-1.47c1.77-.73,3.3-2.62,3.77-4.51,.47-1.68,1.18-3.15,1.77-3.15,1.89,0,13.09-8.5,14.27-10.81,.71-1.47,.83-3.36,.12-4.93-.94-2.31-.71-2.73,2-3.78,2.24-.84,3.65-.84,5.19,0,3.3,1.89,5.78-.42,7.66-7.34,1.06-3.67,2.95-7.24,4.72-8.81,3.3-3.04,8.84-10.39,9.2-12.38,.12-.73-.24-2.94-.83-4.93-.94-2.73-.71-4.2,.71-6.09,2.12-2.94,9.08-6.5,14.74-7.55,5.42-.94,6.37-1.78,10.61-8.5,4.48-6.92,4.83-8.18,5.19-19.51,.12-5.56,.83-9.76,1.65-10.49s1.41-1.99,1.41-3.04c0-.94,1.65-3.36,3.54-5.25,7.07-6.92,9.43-13.43,6.48-17.42-1.06-1.36-2.59-2.41-3.42-2.41-.94,0-3.3-1.15-5.19-2.52-4.95-3.78-12.97-6.3-19.92-6.3-5.07,.1-6.25-.21-6.25-1.78,0-2.1-8.61-5.14-16.39-5.67-8.13-.63-9.08-1.26-5.89-3.57l2.71-1.89-2.36-2.94c-1.18-1.68-3.3-4.51-4.6-6.4-3.77-5.46-8.96-8.39-16.51-9.55-5.19-.73-11.2-3.46-11.2-5.14,0-.84-2.12-2.62-4.6-4.09-2.59-1.36-6.25-3.88-8.13-5.56-2.83-2.52-4.95-3.15-11.2-3.78-4.13-.31-8.37-.42-9.31-.1-1.06,.42-2.12-.1-2.48-.94-.47-.94-1.89-1.68-3.18-1.68s-2.36-.52-2.36-1.15c0-.73-1.06-.94-2.83-.52s-3.07,.1-3.3-.63c-.35-.84-1.65-.31-3.65,1.47-1.77,1.57-4.6,2.94-6.37,3.15-2.48,.21-3.89,1.36-5.78,4.51-2.24,3.88-6.37,6.3-6.37,3.78s-3.89-4.3-9.43-4.3c-8.84,0-11.08-2.2-11.08-11.12,0-3.99,.24-7.97,.47-8.81,.83-2.1-7.31-5.56-13.56-5.88-4.24-.21-4.72-.42-4.36-2.62,.24-1.36,1.18-3.04,2.12-3.67s1.65-2.31,1.65-3.67,1.06-3.15,2.36-3.88c2.83-1.57,3.18-5.98,.47-6.92-3.54-1.15-7.07-.63-9.08,1.47-1.06,1.15-2.71,2.1-3.77,2.1-.94,0-2.59,1.47-3.54,3.15-2.36,3.99-6.37,5.46-12.03,4.41-6.72-1.26-8.49-4.41-8.61-14.9-.12-13.01,.35-15.42,3.77-18.57,1.65-1.68,3.3-3.78,3.65-4.83,.47-1.05,2.12-1.89,4.01-1.99,1.77,0,4.95-.21,6.84-.31,2-.21,4.72,.21,6.25,.84,2.12,.84,3.07,.73,5.31-1.05,3.07-2.41,11.32-2.94,13.2-.84,.59,.73,2.24,1.57,3.54,1.78,1.77,.21,3.07,2.1,4.83,6.71,2.83,7.66,6.01,12.28,7.9,11.65,.94-.21,1.53-3.78,1.77-10.28,.12-5.46,.35-11.02,.47-12.49,.24-2.62,13.32-15.74,15.68-15.74,3.07-.1,6.72-4.3,6.84-7.87,.12-1.99,.47-3.67,.83-3.67,.47,0,2.83-3.36,5.31-7.45,4.83-7.76,7.55-9.86,11.44-9.02,2.71,.63,6.84-2.62,6.84-5.35,0-2.2,2.95-4.72,10.85-9.44,6.6-4.09,7.66-4.2,5.19-.73-2,2.73-1.65,4.72,.71,4.72,2.48,0,16.15-6.61,16.86-8.08,.94-2.31-1.65-4.72-4.36-3.88-1.18,.31-2.12,.21-2-.31,.47-2.1-.24-3.46-1.77-3.46-2,0-3.18-3.46-1.77-5.35,1.89-2.73,1.18-5.04-1.89-5.77-1.65-.31-2.95-.94-2.95-1.36,0-.84,11.79-.52,14.5,.42,1.06,.42,2.71,.21,3.65-.42,.83-.63,2.36-.94,3.42-.52,.94,.31,2.12,.1,2.59-.52,1.18-1.78,2.95-1.36,2.95,.73,0,1.15-1.06,2.83-2.36,3.88-3.18,2.52-3.18,7.55,0,8.39,1.3,.31,3.42,.31,4.83,0,2.12-.63,2.24-.52,1.18,1.36-2.12,3.67,1.65,7.76,4.01,4.41,1.18-1.68,2.71-1.26,3.54,.94,.83,2.31,3.77,2.31,5.31,.1,.71-1.05,.35-2.2-.71-3.25-1.18-1.15-1.65-3.25-1.41-5.77,.24-2.62-.24-4.09-1.3-4.41-3.3-.94-5.78-4.2-5.19-6.82,.71-3.25-1.18-4.41-4.48-2.73-1.89,.84-2.36,.84-1.65,0,.35-.63,2.71-1.99,5.07-3.04,5.54-2.31,7.43-7.66,4.01-11.12-1.3-1.15-4.83-5.46-7.9-9.55-4.01-5.35-5.31-7.87-4.72-9.65,.35-1.36,0-3.46-.71-4.72s-1.65-4.62-2.12-7.55c-.94-6.61-3.07-7.24-9.2-2.83-2.48,1.78-5.54,3.25-6.96,3.25-2.48,0-2.59-.31-2-6.19,.59-6.09,.47-6.4-3.3-9.86-2.24-1.99-4.6-4.3-5.31-5.14-1.89-2.1-14.38-3.46-16.51-1.78-.94,.63-1.65,2.83-1.65,4.93,0,2.31-1.06,4.93-2.83,6.92-3.54,4.2-4.83,9.44-3.18,13.11,2.24,4.72-1.65,11.23-8.61,14.27-2.12,.94-2.48,2.2-2.83,8.39-.35,6.82-2.24,11.02-5.07,11.02-1.65,0-3.42-6.61-3.42-13.01,0-7.55-.59-8.5-6.13-10.49-2.36-.94-5.42-3.04-6.84-4.83s-5.07-4.3-8.25-5.77c-6.25-2.83-7.31-4.41-6.37-8.81,.59-2.31,.12-3.36-1.89-4.62-3.07-1.89-2.59-3.88,2.24-9.97,3.3-3.88,11.08-9.44,15.92-11.02,1.3-.42,1.89-1.36,1.41-2.31-.35-1.05,.12-1.57,1.65-1.57,1.18,0,2.59-.52,3.07-1.15,.35-.63,3.18-2.1,6.01-3.25,2.83-1.15,5.54-2.83,5.89-3.78s1.65-2.62,2.95-3.67c2-1.78,2.12-1.78,2.12,.84,0,1.68,.71,2.62,1.77,2.62,.94,0,1.77-.42,1.77-.94s1.06-.73,2.48-.42c2,.52,2.36,.21,2-1.89-.35-2.2,0-2.52,3.3-2.2s3.89-.1,5.07-3.04c.71-1.89,1.3-5.04,1.3-7.13,0-2.94,.59-4.09,2.59-4.83,3.65-1.47,4.01-4.2,.83-6.5-4.24-3.15-6.96-5.88-6.37-6.4,.35-.31,1.77,.42,3.3,1.68,3.07,2.52,11.2,3.15,13.56,1.05,1.06-.94,1.53-.73,2.12,.52,.94,2.31-1.53,5.04-3.77,4.2-1.18-.42-1.65,.21-1.65,2.2,0,2.2,.59,2.73,3.07,2.73,4.36,0,7.55,1.89,7.55,4.3,0,1.78-.47,2.1-3.3,1.47-3.89-.73-5.42,.52-6.48,5.46-.47,2.2-.24,3.46,.83,3.78,2,.73,6.6-2.1,6.6-3.88,0-1.47,5.42-1.05,6.6,.52,.59,.94-2.48,3.88-6.13,5.77-1.18,.63-2.36,2.2-2.59,3.46-.35,2.2-.83,2.31-6.13,1.68-4.95-.63-5.89-.42-6.96,1.47-.71,1.15-1.3,2.94-1.3,4.09,0,2.41,3.42,3.88,5.19,2.31,2-1.78,5.19-1.15,6.13,1.26,1.18,3.36,4.83,7.55,12.61,14.69,3.65,3.46,6.72,6.71,6.72,7.24,0,.63,.71,.94,1.53,.63,.71-.21,1.41-2.1,1.41-4.3,0-2.41,.47-3.67,1.3-3.36,2,.73,4.01-1.57,4.01-4.62,0-1.47,.59-3.25,1.18-3.78,.83-.73,.47-1.89-1.18-3.57-1.3-1.36-2.36-3.88-2.36-5.88,0-1.89-.35-4.09-.71-5.04s-.24-1.68,.47-1.68,2,1.99,2.83,4.41c1.89,4.83,5.07,6.4,7.43,3.67,.71-.84,2.24-1.68,3.54-1.89,1.41-.31,2.95-1.89,3.77-4.09,1.3-3.57,1.18-3.78-2.12-4.93-2.24-.94-3.18-1.89-2.71-2.94,.47-.84,.12-1.57-.59-1.57s-1.3-.94-1.3-2.1-.47-2.1-.94-2.1c-.59,0-1.77-1.26-2.59-2.73-1.41-2.31-1.41-2.83,0-3.67,1.53-.84,1.41-1.26-.47-2.52q-2.24-1.57,.35-1.57c4.13,0,2.95-4.62-1.3-5.04-3.77-.42-4.13-1.05-1.3-2.83,1.65-1.15,1.77-1.68,.47-4.51-.83-1.78-2.48-3.99-3.77-5.04-2-1.57-2.24-1.57-2.95,0-1.06,2.41-2.71,1.05-1.89-1.68,.47-1.78,.24-2.1-1.77-1.68-1.89,.42-2.24,.21-1.77-1.47,.24-1.05-.47-2.94-1.53-3.99-2-1.99-2-2.2,.12-4.3q2.24-2.2-1.18-4.62c-1.89-1.36-5.07-2.73-7.07-3.15-9.2-1.68-11.08-1.68-11.91-.52-.59,.84-1.41,.21-2.48-1.99-2-4.3-5.89-4.3-11.2,.1-7.55,6.3-10.96,11.23-11.32,16.37-.24,4.41,.12,5.14,4.36,8.71l4.6,3.88-1.89,3.57c-1.65,3.15-5.78,7.03-7.55,7.13-.35,0-.59-1.99-.59-4.51,.12-3.78-.24-4.41-2.48-4.72-2.95-.42-4.48-4.51-2.83-7.45,1.53-2.52,1.89-8.39,.83-11.96-.71-2.1-.47-3.46,.94-4.83,1.06-1.05,1.89-2.31,1.89-2.94,0-.52,1.53-.84,3.42-.52,2.71,.31,3.77-.1,4.95-1.99,.83-1.36,2.36-3.15,3.65-3.88,3.42-2.2,2.48-4.83-2.36-7.24-4.48-2.31-8.49-1.78-8.49,1.15,0,.73-1.53,2.31-3.54,3.57-2,1.36-3.54,3.36-3.54,4.51,0,1.26-1.65,4.41-3.77,7.13-4.13,5.35-6.96,14.58-7.07,23.19-.12,2.94-.83,4.09-4.01,5.98-3.65,2.1-4.01,2.2-4.01,.42,0-1.05,1.06-2.73,2.36-3.78,2.59-2.1,3.3-8.71,1.06-10.7-1.65-1.47-4.6-.63-4.6,1.26,0,.84-1.06,1.78-2.36,2.1-2.48,.73-3.18,4.09-1.18,5.25,1.77,.94-1.41,4.72-4.13,4.72-3.18,0-18.75-6.92-17.45-7.66,.71-.42,3.3,.31,6.01,1.47,6.48,2.94,8.49,2.1,8.49-3.25,0-2.31-.47-4.2-1.18-4.2-.59,0-1.18-.52-1.18-1.05,0-.63,1.53-1.05,3.42-1.05,4.13,0,5.42-1.36,3.3-3.36-2.95-2.62-3.18-5.14-1.3-14.69,.94-5.25,1.53-10.7,1.06-12.07-.94-3.46-4.36-2.73-4.95,.94-.35,2.52-3.54,10.28-4.24,10.28-.12,0-.24-2.73-.24-5.98,0-4.83-.35-6.09-2-6.4-1.18-.21-2.24,.63-2.83,2.1l-.83,2.41-.94-2.52c-.59-1.26-2.12-2.62-3.42-2.94-1.41-.31-2.36-1.47-2.36-2.62,0-1.99-.59-2.1-6.72-1.68-5.19,.42-6.13,.31-3.89-.52,1.65-.52,4.13-1.36,5.42-1.78,2.59-.94,3.77-4.62,3.07-9.23-.35-1.99-.94-2.41-3.18-1.89-2,.42-2.83,.1-3.3-1.47-.59-2.1-8.37-5.56-11.32-5.04-.94,.21-2.12,1.57-2.71,3.04-.59,1.57-4.24,5.77-8.13,9.44-5.31,5.04-6.84,7.24-6.37,8.81,.35,1.15,1.06,3.88,1.41,5.98,.83,4.62,3.3,7.03,5.31,5.25,.83-.73,2.36-1.26,3.42-1.26s2.59-1.47,3.54-3.46c1.53-3.36,3.07-4.93,5.07-4.93,.59,0,0,1.05-1.41,2.41-2,1.89-2.24,2.73-1.18,3.67s.94,1.57-.94,2.73c-1.89,1.36-2,1.89-.71,3.67,.71,1.26,1.41,2.94,1.41,3.78s.83,1.57,1.89,1.57c.94,0,1.41,.52,1.06,1.05-.47,.63-1.77,.84-2.83,.52-1.18-.31-2.83,.1-3.65,1.05-1.3,1.36-1.18,2.2,.94,4.72,1.41,1.68,2.59,4.2,2.59,5.56s1.77,3.88,4.13,5.98c3.65,3.15,4.48,3.46,6.48,2.31,3.18-1.68,8.13-1.78,6.13,0s-1.77,3.99,.35,3.99c2.59,0,2.12,1.78-.59,2.41-1.53,.31-2.83-.1-3.54-1.36-.59-1.05-2.83-2.2-4.95-2.52-10.96-1.99-13.09-2.52-11.2-2.62,3.18-.21,2.48-4.62-1.18-7.55-1.89-1.47-4.72-3.46-6.48-4.41-1.89-1.05-3.3-2.41-3.3-3.25,0-2.41-4.48-5.14-7.55-4.62-2.12,.42-3.07,0-3.54-1.57-.35-1.47-1.3-1.89-2.95-1.47-2,.42-2.48,0-2.48-2.31,0-5.56-4.72-7.13-7.66-2.52-1.53,2.41-1.77,2.52-1.18,.52q.71-2.31-7.9-1.68c-4.72,.31-10.37,1.36-12.5,2.31-3.77,1.68-4.01,1.68-5.19-.31-2.71-4.3-15.8-14.27-17.8-13.53-.83,.21-3.07-1.15-4.95-3.25-2-1.99-4.13-3.67-4.83-3.67s-2-1.36-2.83-3.15c-.83-1.68-2.36-3.36-3.54-3.67s-2.36-1.47-2.71-2.62-2-2.52-3.65-3.15c-1.65-.52-3.07-1.47-3.07-1.99s-.94-1.15-2-1.47c-1.18-.21-3.07-.84-4.13-1.26-1.3-.42-2.12-.31-2.12,.42Zm5.78,4.2c.71,1.05,2.59,2.31,4.24,2.62,1.65,.42,2.95,1.15,2.95,1.89,0,.63,1.06,2.1,2.48,3.36,1.3,1.26,5.07,4.72,8.25,7.76,3.54,3.36,7.19,5.77,9.31,6.09,1.89,.42,3.77,1.47,4.13,2.41s2.36,2.62,4.48,3.78,5.07,3.88,6.72,6.09c2.36,3.36,3.3,3.88,5.89,3.36,1.65-.42,3.77-1.26,4.72-1.99s3.54-1.68,5.66-2.1c5.31-.84,4.48,1.36-1.06,3.04-2.24,.73-4.24,2.1-4.36,3.15-.47,1.68,.24,1.78,6.48,1.05,3.77-.42,7.66-1.36,8.72-2.2,.94-.84,2.48-1.47,3.18-1.47s1.77-.73,2.36-1.68,1.77-1.47,2.48-1.05,1.06,1.15,.71,1.68-.35,2.2,.12,3.67c.59,1.99,1.41,2.62,2.83,2.31,1.06-.21,2.59,.42,3.42,1.47,1.65,2.41,3.54,2.52,5.31,.31,1.3-1.47,1.89-1.15,4.6,1.99,1.77,2.1,5.54,5.25,8.49,7.13,6.01,3.78,6.48,4.83,2.71,5.35-1.77,.21-2.71,1.05-2.71,2.41,0,1.47,1.18,2.2,4.72,2.94,14.62,2.73,14.74,2.73,14.74,7.13s1.41,5.25,4.01,1.89c.94-1.26,3.18-3.15,4.95-4.2,2.95-1.68,3.42-1.68,7.43-.1,2.36,.94,5.07,2.31,6.01,2.94,.94,.73,3.07,1.47,4.72,1.68,3.07,.31,8.25,4.2,8.25,5.98,0,2.62,2.48,1.78,7.19-2.41,2.83-2.41,6.01-4.72,6.96-5.04,1.18-.31,1.77-1.89,1.89-4.62,.35-10.91,2-17.63,5.89-23.61,2.24-3.25,4.01-6.5,4.01-7.13s1.53-2.52,3.42-4.2,3.65-3.67,3.89-4.51c.47-1.05,1.18-1.05,3.65-.1,3.77,1.57,4.13,3.46,.83,4.2-1.3,.31-2.36,1.05-2.24,1.78,.47,3.36-.24,3.88-4.01,3.25-3.54-.63-4.01-.42-6.37,3.67-1.77,3.25-2.24,5.25-1.53,7.34,.83,2.62-.12,9.86-1.41,11.02-.24,.31,.12,3.67,.83,7.55,1.3,7.13,3.3,9.55,4.72,5.56,.47-1.26,1.06-1.99,1.41-1.78,.24,.31-.24,1.89-1.18,3.57-1.77,3.04-1.41,5.56,.83,6.82,2,1.26,3.07,.94,3.07-.84,0-.84,.59-1.26,1.18-.94,1.53,.84,6.13-3.15,8.02-7.13l1.41-2.94,3.54,2.41c3.54,2.2,3.54,2.41,1.18,3.15-2.12,.73-2.48,1.57-2.24,5.04,.24,2.2,0,4.41-.47,4.83s-.83,1.47-.83,2.41-.59,2.41-1.18,3.25c-.94,1.36-1.65,1.15-4.13-1.36-3.42-3.25-5.42-2.94-4.48,.63,.47,1.99,.35,2.1-.83,.42-1.89-2.62-4.6-2.2-6.13,.94-1.41,2.83-4.01,3.04-11.2,.94-4.6-1.26-3.18,2.1,1.41,3.67,2.24,.84,4.13,1.89,4.13,2.31,0,.52-2,1.68-4.36,2.52-2.48,.84-5.42,1.99-6.6,2.52-1.06,.63-4.13,.73-6.72,.42-5.31-.73-5.89-.1-2,2.83l2.59,2.1-2.95,1.78c-9.2,5.67-12.73,8.71-15.56,13.32-3.89,6.19-4.13,9.44-.94,11.02,1.77,.84,2.24,1.89,1.89,4.41-.47,3.57,3.42,8.18,6.96,8.18,1.06,0,4.13,2.1,6.84,4.62,2.71,2.62,6.96,5.46,9.43,6.4,4.48,1.68,4.72,2.1,4.36,9.44-.12,4.93,3.65,13.53,6.37,14.48,1.06,.42,3.18-.42,5.07-1.78,2.83-2.2,3.3-3.36,3.65-9.97,.47-7.34,.59-7.45,4.48-9.13,2.24-.94,4.01-2.41,4.01-3.15,0-.84,.83-2.73,1.89-4.09,1.53-1.99,1.77-3.88,1.06-8.39-.71-5.14-.35-6.4,2.48-10.7,1.77-2.73,3.18-6.61,3.3-8.6l.12-3.78,5.89,.42c3.89,.21,6.25,.94,6.96,2.1,.59,.94,2.71,3.04,4.48,4.72,3.54,3.15,4.24,6.19,2.83,11.75-.83,2.73-.47,3.36,2.24,4.41,2.59,1.05,3.89,.94,8.37-.84,2.83-1.15,5.19-2.62,5.19-3.15,0-.63,.83-1.05,1.77-1.05,1.06,0,1.41,.63,1.06,1.57-.47,.84,.12,3.57,1.3,5.98,1.18,2.73,1.65,5.67,1.18,7.76-.59,2.83,0,4.3,3.54,8.29,2.24,2.73,4.13,5.56,4.13,6.3s1.65,2.62,3.54,3.99c4.24,3.25,4.95,8.08,1.18,8.08-1.3,0-2.36,.42-2.36,.94s-1.18,1.36-2.59,1.78c-1.53,.42-3.65,1.68-4.83,2.83-1.06,1.15-2.36,1.89-2.71,1.47-.35-.31-1.89-.21-3.3,.21-1.3,.52-5.89,.42-10.14-.1-7.31-.84-7.78-.73-10.14,1.57-1.41,1.47-4.48,3.46-6.84,4.41-5.19,2.2-7.9,5.77-4.36,5.77,1.3,0,2.48-.52,2.71-1.15,.24-.52,2.48-1.57,5.07-2.1,6.96-1.57,7.07-1.57,7.66-.42,.35,.52-1.18,1.15-3.18,1.36-4.6,.42-5.07,1.89-1.18,3.46,1.53,.63,3.3,2.52,4.13,4.3,.71,1.68,1.77,2.83,2.36,2.52,.71-.31,1.41,.42,1.77,1.57,.47,1.68,1.18,1.99,3.42,1.47,3.54-.94,2.83-.52-4.24,3.04-5.42,2.83-6.01,2.31-2.12-1.78,2.71-2.73,.47-4.09-4.48-2.52-10.14,3.25-21.22,11.44-21.22,15.74,0,2.2-2.24,3.36-3.77,1.99-2.12-1.89-8.84,3.04-12.85,9.55-3.18,4.83-4.36,5.88-6.13,5.35-2.12-.63-2.24-.21-1.41,4.62l.83,5.25-6.37,4.2c-3.42,2.31-8.49,6.19-11.08,8.71-4.13,3.99-5.07,5.56-5.89,10.91-.47,3.46-.83,8.6-.83,11.44,.24,6.09-1.06,5.25-3.18-1.99-2.12-7.13-3.3-8.92-5.78-8.92-1.18,0-3.07-.94-4.24-2.1-1.89-1.78-3.07-1.99-8.13-1.47-3.77,.52-6.72,1.47-8.02,2.83-1.18,1.15-2.12,1.57-2.12,.94,0-.84-3.18-1.26-9.79-1.26q-9.67,0-11.32,3.25c-.83,1.78-2.48,3.99-3.65,4.93-3.3,2.83-4.6,9.23-4.24,20.98,.24,10.39,.35,10.91,3.77,13.85,6.13,5.35,19.57,4.09,22.64-2.1,.94-1.78,2.24-3.15,3.18-3.15,.83,0,2.12-.73,2.95-1.57,1.65-1.78,5.89-2.2,5.89-.52,0,.52-1.06,1.47-2.36,2.1s-2.36,2.2-2.36,3.57-.71,3.04-1.65,3.67c-.94,.73-1.53,3.15-1.41,6.19,.12,4.3,.35,4.93,2.48,4.62,3.65-.52,5.54-.42,10.02,.52l4.13,.94,.12,6.19c.12,14.06,3.18,17.94,13.68,17.52,5.07-.21,5.89,.1,7.78,2.73,3.42,5.14,8.72,3.15,12.61-4.72,1.41-2.62,2.24-3.15,4.24-2.73,1.77,.42,3.18,0,4.13-1.26,1.53-1.78,1.65-1.68,1.77,1.68,.12,1.99,.12,4.2,0,4.83-.12,.73,.59,1.36,1.65,1.36s1.77-.94,1.77-2.31c0-5.04,7.31-8.29,8.61-3.88,.59,1.78,1.3,2.1,3.42,1.57,1.53-.42,5.19-.73,8.37-.63,4.72,.1,6.84,.94,13.09,5.04,4.24,2.73,7.66,5.67,7.78,6.5,.12,1.89,7.9,5.25,15.09,6.5,6.25,.94,12.85,5.14,14.5,9.02,.71,1.57,2.36,3.67,3.77,4.72,2.48,1.78,2.48,1.89,.35,3.36-2.95,1.99-1.77,6.82,1.77,6.82,1.77,0,2.24,.52,1.89,1.57-1.18,2.52,1.06,2.73,4.24,.52,2.71-1.89,3.3-1.99,6.37-.63,1.77,.84,4.24,1.78,5.42,2.1,1.06,.31,2,1.57,2,2.83,0,2.1,.47,2.2,5.66,1.68,6.48-.63,16.74,2.1,21.34,5.88,1.65,1.36,4.48,2.94,6.37,3.67,5.07,1.89,3.54,8.6-3.65,15.42-5.66,5.46-7.55,10.6-7.55,20.56,0,8.29-1.77,14.9-4.6,16.68-.47,.31-1.41,1.89-2.12,3.46-.71,1.68-2.83,3.46-5.42,4.41-2.24,.84-5.89,2.2-8.02,3.04-9.55,3.57-12.97,8.39-10.37,14.58,.94,2.1,.47,3.57-2.24,7.45-1.89,2.62-4.01,4.83-4.6,4.83-1.53,0-4.72,5.98-6.48,12.28l-1.41,5.04-6.48,.1c-3.54,.1-7.19-.21-8.25-.73-3.07-1.36-3.54,.1-1.06,3.04,1.3,1.36,2.36,4.2,2.36,6.09,0,2.83-.83,3.99-4.36,6.4-2.48,1.57-4.72,3.25-5.07,3.57s-2,.94-3.77,1.26c-2.12,.52-2.95,1.36-2.71,2.52,.47,2.83-1.41,5.25-4.72,5.98-3.65,.84-3.77,2.1-.24,5.25,2.71,2.41,2.71,2.52,.59,4.83-1.41,1.57-2,3.46-1.65,5.46,.35,2.31-.12,3.36-2.36,4.62-1.53,.94-2.83,2.62-2.83,3.78,0,2.94,2.12,6.09,4.13,6.09,2.95,0,2.95,1.78,0,8.29-3.54,7.66-3.65,10.07-.59,16.37,2.59,5.46,1.53,9.02-2.59,8.08-1.18-.21-2.83,.1-3.77,.73-1.3,.94-2.36,.42-5.31-2.52-2-2.1-3.65-4.62-3.65-5.67s-.83-2.52-1.77-3.25-1.77-1.68-1.77-2.2,.83-.94,1.77-.94c1.06,0,1.77-.94,1.77-2.52,0-1.89-.71-2.62-2.59-2.94-1.89-.21-2.71-1.05-2.71-2.73,0-1.26-.59-2.73-1.3-3.15-.83-.42-1.65-4.09-2-8.08-.59-6.4-1.77-13.11-3.42-19.62-.24-.94-1.3-2.62-2.36-3.67-2.36-2.31-3.3-19.2-1.3-21.51,4.83-5.35,5.66-60.43,.94-70.4-.83-1.89-6.6-8.18-12.85-13.85-8.49-7.97-12.38-12.49-15.92-18.89-2.59-4.62-6.37-10.91-8.25-13.85-4.01-6.19-4.95-11.86-2.48-14.48,1.18-1.26,1.18-1.99,.24-2.83-3.3-2.94-1.53-7.87,4.6-13.85,7.19-7.03,8.25-9.97,6.13-16.68-1.89-5.67-6.48-8.6-12.38-7.87-1.89,.31-3.89-.1-4.6-.94-.71-.73-2.36-1.36-3.54-1.36s-3.42-1.05-4.95-2.41c-1.65-1.26-4.13-3.15-5.66-4.2-1.89-1.26-2.36-2.1-1.3-2.41,1.53-.63,2-3.57,.47-3.57-.59,0-1.65-1.15-2.36-2.62s-2.36-2.62-3.42-2.62c-2.48,0-11.55-3.99-17.09-7.45-3.07-1.99-5.42-2.52-11.55-2.62-6.6,0-8.84-.52-14.74-3.57-3.89-1.99-9.9-5.46-13.44-7.76-6.13-4.09-6.25-4.3-5.66-8.6,.59-4.62-2.36-11.23-7.55-17.1-9.31-10.49-13.32-16.26-14.5-20.56-1.53-5.04-3.65-8.39-5.54-8.39-3.65,0-.24,16.79,4.6,23.61,2,2.73,4.95,9.23,4.95,11.02,0,.52-1.3-.73-2.95-2.83s-2.95-4.3-2.95-4.93c0-.52-1.65-2.52-3.77-4.3-2.71-2.41-3.3-3.57-2.24-4.2,1.77-.94,.83-7.87-1.65-12.38-.94-1.57-1.89-4.09-2.24-5.67-.24-1.57-3.07-5.77-6.01-9.34-3.07-3.46-6.84-9.34-8.25-13.01-1.53-3.57-3.42-7.66-4.13-8.92-.94-1.57-1.18-4.62-.71-8.29,.35-3.25,.83-8.08,1.06-10.7,.35-2.62,1.41-6.3,2.48-8.08s1.89-3.88,1.89-4.72,1.3-4.2,2.95-7.45,3.07-7.24,3.07-8.81c.24-2.41,.24-2.52,.71-.52,.71,3.25,2.48,3.04,3.89-.31,1.06-2.52,.35-6.92-2.12-13.01-.35-.84-.71-2.31-.71-3.15-.12-.84-1.3-1.68-2.71-1.89-3.54-.42-5.89-6.5-3.18-8.29,2.12-1.36,1.3-5.56-1.3-5.56-1.89,0-3.07-8.18-3.42-25.08l-.24-12.07-3.42-1.89c-2-1.05-4.48-2.2-5.54-2.52-1.18-.42-2.12-1.47-2.12-2.52,0-.94-1.06-3.04-2.36-4.51s-2.36-3.36-2.36-4.3c0-1.68-4.36-4.83-6.72-4.83-.94,0-3.65-1.15-6.13-2.62s-5.42-2.83-6.72-3.15c-1.18-.21-3.42-.73-4.83-1.15-2.12-.52-3.07,0-4.72,2.52-1.53,2.31-3.07,3.25-6.01,3.57l-3.89,.42,3.89-2.62c8.84-6.19,9.9-7.34,8.02-8.5-2.71-1.68-7.07-.21-12.38,3.99-2.59,2.2-6.72,5.04-9.08,6.4-4.6,2.41-5.42,3.67-3.3,4.83,1.53,.84-.12,2.2-8.25,6.92-9.31,5.46-14.03,7.45-16.27,6.92-1.65-.42-1.53-.63,.71-1.26,1.41-.42,2.59-1.15,2.59-1.68,0-.42,2.48-2.31,5.42-4.2,4.72-2.83,5.31-3.57,4.6-5.98-.83-3.04-2.83-4.62-4.48-3.67-.59,.31-2.48-.1-4.13-.84-1.77-.73-3.3-1.47-3.54-1.57-.12,0,1.18-2.83,2.83-6.09,2.36-4.62,2.71-6.4,1.77-7.24-1.06-.94-1.89-.63-3.54,1.15-2.95,3.57-4.95,1.05-4.36-5.46,.35-3.99,1.3-5.77,4.36-8.71,4.72-4.3,14.27-8.71,18.98-8.71,2.59,0,3.3-.52,3.3-2.2,0-1.26,1.3-3.15,2.95-4.3,5.31-3.67,3.89-5.04-5.31-5.04-4.48,0-8.25-.21-8.25-.42s-.35-1.15-.71-2.1c-.47-1.15-.12-1.68,1.18-1.68,2.36,0,2.36-.94,0-3.25-1.77-1.78-1.53-1.99,4.13-4.51,3.3-1.47,7.07-2.73,8.37-2.73,2.12,0,2.24,.31,.94,2.1-1.77,2.41-1.53,2.73,4.13,3.57,3.54,.63,4.36,.42,4.36-1.05,0-1.05,.59-1.47,1.77-1.15,2.95,1.05,3.18-1.26,.71-5.67-2.71-4.51-3.3-13.32-1.3-16.79,.94-1.36,2.48-1.99,5.31-1.99,2.24,0,4.13-.52,4.13-1.15s1.06-.84,2.36-.42c1.77,.52,2.71,0,3.65-1.89,.83-1.57,3.07-3.04,5.89-3.88,2.59-.73,5.19-1.99,5.89-2.83,.71-.73,2.48-1.36,3.89-1.36,1.3,0,3.3-.52,4.24-1.05,2.48-1.47,3.3-1.26,4.6,.94Zm121.55,4.93c0,.52,.83,1.99,1.77,3.15,1.53,1.68,1.89,1.78,2.95,.42,.94-1.36,1.18-1.26,1.18,.31,0,2.83-2.24,5.98-4.24,5.98-.94,0-4.83,1.26-8.37,2.83-4.6,1.99-7.07,3.88-7.9,5.77-.71,1.68-2,2.94-3.07,2.94s-2.48,.52-3.3,1.26c-1.06,.94-1.41,.84-1.41-.84,0-1.05-.35-3.67-.71-5.77-.59-3.36-.35-3.99,1.77-4.62,1.3-.31,2.48-1.15,2.48-1.78s2.12-2.94,4.72-5.14,4.72-4.93,4.72-5.98,.35-2.2,.71-2.62c.94-.84,8.61,2.73,8.72,4.09Zm5.89,17.21c-1.06,1.78-.83,2.1,1.77,2.73,1.89,.42,2.95,1.36,2.95,2.73,0,1.99,.59,2.1,6.01,1.68,5.07-.52,5.78-.31,5.07,1.15-1.77,3.57-2,8.5-.35,8.5,2.71,0,4.24-1.36,6.25-5.67,2.36-4.93,3.42-4.62,1.89,.63-1.65,4.93-2,14.48-.71,16.79,.83,1.57,.35,1.89-2,1.89-1.53,0-3.54,.63-4.36,1.47-1.06,1.26-.83,1.89,1.06,3.46,2.83,2.1,3.3,5.56,.83,5.56-.94,0-2.12-.52-2.48-1.05-.35-.63-1.65-1.05-2.83-1.05s-2.71-1.15-3.42-2.62c-1.3-2.41-1.89-2.62-8.25-2.31-3.77,.21-7.55,.73-8.37,1.15-2.24,1.26-7.43-3.57-6.84-6.4,.24-1.47-.35-3.04-1.65-4.09-3.07-2.52-2.83-3.25,1.41-3.99,3.54-.63,7.9,.73,9.67,2.94,.59,.84,1.18,.63,2-.42,1.41-2.1-5.31-8.39-8.96-8.39-1.65,0-2.95-.84-3.42-2.2-.94-2.52-.47-3.15,2.83-3.36,3.18-.21,3.18-2.52,.12-3.36-2.36-.63-3.3-2.62-1.3-2.62,.59,0,1.41-.94,1.89-1.99,.71-1.99,3.07-2.73,9.79-3.15,2.36-.1,2.48,.21,1.41,1.99Zm-59.54,13.74c-.94,1.26-6.6,3.36-7.31,2.62-.59-.52,5.42-3.67,7.07-3.78,.59,0,.59,.52,.24,1.15Zm140.88,1.05c0,.52-1.06,2.31-2.36,3.88-1.41,1.68-3.18,5.77-4.13,9.23-2.12,7.66-2.12,7.76-.24,7.66,1.53,0,7.9-11.12,7.9-13.95,0-1.05,1.77-2.41,4.13-3.36,5.54-1.99,5.89-1.89,5.89,1.68,0,1.68-.35,3.15-.83,3.15s-1.41,.94-2.12,2.2c-1.65,2.62,.59,5.56,3.65,4.83,1.18-.31,2.71,.1,3.42,.84,1.65,1.78,4.72,.94,4.72-1.26,0-.84,.71-1.36,1.53-1.05,.83,.21,1.3,1.89,1.06,4.2-.35,2.73,.12,3.88,1.18,3.88,.83,.1,3.42,1.47,5.66,3.15,4.48,3.46,6.48,3.99,5.42,1.47-.35-.84-.24-1.26,.47-.94s1.18,1.57,1.18,2.73-.47,1.89-1.06,1.57-1.65,.1-2.59,1.05c-1.18,1.26-1.06,1.99,.94,3.78,2.12,1.78,2.24,2.62,1.3,5.25-.83,1.99-.83,3.36-.12,3.88,.59,.31,1.89,2.2,2.83,3.99,.94,1.89,2,3.46,2.59,3.46,.47,0,1.89,2.1,3.18,4.72s3.07,4.72,4.13,4.72c.94,0,1.77,.31,1.77,.63,0,1.47-2.59,4.62-3.77,4.62-.71,0-2.36,.73-3.54,1.78-2,1.57-2.12,1.57-2.12-.84,0-1.47-1.53-4.2-3.42-6.19l-3.3-3.57-2,3.25c-1.18,2.1-1.41,3.57-.71,3.99,.71,.31,1.18,2.1,1.18,3.78,0,1.78,.83,4.51,1.77,6.19,1.06,1.89,1.3,3.25,.59,3.67-.71,.31-1.18,1.68-1.3,2.94,0,1.57-.24,1.78-.71,.73-1.18-2.73-4.13-5.25-6.37-5.25-1.89,0-1.89,.42,.47,5.25,1.3,2.83,2.12,5.46,1.77,5.88-.94,.73-12.73-10.07-12.73-11.54,0-.52-.83-1.78-1.77-2.73s-1.89-2.83-2.12-4.2c-.59-3.15-2.24-3.67-6.96-2.2-4.36,1.36-5.42,.84-3.18-1.57,1.18-1.36,2.83-1.57,7.19-1.05,5.54,.73,5.78,.63,6.37-2.2,.35-1.78,1.89-3.46,3.54-4.2,1.53-.63,2.59-.84,2.24-.31-.83,1.26,2.71,3.46,4.6,2.83,1.89-.73,1.3-4.09-1.41-7.76-.94-1.36-1.3-3.15-.94-4.09,.83-1.89-5.66-9.55-8.84-10.39-1.77-.52-1.77-1.05-.71-3.78,1.06-2.31,1.06-3.57,0-4.93-1.3-1.78-2.59-1.89-9.31-.63-2.71,.42-4.36,0-7.07-1.89-1.89-1.36-4.72-2.62-6.25-2.73-3.42-.1-7.19-3.04-7.19-5.67,0-1.36,.94-1.89,3.54-1.89,2,0,3.54-.42,3.54-.94s-1.53-1.15-3.54-1.57c-1.89-.31-3.54-1.05-3.54-1.57s1.89-2.94,4.13-5.35,4.13-4.83,4.13-5.46c0-.52,.47-.73,1.06-.42,.47,.31,1.89-.31,3.07-1.47,2-1.99,4.13-1.99,4.13,.1Zm15.33,6.3c0,.52-.47,.94-1.18,.94-.59,0-1.18-.73-1.18-1.68,0-.84,.59-1.26,1.18-.94,.71,.31,1.18,1.05,1.18,1.68Zm6.37-.21q1.89,1.89-1.06,1.47c-1.65-.31-2.95-1.26-2.95-1.99,0-1.99,1.65-1.78,4.01,.52Zm-2,4.72c-.24,.63-2.48,1.26-4.95,1.47-3.54,.21-4.24,0-3.18-1.05,1.53-1.68,8.72-2.1,8.13-.42Zm-65.31,15.11c-.35,1.26-1.41,2.31-2.24,2.31-2.12,0-2.12-.63,.47-2.94,2.48-2.41,2.71-2.31,1.77,.63Zm56.35,24.66c-.94,.84-1.3,.73-1.3-.42,0-2.1,1.53-3.57,2.12-1.99,.35,.73-.12,1.78-.83,2.41ZM103.39,210.21c1.06,2.52-.12,2.83-1.77,.52-.94-1.36-.94-2.1-.24-2.1s1.53,.73,2,1.57Zm4.72,3.88c-.35,.84-.71,.52-.71-.63-.12-1.15,.24-1.78,.59-1.36,.35,.31,.47,1.26,.12,1.99Zm1.53,5.67c0,.84-.47,1.26-1.18,.94-.59-.31-1.18-1.05-1.18-1.68,0-.52,.59-.94,1.18-.94,.71,0,1.18,.73,1.18,1.68Zm231.54,16.26c-.24,.42,.59,1.47,2,2.41,1.65,1.05,2.36,2.2,1.89,3.67-.35,1.15,.12,2.62,1.06,3.36,.94,.63,1.65,1.68,1.65,2.2,0,.63-.94,0-2.24-1.36-2-2.2-2.48-2.31-4.24-.94-2,1.47-2,1.36-.83-.73,2-3.36,1.89-3.46-3.89-3.46s-5.89-.1-3.89-3.46c2.12-3.67,4.6-4.83,6.96-3.57,1.18,.63,1.89,1.47,1.53,1.89Zm-34.07,418.51c.35,.52-.35,1.05-1.65,1.05-1.41,0-2.48-.52-2.48-1.05,0-.63,.71-1.05,1.65-1.05s2.12,.42,2.48,1.05Zm11.2,1.05c0,.42-2.12,1.05-4.72,1.26s-4.72,.21-4.72,.1,1.41-.94,3.18-1.78c3.18-1.36,6.25-1.26,6.25,.42Z"/><path d="M703,55.67c-1.41,.63-3.18,2.41-3.89,3.99-.94,1.89-2.48,3.15-4.72,3.46-2.24,.42-4.48,2.2-6.96,5.46-2,2.62-3.65,5.25-3.65,5.88,0,.52-1.3,.73-2.83,.31-3.42-.73-4.95,1.99-3.18,5.98,.71,1.68,.47,3.36-.59,5.25-1.3,2.2-1.3,3.15,.12,5.56,1.53,2.52,1.41,2.94-.59,4.09-2.71,1.47-3.07,6.09-.94,12.28,1.18,3.25,2.24,4.3,4.83,4.83,1.89,.31,3.65,1.26,4.01,2.1,1.18,2.94,4.95,3.88,8.13,1.99,3.77-2.2,3.54-3.57-1.3-7.66-3.18-2.83-3.89-4.09-3.42-6.4,.47-1.89,0-3.36-1.18-4.2-1.3-.94-1.41-1.89-.71-3.04,1.53-2.41,4.83-10.7,5.54-13.95,.35-1.57,1.89-3.88,3.54-5.25s4.6-4.09,6.72-5.98c2.12-1.78,4.36-3.36,5.07-3.36,1.77,0,2.83-2.73,1.89-4.83-.35-.94-.71-2.94-.83-4.41-.12-3.04-1.41-3.67-5.07-2.1Zm-1.18,11.23c-2.48,2.41-4.95,4.3-5.66,4.3-1.77,0-5.89,6.19-8.25,12.59-1.06,3.15-2.59,6.92-3.18,8.29l-1.06,2.41-2.71-2.41c-2.48-2.31-2.59-2.73-.94-5.04,1.06-1.57,1.41-3.67,.83-5.98-.59-3.25-.47-3.57,1.89-3.25,1.77,.1,2.83-.52,3.3-1.89,1.18-3.57,7.31-9.97,9.67-9.97,1.3,0,3.54-1.78,5.42-4.41l3.07-4.51,1.06,2.83c.94,2.41,.47,3.36-3.42,7.03Zm-16.86,37.98c0,1.05,1.89,3.57,4.01,5.56,3.3,2.83,3.77,3.78,2.36,4.2-3.07,1.05-4.01,.73-5.42-1.99-.83-1.68-2.24-2.62-4.01-2.62-3.3,0-3.89-.73-4.72-6.71-.71-4.41-.59-4.83,2-5.67,2.48-.84,3.07-.52,4.24,2.2,.83,1.68,1.53,3.99,1.53,5.04Z"/><path d="M460.02,149.15c-1.41,1.36-2.24,2.83-1.77,3.15,.35,.42,.12,1.89-.71,3.15-1.3,2.1-1.18,3.15,.94,6.5,2.71,4.51,4.36,5.77,7.66,5.77,1.3,0,3.3,.84,4.48,1.78,2.12,1.68,2.48,1.68,7.55-.73,2.95-1.47,5.89-3.46,6.48-4.41s2.48-1.89,4.24-2.1c2.24-.21,3.42-1.05,3.89-2.94,1.18-4.2-.24-7.03-5.19-9.97-4.6-2.83-7.78-2.83-7.78-.1,0,.84-1.18,1.47-2.59,1.47-1.53,0-4.13,.31-5.89,.73-2.59,.63-3.18,.42-3.54-1.68-.47-3.46-4.48-3.78-7.78-.63Zm4.48,2.83c0,.52-.47,1.05-1.18,1.05-.59,0-1.18-.52-1.18-1.05,0-.63,.59-1.05,1.18-1.05,.71,0,1.18,.42,1.18,1.05Zm24.52,5.14c.35,3.04,.12,3.25-3.18,3.25-1.89,0-4.01,.63-4.48,1.36s-2.48,2.2-4.24,3.15c-2.59,1.47-3.77,1.68-4.95,.73-.83-.63-2.59-1.05-3.77-.84-1.65,.21-2-.21-1.77-2.1,.24-1.68-.24-2.31-2-2.31-1.3,0-2.59-.42-2.95-.84-.35-.52,.94-.63,2.83-.42,2.59,.31,3.42-.1,4.13-1.78,.71-2.1,1.89-2.62,4.95-2.31,.71,.1,1.65-.31,2.12-.94,.35-.52,2-.73,3.42-.42,1.89,.42,2.95,0,3.54-1.15,1.18-2.94,5.89,.52,6.37,4.62Z"/><path d="M503.88,214.3c-.59,2.1-1.41,2.73-3.89,2.73-4.36,0-4.83,.63-3.42,4.83,.83,2.62,.71,4.09-.35,5.25s-1.06,1.78,.12,3.04c2.24,2.41,6.25,1.89,11.67-1.68,3.89-2.52,4.95-3.67,4.36-5.46-.35-1.15,.24-3.46,1.41-5.14,2.36-3.57,1.18-4.83-4.83-5.77-3.89-.52-4.36-.31-5.07,2.2Zm7.78,1.36c0,.21-.59,1.47-1.41,2.73s-1.3,3.25-1.18,4.41c.12,1.36-1.18,2.94-4.01,4.41-2.24,1.36-4.48,2.41-4.95,2.41s-.83-2.2-.83-4.93c.12-4.72,.35-5.04,3.89-5.98,2.36-.63,3.77-1.57,3.77-2.83s.71-1.68,2.36-1.26c1.3,.31,2.36,.73,2.36,1.05Z"/><path d="M1021.66,263.51c-1.65,1.15-2.12,2.31-1.65,5.56,.59,4.3-.94,9.86-2.71,9.86-.47,0-1.53,1.78-2.24,3.88-.59,2.2-1.53,4.51-2,5.14-1.06,1.36-7.9,4.62-9.79,4.62-2.12,0-4.72,2.83-4.72,5.14,0,1.57-.71,2.2-2.71,2.2-1.77,0-3.3,.94-4.01,2.41-1.53,2.94,.12,6.19,2.59,5.35,1.18-.42,1.77,0,1.77,1.47,0,1.15,.83,2.62,1.77,3.36s1.77,1.99,1.77,2.73c0,.84,.59,1.47,1.18,1.47,.71,0,1.18-.94,1.18-1.99,0-1.15,.59-2.41,1.18-2.73,.71-.31,1.18-1.99,1.18-3.57,0-2.62,.59-3.15,4.24-3.78,2.83-.42,4.48-1.36,4.83-2.73,.35-1.05,1.41-1.99,2.36-1.99s2-.94,2.36-2.2c.59-1.68,1.3-1.99,3.54-1.47,2.24,.42,3.65-.1,6.01-2.31,2.71-2.52,3.18-3.78,2.95-8.71-.12-3.15,.35-7.34,1.06-9.23,.94-2.73,.71-3.99-.94-6.19-1.06-1.57-2-3.78-2.12-4.93-.12-2.73-3.89-3.36-7.07-1.36Zm4.01,2.94c0,.63,1.06,2.31,2.24,3.67,1.89,2.2,2.12,3.15,1.06,5.77-.71,1.78-.94,5.56-.59,8.39,.59,3.99,.35,5.35-.94,5.77-.94,.31-2,1.47-2.36,2.62-.59,1.57-1.18,1.78-2.95,.94-2.95-1.36-5.89-.21-5.89,2.2s-1.89,2.62-2.83,.31c-.71-1.68-4.6-1.68-9.2,.1-1.3,.42-2.12,.31-2.12-.42,0-.63,.83-1.15,1.77-1.15,2.48,0,9.9-4.41,13.68-8.08,3.54-3.36,4.83-7.76,4.95-15.84,0-3.78,.47-5.46,1.65-5.46,.83,0,1.53,.52,1.53,1.15Zm-14.5,30.95c-.35,.31-1.41,.42-2.24,.1-.94-.31-.59-.63,.71-.63,1.3-.1,2,.21,1.53,.52Zm-7.9,2.52c0,.52-.83,1.05-1.89,1.05-.94,0-1.41-.52-1.06-1.05,.35-.63,1.18-1.05,1.89-1.05,.59,0,1.06,.42,1.06,1.05Zm8.25,1.05c0,.52-.47,1.05-1.06,1.05s-1.89,.31-2.95,.63c-1.3,.42-1.89,.1-1.89-1.05,0-1.05,1.06-1.68,2.95-1.68,1.65,0,2.95,.42,2.95,1.05Zm-11.79,1.99c0,.52-1.3,1.15-2.95,1.36-2.83,.52-3.77-.21-2.12-1.57,1.06-1.05,5.07-.84,5.07,.21Zm1.77,5.67c0,2.73-2.36,2.62-2.71-.21-.35-1.68,.12-2.31,1.18-1.99,.83,.31,1.53,1.26,1.53,2.2Z"/><path d="M228.48,345.87c-4.6,2.41-4.24,4.62,.59,4.3,2-.21,5.42,.31,7.31,1.15,2,.73,5.78,2.31,8.49,3.36,2.71,1.15,5.07,2.52,5.31,3.04,.24,.63,3.18,1.26,6.6,1.26,4.01,.1,6.13,.63,6.13,1.47,0,.73-.59,1.36-1.3,1.36s-1.06,1.05-.83,2.31c.35,2.1,1.3,2.52,8.37,3.25,6.72,.73,8.49,.63,10.14-.73,1.18-.94,2.71-1.68,3.42-1.68,1.89,0,1.77-3.46,0-5.04-.83-.73-2.59-1.26-4.01-1.26-1.53,0-3.07-.52-3.42-1.05-.47-.63-2.71-.73-5.31-.42-3.65,.52-4.83,.31-5.42-.94-.35-.94-2.24-1.99-4.13-2.31-2-.42-4.13-1.57-4.95-2.73-.71-1.05-2.71-1.99-4.36-1.99s-5.31-1.15-8.13-2.62c-5.89-3.04-10.02-3.25-14.5-.73Zm9.9,.94c.59,1.26,8.96,4.51,11.32,4.51,1.18,0,2.95,.94,4.13,2.1,1.06,1.15,3.07,2.1,4.36,2.1,1.41,0,2.24,.42,1.89,.84-1.06,1.47-7.9,.1-9.2-1.89-.71-.94-2.12-1.57-3.18-1.36s-2.95-.52-4.13-1.68c-1.3-1.26-3.42-2.2-4.83-2.2-1.53,0-3.3-.73-4.13-1.57-1.18-1.26-1.06-1.57,.94-1.57,1.3,0,2.59,.31,2.83,.73Zm39.61,14.27c3.42-.73,3.3,1.26-.12,3.25-2.12,1.36-3.54,1.36-7.07,.42-5.19-1.36-6.37-5.14-1.41-4.2,2,.31,2.95,0,2.95-.94,.12-1.05,.47-.94,1.65,.31,.94,1.15,2.36,1.57,4.01,1.15Z"/><path d="M961.65,411.23c-.94,.52-2,1.99-2.48,3.36-.71,2.73-15.68,11.23-19.69,11.23-1.18,0-3.07,1.15-4.13,2.62-1.65,2.31-1.65,2.73,0,4.93,1.06,1.26,1.89,4.3,1.89,6.71,0,4.93,2,7.03,6.25,6.5,1.53-.1,3.77,.31,4.72,1.15,1.06,.73,2.83,1.15,3.77,.73,1.06-.31,2.12,.1,2.48,.94,1.06,2.52,5.07,1.89,5.66-.84,2.12-9.86,2.48-10.7,6.96-13.22,4.72-2.73,5.42-4.3,2.59-6.4-2.59-1.99-2.12-5.35,1.3-8.5,2.12-1.89,2.83-3.46,2.36-4.93-.94-2.52-9.08-5.56-11.67-4.3Zm5.07,4.3c2.12,1.99,2.12,2.41,.59,3.99-2.48,2.41-2.24,8.39,.35,10.18,1.89,1.36,1.89,1.47-.24,2.73-5.89,3.36-7.9,5.67-8.49,9.65-1.06,6.82-1.53,7.45-3.3,5.25-.94-1.15-2.24-1.68-3.54-1.26-1.18,.42-2.24,.1-2.71-.94-.47-1.15-1.89-1.47-4.95-1.26l-4.24,.31-.24-5.25c-.12-2.83-.71-5.35-1.41-5.56s-1.3-1.26-1.3-2.2c0-1.26,1.53-2.31,4.72-3.15,2.48-.63,5.31-1.78,6.13-2.52s3.65-2.31,6.13-3.46c2.71-1.26,5.54-3.57,6.48-5.46,2.24-3.99,2.83-4.09,6.01-1.05Z"/><path d="M1019.19,438.09c-1.3,.31-2.83,.94-3.42,1.47-1.65,1.36,2.36,4.83,6.37,5.46,1.77,.42,3.65,1.47,4.01,2.52,.71,1.68,6.48,5.46,13.44,8.6,2.83,1.36,3.3,3.36,1.18,6.3-.71,1.05-.94,2.73-.59,3.67,.71,1.47,1.3,1.57,3.3,.52,2.12-.94,3.54-.63,8.25,1.57,3.89,1.99,6.6,2.62,8.61,2.1,3.18-.63,4.13-3.04,1.65-3.88-.83-.31,.12-.63,2-.63,4.48-.1,8.13,2.1,9.9,6.09,1.06,2.1,2.59,3.25,5.07,3.67,5.31,.94,9.2,.73,9.2-.42,0-1.57,3.89-1.26,6.48,.42,2.12,1.36,5.31,1.15,5.31-.31,0-1.26-8.13-4.3-11.55-4.3-2.12,0-4.83-1.26-7.66-3.67-4.01-3.36-4.24-3.88-2.59-5.35,.94-.94,1.77-1.89,1.77-2.2,0-1.26-10.37-9.55-12.97-10.28-1.65-.42-4.83-1.99-7.31-3.36-2.36-1.47-5.07-2.41-5.89-2.1-.83,.21-3.42-.42-5.78-1.47-4.72-2.1-12.14-1.68-14.97,.73-1.89,1.78-5.31,.63-4.36-1.47,1.41-3.36-2.83-5.04-9.43-3.67Zm6.48,3.46c0,2.41-.12,2.52-4.01,.94-3.54-1.47-2.95-3.04,1.18-3.04,2,0,2.83,.52,2.83,2.1Zm20.51,2.62c1.3,.84,3.77,1.57,5.42,1.57,6.25,0,24.64,10.7,24.76,14.37,0,.73-.83,1.68-2,2.2-1.65,.84-1.18,1.68,3.3,5.56,2.83,2.41,5.54,4.51,6.01,4.51,.35,.1,1.18,.52,1.77,1.05s-.24,.63-2,.31c-1.65-.42-3.89-.73-4.95-.73-1.18,0-2.12-.73-2.12-1.57,0-2.73-5.54-6.5-11.44-7.76-6.48-1.47-8.84-.31-6.48,3.04,1.89,2.73,.59,2.62-5.07-.52-2.59-1.36-5.66-2.62-6.72-2.62-1.65,0-2.12-.84-2.12-3.46,0-3.67-2.24-6.19-6.48-7.45-1.3-.42-3.89-1.89-5.89-3.25-3.3-2.41-3.42-2.62-.94-2.62,1.41,0,3.07-.63,3.54-1.47,.83-1.26,3.54-2.1,8.02-2.52,.71-.1,2.24,.52,3.42,1.36Z"/><path d="M1054.44,477.96c-.35,1.68-1.77,6.09-2.95,9.86s-2.24,7.97-2.24,9.13c0,3.46-1.77,3.57-7.31,.52-2.83-1.68-6.13-3.46-7.43-4.09-3.54-1.78-2.95-4.2,.94-3.78,3.07,.31,3.18,.21,2.71-4.2-.35-2.52-.59-5.14-.59-5.98-.12-1.05-1.18-1.26-4.01-.84-2.12,.31-5.89-.1-8.49-.94-6.01-1.89-6.6-1.78-6.25,.21,.24,1.26-.71,1.78-3.18,2.1-3.77,.31-7.66,3.67-7.66,6.71s-2.59,4.3-5.19,2.52c-3.77-2.41-7.07-1.68-10.96,2.2-2.48,2.41-4.36,3.46-5.54,3.04s-1.89-.1-1.89,.94-.83,1.36-2.12,1.05c-1.65-.31-2.36,.63-3.54,4.41-.94,3.15-2.36,5.14-4.13,5.88-1.41,.52-3.89,1.68-5.54,2.62-1.65,.84-4.13,1.26-5.66,.94s-3.42,.1-4.48,1.05c-1.06,.84-2.83,1.57-4.13,1.57-1.41,0-3.3,1.47-4.72,3.67-1.41,1.99-2.95,3.67-3.42,3.67-.94,0-1.65,2.2-2.95,9.13-.35,1.78-.12,4.51,.59,5.98,.59,1.47,.71,2.94,.12,3.15-1.06,.63-.94,3.15,.24,6.4,.83,2.31,2,7.03,2.59,10.81,.24,1.36-.35,4.09-1.3,5.98-2.48,5.46-2.12,9.23,1.3,12.07,2.95,2.52,3.07,2.52,6.84,.73,2.12-1.05,4.72-1.57,5.78-1.26,.94,.31,2.59,0,3.42-.73,.94-.73,4.95-1.47,9.31-1.68,6.25-.21,8.13-.73,10.61-2.83s3.89-2.52,6.72-1.99c2.36,.42,5.07,.1,7.31-.94,3.07-1.36,4.13-1.36,8.96,.1,5.78,1.68,6.96,3.04,8.25,9.86,.47,2.94,1.3,3.99,2.95,3.99,1.18,0,2.36-.63,2.71-1.36s1.53-.21,3.18,1.68,3.42,2.83,4.72,2.52c1.65-.42,2.24,.42,2.83,3.88,.47,2.31,.94,5.04,.94,5.88,.24,3.36,9.67,7.76,12.73,6.09,1.41-.84,2.95-.63,5.42,.52,3.18,1.47,3.65,1.47,6.25-.42,1.65-1.15,4.01-1.99,5.31-1.89,5.19,.31,5.66-.21,7.31-6.71,.24-1.05,2.12-3.99,4.01-6.5,2-2.52,3.54-5.04,3.54-5.56s1.89-3.15,4.36-5.67c4.83-5.46,10.14-16.58,10.02-21.3-.24-8.08-1.53-14.27-4.13-18.99-4.24-7.45-6.37-11.96-7.9-16.47-.71-2.1-2.12-3.88-2.95-3.88-2.24,0-2.95-1.26-4.13-7.87-.59-3.25-1.89-6.5-2.95-7.45-.94-.84-1.77-2.73-1.77-3.99,0-1.36-.94-3.57-2.12-4.93s-3.07-4.51-4.24-7.03c-2.59-5.04-5.07-5.67-6.13-1.57Zm-23.7,2.94c3.89,0,4.36,.31,4.36,2.83,0,2.1-.71,2.83-2.59,3.15-1.89,.21-2.83,1.15-3.07,3.15-.35,2.31,.47,3.25,4.72,5.56,2.83,1.57,6.48,3.67,8.25,4.83,5.89,3.67,8.49,1.89,10.61-6.92,.59-2.31,1.18-4.72,1.3-5.25,.24-.63,.83-2.62,1.3-4.51,.83-3.25,3.07-4.72,3.07-1.99,0,.73,1.3,3.04,2.95,5.14s2.95,4.72,2.95,5.77,1.06,3.25,2.36,5.04c1.3,1.68,2.36,4.93,2.36,7.03,0,3.15,.71,4.41,3.54,6.3,2,1.26,3.54,3.25,3.54,4.41s2.36,6.5,5.31,11.86c2.95,5.25,5.31,11.02,5.31,12.59s.59,4.72,1.18,6.82c1.06,3.15,.83,4.72-1.06,8.39-1.18,2.52-2.59,5.77-2.95,7.34-.47,1.57-2.36,4.3-4.24,6.09s-4.6,5.25-6.01,7.66-3.65,5.77-4.95,7.45c-1.3,1.57-2.71,4.41-3.07,6.3-.71,2.83-1.41,3.25-4.83,3.57-2.24,.21-5.07,1.05-6.13,1.99-1.77,1.36-2.36,1.36-5.54-.31-2.71-1.36-4.01-1.57-4.95-.73s-2.24,.84-4.95-.21-4.01-2.41-5.19-5.88c-.83-2.52-1.18-5.46-.83-6.5,.47-1.36,0-2.1-1.77-2.52-2.95-.63-4.13-3.57-3.07-7.66,.94-3.88-1.3-4.3-3.18-.52-.71,1.47-2,2.62-2.71,2.62-.83,0-2.12,.73-2.95,1.57-1.89,2.1-2.83,1.15-3.07-2.83-.24-4.3-4.13-8.6-8.25-9.34-1.89-.31-3.3-1.05-3.07-1.78,.35-1.78-2.83-1.57-6.13,.42-1.65,.84-5.54,1.68-8.84,1.89-3.65,.1-6.72,.94-8.13,1.99-1.41,1.15-4.95,1.99-9.55,2.31-4.01,.31-8.37,.94-9.55,1.57-1.18,.52-3.54,1.05-5.19,1.05-1.77,0-4.13,.52-5.31,1.26-1.77,.94-2.71,.94-4.13-.1-2.36-1.78-2.36-3.67,.12-9.34,2-4.62,1.65-8.18-1.53-19.41-.59-2.1-.24-3.25,1.18-4.2s1.77-2.1,1.18-4.72c-.47-1.78-1.18-3.36-1.77-3.36-1.65,0-1.18-7.13,.47-8.08,.94-.42,2.36-2.31,3.3-3.99,1.06-1.99,2.71-3.25,4.6-3.46,1.65-.21,3.54-.84,4.36-1.36,.71-.63,3.42-1.15,6.01-1.36,2.48-.21,5.66-1.15,6.96-2.31,1.3-1.05,3.77-2.94,5.42-3.99,1.77-1.05,3.18-2.94,3.18-4.09,0-1.68,.35-1.89,1.41-.94,2.36,2.1,4.48,1.47,4.48-1.26,0-3.57,8.96-10.39,12.26-9.44,1.41,.42,2.95,1.36,3.42,2.1,.47,.84,1.53,1.47,2.36,1.47,1.53,0,5.54-5.67,5.54-7.76,0-2.73,4.48-5.14,8.37-4.41,3.07,.52,3.54,.31,2.95-1.05s-.24-1.47,1.3-.84c1.18,.42,4.13,.84,6.6,.94Z"/><path d="M710.19,478.48c-.47,.63-1.18,2.62-1.53,4.3-.83,3.36-2.36,4.41-7.43,5.35-1.77,.42-3.54,1.57-3.89,2.73-.47,1.15-1.77,2.1-3.18,2.1-2.12,0-2.36,.42-1.65,4.2,.59,3.46,.24,4.93-2.48,8.5-2.71,3.67-2.95,4.62-1.89,7.55,.71,1.89,1.65,5.14,2,7.24,.71,3.57,3.3,6.09,6.37,6.09,.59,0,2.59-1.99,4.48-4.51,1.77-2.41,4.24-5.46,5.54-6.61,1.18-1.26,2.83-5.35,3.77-9.02,.94-3.88,3.07-8.71,5.19-11.54,3.89-5.04,4.6-9.97,2.48-14.9-1.18-2.94-6.13-3.88-7.78-1.47Zm5.78,7.66c.24,3.36-.47,5.14-2.36,7.03-3.18,3.15-5.66,8.5-6.72,14.69-.47,2.62-1.65,5.46-2.71,6.3-1.06,.73-3.07,3.15-4.6,5.25-3.54,5.04-6.37,5.25-6.37,.52-.12-1.78-.83-4.51-1.77-5.98-2.24-3.46-2.24-3.57,1.3-7.24,2.48-2.62,2.95-4.09,2.59-7.45-.24-2.83,0-4.2,1.06-4.2,.83,0,2.36-1.15,3.42-2.62s3.07-2.62,4.36-2.62c3.42,0,6.72-3.04,6.72-6.3,0-1.47,.59-3.25,1.41-3.99,2-1.78,3.42,.73,3.65,6.61Z"/></g></g></svg>