<?xml version="1.0" encoding="UTF-8"?><svg id="Calque_2" xmlns="http://www.w3.org/2000/svg" viewBox="0 0 32.32 46.73"><defs><style>.cls-1{fill:#e03430;}</style></defs><g id="Calque_1-2"><path class="cls-1" d="M15.01,.04c-2.16,.17-4.06,.69-5.96,1.61C3.38,4.42-.18,10.31,0,16.61c.07,2.36,.59,4.5,1.58,6.54,.42,.88,.71,1.37,1.29,2.24,.25,.37,3.33,5.33,6.85,11.01,3.52,5.68,6.41,10.33,6.43,10.33s2.91-4.65,6.43-10.33c3.52-5.68,6.6-10.64,6.85-11.01,.58-.86,.86-1.36,1.29-2.24,1.64-3.38,2.03-7.28,1.09-10.99-.95-3.73-3.2-6.99-6.39-9.23C22.72,1.02,19.39-.03,16.06,0c-.37,0-.84,.02-1.06,.04Zm2.47,6.87c1.71,.31,3.17,1.06,4.36,2.24,2.99,2.96,3.21,7.71,.51,10.95-1.3,1.57-3.18,2.58-5.23,2.84-.44,.05-1.47,.05-1.92,0-3.32-.41-6.04-2.78-6.87-6.01-.55-2.12-.2-4.42,.95-6.28,1.29-2.07,3.36-3.41,5.83-3.77,.51-.07,1.87-.05,2.38,.04Z"/></g></svg>