<?xml version="1.0" encoding="UTF-8"?><svg id="Layer_1" xmlns="http://www.w3.org/2000/svg" xmlns:xlink="http://www.w3.org/1999/xlink" viewBox="0 0 272.25 83.25"><defs><style>.cls-1{fill:none;}.cls-2{fill:url(#linear-gradient);}.cls-3{clip-path:url(#clippath);}.cls-4{fill:#ed1847;}.cls-5{fill:#fcd700;}.cls-6{clip-path:url(#clippath-1);}.cls-7{fill:url(#linear-gradient-2);}</style><clipPath id="clippath"><path class="cls-1" d="M69.75,53.1h-2.76c-30.47,0-66.99,.64-66.99,1.12s30.16,1.65,67,1.65H205.05c30.48,0,67-.65,67-1.13s-30.16-1.65-67-1.65H69.75Z"/></clipPath><linearGradient id="linear-gradient" x1="0" y1="10.6" x2="362.73" y2="10.6" gradientTransform="translate(0 62.44) scale(.75 -.75)" gradientUnits="userSpaceOnUse"><stop offset="0" stop-color="#a6a8ab"/><stop offset=".5" stop-color="#58595b"/><stop offset=".67" stop-color="#707173"/><stop offset="1" stop-color="#a6a8ab"/></linearGradient><clipPath id="clippath-1"><path class="cls-1" d="M269.59,73.65v6.99h-11.85c-4.43,0-6.08-1.82-6.08-6.75s1.65-6.66,6.08-6.66h14.36v-2.6h-14.57c-5.89,.05-8.63,3-8.63,9.3s2.75,9.33,8.64,9.33h14.71v-9.6h-2.66Zm-54.34,6.93c-2.57,0-3.18-.83-7.85-7.1l-.21-.28c-5.03-6.75-6.39-8.54-10.79-8.58h-2.25v18.63h2.67v-15.94c2.42,0,3,.8,7.6,6.75l.56,.75c5.07,6.63,6.44,8.42,10.68,8.45h2.25v-18.64h-2.67v15.96Zm-55.72,2.67h2.7v-18.63h-2.7v18.63Zm-53.8-9.28c.02,6.28,2.74,9.28,8.63,9.28h14.64v-2.64h-14.48c-4.43,0-6.08-1.81-6.08-6.68s1.65-6.69,6.08-6.69h14.48v-2.62h-14.65c-5.97,.05-8.6,2.93-8.6,9.33l-.02,.02Zm-47.05,1.5l3.14-6.47c.75-1.54,1.57-2.17,2.87-2.17s2.11,.63,2.85,2.17l3.15,6.44-12.02,.03Zm11.44-7.18c-1.38-2.78-2.94-3.92-5.42-3.92s-4.12,1.18-5.44,3.92l-7.09,14.51-.23,.46h2.89l.09-.18,2.52-5.17h14.48l2.52,5.17,.08,.18h2.93l-.23-.46-7.1-14.51Zm-54,5.73H2.89v-6.95h13.22c3.62,0,3.89,2.66,3.89,3.48s-.28,3.47-3.89,3.47Zm6.62-3.69c0-3.53-2.48-5.67-6.64-5.71H.2v18.63H2.89v-6.75H15.8c2.33,0,3.72,1.16,3.72,3.11v3.64h2.75v-3.66c.06-1.89-1.07-3.62-2.82-4.33,2.04-.76,3.37-2.75,3.29-4.93Z"/></clipPath><linearGradient id="linear-gradient-2" x1="181.64" y1="-2.37" x2="181.64" y2="-28.34" gradientTransform="translate(0 62.44) scale(.75 -.75)" gradientUnits="userSpaceOnUse"><stop offset="0" stop-color="#838587"/><stop offset=".5" stop-color="#909295"/><stop offset=".7" stop-color="#797a7d"/><stop offset="1" stop-color="#4e4f51"/></linearGradient></defs><g class="cls-3"><rect class="cls-2" y="53.09" width="272.05" height="2.78"/></g><g class="cls-6"><rect class="cls-7" x=".2" y="64.38" width="272.05" height="18.89"/></g><path class="cls-4" d="M58.01,34.27c-2.58,0-4.68-2.29-4.68-5.12s2.1-5.15,4.68-5.15,4.69,2.3,4.69,5.13-2.1,5.14-4.69,5.14Zm10.99,4.89V5.68h-6.38v15.85c-1.69-1.71-4-2.68-6.41-2.69-5.25,0-9.54,4.67-9.54,10.43s4.28,10.48,9.54,10.48c2.43-.02,4.75-1.02,6.44-2.77v2.25l6.35-.07ZM29.51,26.9c-.1-2.22,1.68-4.07,3.9-4.07s3.99,1.85,3.9,4.07h-7.79Zm3.84-8.36c-5.79,.16-10.4,4.89-10.4,10.68s4.61,10.52,10.4,10.68c4.45,0,7.91-2.01,9.71-5.16l-5.18-2.4c-.75,1.52-2.31,2.46-4,2.42-2.31,.1-4.26-1.7-4.34-4v-.22h14.06c.04-.43,.06-.85,.06-1.28,.1-6.93-4.47-10.72-10.3-10.72Zm-11.86-1.88c-.02-2.52-1.05-4.94-2.86-6.71-1.8-1.77-4.23-2.75-6.76-2.73H.2v31.94H6.99V12.7h3.51c2.38-.08,4.37,1.81,4.41,4.19-.1,2.39-2.11,4.25-4.5,4.17h-1.57v7.65l6.75,10.45h7.95l-9.38-13.34c4.27-.99,7.3-4.78,7.33-9.17Zm69.12,16.94h-6.1V12.7h4.25c1.91,.09,3.41,1.68,3.39,3.59,0,1.87-1.52,3.39-3.39,3.38h-2.21v5.75h4.06c5.47,0,5.47,8.2,0,8.2v-.03Zm5.34-11.84c1.77-1.59,2.78-3.84,2.81-6.21,0-2.14-.83-4.19-2.3-5.74-1.5-1.67-4.21-2.61-7.85-2.61h-10.91v31.97h14.09c5.39-.08,9.75-4.16,9.75-9.16,0-3.64-1.29-6.23-5.59-8.26Zm31.22,17.41h6.37V5.68h-6.37V39.16Zm10.82-33.48V39.16h6.38V5.68h-6.38Zm-20.62,13.67v11.5c-.29,4.56-7,4.56-7.29,0v-11.5h-6.34v12.75c0,4.31,4.47,7.8,9.96,7.8s9.96-3.49,9.96-7.8v-12.75h-6.29Z"/><path class="cls-5" d="M236.57,21.8c0,12.03-9.76,21.79-21.8,21.79s-21.79-9.76-21.79-21.79S202.74,0,214.78,0s21.8,9.76,21.8,21.8Z"/><path class="cls-5" d="M198.81,28.91l-.16,.14c-.36,.3-.68,.65-.95,1.03-.2-.35-.34-.61-.46-.84,.46-.07,.91-.2,1.34-.38h.25v.05Zm15.25,2.93l-.65-.32c-.57-.44-1.03-1-1.34-1.65-.19-.31-.38-.64-.6-.94-.21-.28-.47-.53-.75-.75l-.13-.12c-.85-2.13-1.4-4.36-1.64-6.64-.11-.82-.38-1.6-.79-2.33-1.18-1.75-2.47-3.42-3.86-5l-.37-.37-4.63-3.85-.07-.06c-.63-.48-1.34-.86-2.09-1.12-1.32-.42-2.75-.37-4.04,.14l-.07,.04c-.4,.21-.75,.45-1.14,.68-.5,.35-1.04,.64-1.6,.86l-.1,.04c-.49,.2-.99,.38-1.5,.52-1.23,.29-2.38,.86-3.36,1.66l-.63,.59c-.25,.23-.48,.45-.58,.52h-.2c-1.57-.06-3.11,.48-4.3,1.5l-.05,.04c-.67,.7-1.48,1.26-2.36,1.66-.4,.11-.81,.18-1.22,.21h-.04c-.57,.03-1.14,.12-1.69,.26-1.32,.44-2.54,1.15-3.57,2.09-.46,.35-.75,.57-.87,.65l-.29,.18c-.96,.7-2.09,1.12-3.27,1.22h-.05c-.65-.06-1.21-.47-1.45-1.07-.19-.76,.05-1.57,.64-2.09,.39-.39,.86-.75,1.3-1.16,.78-.6,1.48-1.3,2.1-2.06,.87-1.25,.79-2.93-.2-4.09-.88-.78-1.96-1.3-3.12-1.5h-.09l-.2-.04h-.06l-.35-.06c-.2-.04-.4-.07-.58-.12-.41-.15-.79-.36-1.12-.63-.29-.21-.59-.39-.89-.57l-.86-.46-.53,.82c-.41,.63-.59,1.37-.52,2.12v.06c.3,1.56,1.32,2.88,2.75,3.56l.15,.06c.3,.12,.62,.19,.95,.22-.78,.65-1.5,1.37-2.15,2.15-1.16,1.51-1.45,3.51-.75,5.29,.79,1.85,2.5,3.14,4.5,3.39,.3,.04,.6,.07,.91,.07,.5,0,1.01-.06,1.5-.16,.04,.75,.06,1.24,.11,1.54,.15,.62,.35,1.22,.6,1.81v.04c-.36,.22-.75,.4-1.16,.53-.29,.03-.62,.05-.86,.07h-.37c-.35,.04-.67,.2-.93,.44-.36,.44-.64,.95-.8,1.5-.11,.28-.22,.56-.33,.81-.1,.14-.22,.27-.36,.37-.18-.29-.4-.55-.68-.75-.52-.38-1.22-.38-1.75,0l-.24,.16-.06,.04c-.39,.25-.76,.52-1.12,.81-.27,.24-.47,.57-.55,.92-.1,.01-.19,.04-.28,.07-.73,.31-1.25,.97-1.39,1.74,0,.26-.06,.75-.1,.9l-.07,.07c-.49,.53-.49,1.35,0,1.88,.63,.4,1.34,.66,2.08,.75h.33c.08-.02,.16-.06,.24-.1h.33c.21,.03,.41,.07,.61,.11,.41,.1,.84,.16,1.26,.17,.47,0,.92-.1,1.33-.32,.59-.32,1.06-.81,1.34-1.41,.07-.13,.15-.26,.23-.37h.12c.23,.07,.47,.11,.71,.13,.98,0,1.93-.36,2.68-.99,.2-.16,.38-.33,.55-.5,.18-.17,.36-.33,.56-.47,.23-.08,.47-.12,.71-.11,.52,.02,1.04,.09,1.54,.2,.98,.26,2.03,.14,2.93-.33,.44-.25,.89-.48,1.25-.67l.06-.04c.2-.1,.37-.19,.5-.27,.81-.54,1.45-1.31,1.84-2.2,.19-.38,.47-1.07,.55-1.26h.24c.54-.02,1.08-.07,1.61-.16,.3-.06,.62-.1,.93-.12h.34c.5,0,1.23,.06,1.78,.12,.55,.06,.75,.09,1.37,.12h.91c.52,0,1.03-.12,1.5-.35,.11,.11,.3,.38,.43,.5h-.05c-.38,0-.74,.15-1.01,.42-.46-.15-.95-.19-1.42-.12-.6,.06-1.19,.15-1.77,.27-.43,.07-.8,.35-.98,.75-.19,.44-.16,.94,.07,1.35,.32,.56,.62,1.07,.95,1.61l.14,.24c.27,.44,.76,.69,1.28,.66h.34s.04,.07,.06,.11c.25,.51,.61,.97,1.04,1.34,.82,.66,1.91,.86,2.92,.55,1.41-.4,2.77-.93,4.09-1.57h.54c.72,.01,1.43-.26,1.96-.75l.06-.06,.05-.07c.24-.35,.46-.7,.67-1.06v.13c.33,.83,1.16,1.36,2.06,1.32h.04c.82-.06,1.63-.26,2.39-.57h.04l.3-.1h.07c.71-.24,1.48-.28,2.21-.11h.24c.88-.09,1.69-.46,2.35-1.04,1.14,1.23,2.76,1.91,4.44,1.87h.57c.56-.11,.97-.58,1.02-1.15,.01-.11,.01-.22,0-.33l.32-.06c.54-.11,.95-.54,1.04-1.08,.1-.54-.16-1.09-.66-1.34Zm18.54-1.64l-.09-.14c-.04-.05-.08-.11-.13-.19-.17-.23-.31-.48-.42-.75,.38,0,.75,.08,1.18,.09l-.54,.99Zm39.32,6.19c0-.06-.06-.13-.08-.17-.02-.05-.04-.25-.05-.39-.03-.35-.11-.71-.23-1.04-.25-.54-.74-.94-1.33-1.05-.03-.18-.1-.35-.21-.5-.36-.46-.81-.86-1.31-1.16-.1-.06-.2-.13-.29-.2l-.11-.08c-.27-.21-.59-.32-.93-.32-.59,.05-1.14,.35-1.5,.82-.06-.17-.16-.56-.23-.75-.06-.19-.16-.58-.24-.81-.08-.22,0-.05,0-.09-.2-.75-.8-1.33-1.55-1.5-.27-.04-.55-.06-.82-.07-.26,0-.51-.04-.75-.14,0-.04,.04-.12,.08-.23,.09-.21,.16-.42,.22-.64,.26-.88,.33-1.81,.2-2.71,.26,.04,.53,.06,.79,.06,.88,0,1.75-.18,2.55-.52h.05c1.81-.84,2.98-2.64,3-4.63v-.06c-.18-1.86-1.21-3.62-3.16-5.35,.54-.13,1.04-.35,1.5-.64,1.4-.94,2.01-2.64,1.67-4.64v-.13c-.11-1-1.31-1.44-2.04-.75l-.14,.13c-.11,.11-.23,.22-.36,.31-.39,.18-.79,.3-1.21,.36-.38,.07-.76,.17-1.13,.29-1.74,.6-2.84,1.5-3.27,2.8-.25,.85-.13,1.76,.32,2.52l.04,.06c.54,.75,1.15,1.44,1.84,2.05,.94,.9,1.83,1.75,2.01,2.77,0,.19,.09,.52-.54,1-.3,.15-.63,.22-.96,.21-.58,0-1.15-.15-1.67-.41-.79-.42-1.56-.89-2.29-1.4-1.21-.89-2.55-1.6-3.96-2.11-.65-.26-1.32-.44-2.01-.56-.74-.09-1.46-.35-2.09-.75l-.07-.05-.7-.5c-.73-.59-1.56-1.04-2.45-1.34-.33-.1-.66-.17-1-.21-.26,0-.52-.07-.75-.2l-.47-.34c-.65-.5-1.33-.95-2.06-1.34-1.21-.56-2.5-.96-3.82-1.2-.14-.12-.27-.25-.38-.4-.22-.31-.48-.59-.78-.83-1.03-.94-2.36-1.48-3.75-1.53-.14,0-.27,0-.41,0-.85,.12-1.64,.51-2.25,1.12-1.14,1-2.39,1.9-3.6,2.78-1.98,1.34-3.81,2.87-5.48,4.58-1.76,1.83-2.41,4.09-3,6.1l-.27,.9c-.15,.55-.29,1.12-.43,1.66-.69,2.78-1.35,5.41-3.95,7.09-.42,.26-.65,.74-.59,1.23,.06,.49,.38,.91,.85,1.09,.32,.11,.66,.17,1,.17,.02,.28,.13,.54,.32,.75,.28,.32,.7,.5,1.12,.49h.04c1.79,0,3.07-1.04,4.16-2.1,.42,.41,.93,.7,1.5,.84h.38c.59-.1,1.19-.15,1.79-.14,.52,.16,1.07,.36,1.61,.56,.4,.16,.83,.32,1.26,.47l.22,.06h.19c.9-.12,1.67-.69,2.07-1.5l.05-.08v-.08c.04-.09,.08-.18,.1-.28l.08,.25c.11,.54,.34,1.05,.66,1.5,.33,.38,.8,.59,1.31,.58,.16,0,.33-.02,.49-.04h.05l.06,.06c.27,.32,.62,.57,1.02,.71,.47,.16,.95,.29,1.43,.4,.58,.14,1.14,.31,1.7,.52h.06c.44,.16,.9,.25,1.38,.26,.59,0,1.17-.22,1.62-.61,.53-.41,.9-.99,1.05-1.65,.12-.02,.24-.05,.35-.09,.8-.26,1.58-1.73,1.58-1.74,.06-.1,.11-.2,.18-.29,.19-.27,.29-.6,.29-.93,0-.76-.62-1.38-1.38-1.39h-2.15c-.18,.01-.35,.04-.52,.1v-.04c-.11-.14-.23-.46-.4-.54h.05l.42,.04h.82c.9-.02,1.78-.12,2.66-.31,.75-.08,1.5-.1,2.25-.06h.28c.31,0,.64,0,.99,.06,.35,.06,.75,.07,1.15,.07h.42c.37-.02,.74-.08,1.09-.19,.04,.19,.07,.42,.13,.69l.05,.24c.18,1.31,.92,2.46,2.03,3.17l.23,.15c.62,.49,1.35,.8,2.13,.91,.36,.04,.73,.03,1.09-.05,1.39-.27,2.82,.07,3.95,.91l.11,.07c.13,.08,.25,.18,.36,.28,.31,.29,.67,.52,1.06,.68,.3,.12,.63,.18,.95,.19,.44,0,.88-.11,1.25-.35l.12,.17c.22,.32,.47,.62,.75,.89,.54,.48,1.25,.72,1.96,.68h1.34c.11,0,.21-.03,.32-.05,.2,.15,.45,.23,.7,.23,.11,0,.23-.02,.34-.06l1.24-.4c.35-.11,.64-.36,.79-.7,.22-.54,.17-1.16-.14-1.66Z"/><path class="cls-4" d="M235.27,14.71l-.55,.5c-.67,.56-1.27,1.19-1.77,1.9-.2,.3-.38,.61-.52,.94,0,0-.05,.11-.13,.11-.04,0-.07-.02-.1-.05-.09-.48-.04-.98,.14-1.44,.47-1.12,1.25-2.09,2.25-2.79,.12-.07,.25-.11,.39-.11,.18-.02,.35,.08,.42,.25,.13,.23,.07,.53-.15,.69Zm-7.7,10.84c-.09,.15-.26,.22-.42,.16-.15-.09-.28-.22-.35-.38-.1-.18-.18-.34-.42-.32-.2,.03-.39,.12-.54,.25-.08,.06-.42,.32-.5,.39-.5,.3-.88,.75-1.09,1.29-.03,.09-.05,.19-.07,.29,0,.19-.09,.37-.23,.49h-.08c-.07,0-.14-.03-.2-.08-.06-.04-.1-.11-.1-.19-.1-.88,.23-1.76,.89-2.36,.41-.36,.77-.76,1.09-1.21,.16-.21,.33-.42,.5-.61,.16-.19,.34,0,.69,.36,.33,.46,.6,.95,.82,1.46,.05,.12,.05,.27,0,.39v.05Zm-.41,6.45c-.11,.15-.29,.23-.46,.2-.19,0-.37-.04-.53-.14-.31-.24-.49-.62-.49-1.01-.03-.12,.02-.25,.12-.32,.06-.04,.13-.05,.19-.04,.37,.02,.72,.19,.97,.47,0,0,.39,.48,.19,.82v.03Zm41.02,3.67v-.04h-.04c-.71,.04-1.16-.53-1.58-1.09-.14-.18-.28-.36-.42-.51-.21-.23-.44-.46-.68-.66-.21-.16-.4-.35-.55-.58-.13-.33-.23-.66-.32-1-.07-.28-.14-.54-.21-.75l-.05-.11c-.12-.34-.29-.75-.75-.84-.23-.03-.46-.06-.7-.06-.61,.06-1.2-.17-1.62-.6-.24-.38-.24-.86,0-1.24,.07-.16,.13-.34,.17-.51,.25-.78,.29-1.61,.14-2.41-.03-.11-.06-.22-.1-.32-.11-.26-.16-.55-.13-.84,.05-.1,.16-.17,.27-.15,.12,0,.25,.03,.37,.07,.08,0,.15,0,.23,.06,.4,.1,.82,.16,1.24,.16,.73,0,1.46-.15,2.13-.44,1.43-.65,2.36-2.06,2.39-3.62-.16-1.7-1.21-3.34-3.21-5.02l-.15-.12c-.26-.21-.57-.48-.58-.75,0-.27,.62-.38,1.01-.47l.24-.06h.11c.5-.11,.99-.29,1.43-.56,1.42-.96,1.37-2.64,1.21-3.58v-.09c0-.12-.06-.27-.17-.27-.04,0-.08,.02-.11,.05l-.14,.12c-.17,.17-.35,.32-.55,.44-.47,.24-.98,.41-1.5,.49-.34,.07-.68,.15-1,.26-1.41,.49-2.3,1.21-2.61,2.13-.15,.57-.07,1.18,.24,1.68,.52,.73,1.11,1.4,1.79,2,1.02,.97,2.08,1.99,2.32,3.37,.13,.82-.27,1.64-.99,2.06-.47,.27-1.01,.4-1.55,.39-.75,0-1.49-.2-2.16-.55-.83-.44-1.64-.95-2.41-1.5-1.14-.84-2.39-1.51-3.71-2.01-.59-.24-1.21-.41-1.84-.52-.91-.11-1.77-.43-2.54-.94-.25-.17-.5-.35-.75-.52-.63-.51-1.35-.9-2.12-1.15-.28-.09-.57-.15-.85-.18-.42-.02-.83-.16-1.19-.38l-.51-.37c-.61-.47-1.26-.88-1.94-1.24-1.15-.52-2.35-.9-3.59-1.12-.39-.13-.73-.4-.95-.75-.18-.24-.38-.44-.61-.62-.84-.8-1.93-1.27-3.09-1.34h-.33c-.62,.11-1.19,.41-1.63,.86-1.18,1.03-2.44,1.95-3.68,2.84-1.92,1.3-3.71,2.79-5.32,4.45-1.59,1.64-2.17,3.68-2.72,5.66l-.25,.88c-.15,.54-.29,1.09-.43,1.63-.75,2.92-1.5,5.84-4.4,7.73-.18,.11-.15,.37,.05,.43,.92,.27,1.9-.02,2.52-.75,.75-.89,1.14-1.75,2.03-2.7,0,0,.13-.13,.21-.1,.08,.03,.09,.05,.06,.16-.12,.38-.32,.73-.57,1.03-.24,.32-.43,.67-.55,1.05-.4,.84-1,1.57-1.75,2.11-.07,.04-.12,.09-.17,.15-.07,.08-.06,.12-.06,.12,0,.18,.13,.29,.42,.3,1.63,0,2.8-1.16,3.92-2.25,.05-.04,.12-.07,.19-.07,.06-.01,.12-.01,.18,0,.14,.1,.26,.21,.38,.32,.34,.36,.77,.61,1.24,.75,.55-.1,1.12-.15,1.68-.16h.45c.59,.18,1.19,.41,1.76,.62,.41,.16,.83,.31,1.25,.46,.55,0,.94-.53,1.22-.98,.1-.3,.1-.63,0-.93-.05-.18-.07-.36-.06-.54,.12-.04,.26-.04,.38,0,.13,.01,.26,.01,.38,0,.18-.05,.29-.22,.26-.41-.13-.47-.35-.91-.66-1.3-.24-.33-.44-.69-.58-1.07-.22-.49-.54-.94-.93-1.31-.44-.39-.77-.9-.94-1.46,0,0-.04-.12,0-.16,.03-.05,.16,0,.16,0,.2,.14,.4,.31,.59,.46,.57,.56,1.27,.95,2.04,1.15,.76,.1,1.53,.13,2.3,.1,.18-.03,.3-.21,.25-.39-.34-.68-.61-1.39-.82-2.12-.34-1.05-.39-2.17-.16-3.25,.02-.09,.09-.15,.18-.15,.12,.05,.22,.16,.23,.3v.15c.11,1.56,.21,3.04,1.17,4.3,.25,.36,.59,.64,.98,.83,.26,.12,.5,.29,.7,.5,.2,.28,.24,.65,.09,.96l-1.17,1.72c-.29,.38-.51,.8-.65,1.25-.06,.42-.06,.85,0,1.26v.1s-.07-.05-.08-.09c-.44-.62-.56-1.41-.33-2.14,.16-.36,1.11-1.72,1.39-2.16,.09-.14,.17-.28,.09-.38-.3-.21-.64-.35-1-.43-.16,.07-.29,.19-.38,.34,0,0-.04,.05-.07,.09l-1.45,2.64v.1c-.11,.25-.14,.53-.08,.79,.07,.39,.2,.82,.29,1.12l.07,.26c.08,.4,.23,.78,.45,1.12,.13,.15,.31,.22,.5,.22,.11,0,.22-.01,.33-.03,.17-.03,.35-.03,.52,0,.21,.07,.39,.21,.52,.39,.15,.19,.34,.34,.56,.42,.45,.15,.92,.27,1.38,.39,.62,.15,1.23,.33,1.82,.56,.34,.12,.69,.19,1.04,.21,.36,0,.7-.14,.96-.38,.41-.32,.68-.79,.75-1.31,.09-.5,.25-.53,.62-.55,.12,0,.25-.02,.37-.06,.41-.33,.75-.75,.98-1.23,.07-.13,.15-.26,.23-.38,.08-.09,.12-.21,.11-.33,0-.2-.16-.35-.35-.34h-2.06c-.63,0-.91,.64-1.13,1.18-.07,.2-.17,.39-.27,.58-.18,.32-.54,.5-.9,.47-.18-.02-.34-.05-.51-.1-.83-.2-1.69-.41-2.05-1.24-.07-.24-.02-.49,.13-.68,.49-.6,1.04-1.15,1.63-1.65,.89-.22,1.66-.78,2.13-1.57,.09-.14,.16-.28,.19-.44,.05-.24,.18-.45,.37-.6,.14-.07,.24-.04,.27,.07,.04,.44-.04,.88-.25,1.26-.03,.09-.06,.18-.11,.27v.07h.07c.23,0,.46,.04,.71,.04,.83-.02,1.66-.12,2.47-.29,.8-.17,1.62-.27,2.44-.28h.28c.37,0,.75,0,1.08,.07,.33,.07,.7,.06,1.06,.06h.36c.9,.06,1.74-.47,2.09-1.31,.23-1.12,.2-2.27-.07-3.38v-.14c0-.07,.03-.13,.09-.16,.1-.05,.2,0,.25,.12,.36,1.09,.61,2.22,.75,3.36,.15,.94,.5,1.85,1.02,2.65,.77,1.15,2.08,1.83,3.46,1.8,.34-.01,.67-.05,1-.1,.16-.01,.32-.01,.47,0,1.8-.02,3.51,.82,4.6,2.25,0,.02,0,.05,0,.07-.02,.08-.1,.12-.17,.09l-.16-.12c-.96-.9-2.15-1.52-3.44-1.79-.25-.04-.5-.06-.75-.06-.38,0-.75,.04-1.13,.09-.35,.05-.71,.07-1.06,.08-.42,0-.83-.07-1.21-.22-1.54-.5-2.79-2.25-3.2-3.38-.03-.06-.09-.1-.16-.1-.05-.01-.09-.01-.14,0-.17,.11-.2,.17-.23,.28,.04,.41,.1,.81,.19,1.22,.1,1.07,.68,2.04,1.59,2.63,.57,.49,1.27,.82,2.02,.93,.23,.03,.46,.03,.68,0,.39-.09,.79-.14,1.19-.14,1.31,.02,2.58,.45,3.64,1.22,.18,.12,.36,.24,.52,.38,.21,.21,.47,.39,.75,.5,.18,.07,.38,.11,.58,.11,.34,0,.68-.11,.96-.32,.13-.07,.27-.1,.41-.11,.39,0,.61,.31,.88,.7,.18,.27,.39,.52,.62,.75,.34,.28,.79,.43,1.24,.39h1.21c.06,0,.13,0,.2,0v-.05c-.08-.8-.29-1.59-.62-2.32v.03Zm-27.88-3.62c-.22,.03-.44,.05-.67,.05h-.61c-.12-.01-.24-.01-.36,0-.23,.38-.37,.82-.39,1.26,.06,.51,.59,.62,.98,.7,.15,.04,.31,.05,.47,.06,.23,.03,.45-.08,.57-.28,.2-.51,.35-1.04,.43-1.58,.02-.05,.02-.1,0-.15-.07-.07-.18-.11-.28-.1l-.16,.04Zm28.84,1.79c-.29-.35-.63-.65-1.02-.88-.14-.08-.27-.18-.4-.28l-.07-.05c-.08-.07-.18-.11-.29-.11-.37,.05-.68,.29-.82,.63,0,.24,.32,.65,.75,1.17l.09,.11c.17,.23,.43,.38,.71,.43,.25,0,.49-.1,.67-.28,.18-.18,.53-.55,.38-.77v.03Zm1.82,3c-.06-.12-.11-.24-.15-.37-.04-.17-.06-.36-.08-.53-.02-.26-.07-.51-.16-.75-.13-.26-.4-.43-.69-.44-.1,0-.2,.02-.29,.06-.43,.21-.68,.44-.61,.93,.2,.62,.37,1.25,.5,1.9,0,.1,.09,.45,.25,.45h.04l1.23-.41c.06-.02,.11-.06,.14-.11,.07-.19-.06-.47-.19-.73Zm-82.03-4.16c.13,.21,.25,.43,.34,.66,.17,.38,.32,.72,.5,.75,.08,.01,.16,.01,.25,0,.49-.03,.96-.22,1.34-.52,.22-.19,.15-.31,.05-.48-.04-.06-.07-.13-.11-.19-.09-.2-.16-.4-.22-.61-.11-.38-.21-.75-.62-.65-.59,.08-1.19,.12-1.79,.12,0,0-.21,0-.27,.15-.06,.14,.09,.31,.25,.46,.09,.1,.17,.21,.23,.32h.04Zm18.04-6.11c-.01,.17-.06,.33-.14,.48-.05,.13-.18,.22-.32,.22-.23,0-.21-.27-.22-.31,0-.36-.06-.72-.16-1.06-.16-.34-.91-1.31-1.34-1.27-.25,.08-.46,.25-.61,.46-.25,.33-.25,.37-.34,.42-.08,.05-.18,0-.21-.17-.07-.25-.07-.5,0-.75,.07-.26,.16-.51,.29-.75,0,0,.22-.53,.3-.65,.11-.2,.32-.32,.55-.33,.26,0,.5,.12,.65,.33,.14,.16,.26,.34,.35,.53,.14,.22,.29,.42,.47,.6,.31,.36,.54,.79,.67,1.25,.08,.33,.08,.67,.01,1.01h.04Zm-2.09,4.79c-.01,.18-.08,.35-.2,.49-.32,.17-.68,.24-1.05,.22-.3,0-.41-.05-.47-.15-.07-.1,.04-.31,.04-.31,.22-.47,.62-.84,1.12-1.01,.14-.06,.3-.06,.45,0,.18,.16,.09,.68,.07,.76h.04Zm-7.66-12.14c0,.09-.08,.14-.14,.14-.06,0-.09,0-.11-.13-.11-.82-.34-1.62-.66-2.38-.09-.16-.19-.32-.3-.47-.2-.28-.38-.52-.18-.85,.09-.11,.22-.17,.36-.16,.07,0,.15,.01,.22,.04,.32,.21,.56,.51,.69,.87,.34,.94,.38,1.96,.12,2.92Zm16.33,13.6l-.69-.34c-.75-.52-1.34-1.22-1.74-2.03-.18-.3-.37-.61-.56-.89-.17-.21-.35-.4-.55-.57-.14-.11-.26-.24-.37-.38-.91-2.27-1.5-4.66-1.76-7.09-.1-.66-.32-1.3-.65-1.88-1.15-1.69-2.4-3.3-3.75-4.83-.09-.1-.19-.19-.27-.27l-.07-.07-4.56-3.79c-.55-.43-1.17-.77-1.84-.99-.46-.16-.95-.24-1.43-.24-.62,0-1.24,.12-1.82,.35-.36,.19-.75,.42-1.06,.64-.57,.4-1.19,.73-1.84,.97-.52,.22-1.05,.41-1.59,.56-1.08,.25-2.08,.74-2.95,1.43l-.62,.58c-.75,.75-.86,.81-1.5,.81-1.33-.06-2.63,.39-3.64,1.26-.78,.8-1.71,1.44-2.73,1.88-.49,.14-.99,.23-1.5,.26-.54,.03-1.07,.11-1.6,.25-1.18,.41-2.26,1.06-3.2,1.89-.32,.25-.75,.58-.94,.71l-.34,.21c-1.12,.81-2.43,1.28-3.8,1.38h-.1c-1.09-.09-2.03-.8-2.41-1.83-.3-1.13,.04-2.34,.9-3.15,.42-.42,.9-.83,1.37-1.22,.75-.56,1.43-1.2,2.04-1.91,.57-.85,.51-1.97-.14-2.75-.75-.6-1.64-1.01-2.59-1.18h-.09l-.2-.04c-.34-.07-.66-.11-1-.19-.8-.34-1.55-.78-2.25-1.29-.28,.43-.41,.95-.35,1.47,.23,1.2,1.02,2.23,2.12,2.76l.13,.06c.32,.12,.66,.18,1.01,.16h.42c.23,0,.45,.01,.67,.06,.23,.07,.41,.27,.44,.51,0,.15-.05,.26-.24,.41l-.53,.45c-.94,.73-1.81,1.55-2.59,2.44-.92,1.21-1.14,2.81-.58,4.23,.65,1.49,2.04,2.52,3.66,2.71,.25,.04,.5,.06,.75,.06,.79-.03,1.58-.16,2.34-.39h.07s.1,0,.11,.17c0,.33,.03,.75,.05,1.08,0,.6,.05,1.16,.1,1.4,.13,.55,.31,1.09,.54,1.61,.08,.18,.14,.32,.16,.39,.07,.23,0,.48-.16,.66-.57,.45-1.24,.78-1.94,.97-.34,.05-.75,.06-.98,.07h-.3c-.12,.01-.24,.07-.32,.15-.24,.35-.42,.73-.55,1.14-.13,.32-.25,.65-.38,.92-.4,.56-.94,1.01-1.57,1.3l-.44,.25c-.21,.38-.48,.73-.8,1.03-.24,.19-.54,.3-.85,.32-.41,.56-.67,1.22-.75,1.91l-.07,.31v.1h.06c.25,.03,.5,.08,.75,.14,.34,.08,.69,.13,1.04,.14,.3,0,.59-.06,.85-.2,.4-.23,.72-.58,.9-1,.14-.27,.31-.52,.52-.75,.12-.14,.29-.21,.47-.2,.18,.01,.36,.04,.54,.1,.16,.05,.33,.08,.5,.1,.72-.02,1.41-.28,1.96-.75,.16-.14,.33-.29,.49-.43,.23-.23,.48-.45,.75-.64,.38-.17,.8-.25,1.22-.23,.6,.02,1.19,.09,1.78,.22,.27,.07,.56,.11,.84,.11,.46,0,.92-.1,1.33-.33,.45-.25,.91-.5,1.28-.69l.55-.29c.61-.45,1.1-1.05,1.41-1.75,.19-.38,.52-1.21,.52-1.22v-.04l-.75-.57v.05c-.25,.42-.53,.82-.82,1.21-1.34,1.82-3.52,2.06-5.25,2.06h-.37c-1.96-.09-3.86,.71-5.18,2.16-.06,.06-.15,.06-.21,0-.02-.05-.02-.1,0-.16,.03-.13,.08-.25,.14-.36,1.36-1.92,3.67-2.21,5.54-2.25,1.12-.02,2.23-.28,3.25-.75,1.07-.64,1.87-1.65,2.25-2.83,.2-.66,.34-1.34,.42-2.03,.07-.54,.17-1.07,.3-1.6,.02-.07,.08-.11,.15-.11h.05c.08,0,.21,.07,.21,.17-.33,1.23-.31,2.53,.04,3.75,.28,.55,.89,.85,1.5,.75,.48-.02,.97-.07,1.44-.16,.34-.07,.7-.11,1.04-.13,.13,0,.27,0,.4,0,.59,.02,1.18,.1,1.75,.23,.5,.11,1,.19,1.5,.23h.86c.35,.03,.69-.07,.98-.27,.16-.14,.1-.33,0-.58v-.05s0-.09-.05-.13c-.1-.33-.25-.82,0-1.05,.04-.03,.09-.04,.14-.04,.05,0,.1,.02,.12,.07,0,.1,.06,.19,.08,.28,.09,.41,.26,.8,.49,1.15,.65,.78,1.46,1.41,2.37,1.86,.82,.48,1.37,1.31,1.5,2.25,0,.48-.46,.82-.81,1.03-.6,.32-1.25,.52-1.93,.57-.24-.02-.47-.11-.66-.25-.53-.5-.47-.66-.82-1.25-.18-.32-.39-.62-.62-.91-.33-.37-.83-.54-1.31-.46-.55,.05-1.11,.14-1.65,.27-.12,.02-.21,.1-.27,.2-.06,.12-.06,.27,0,.4,.32,.55,.61,1.06,.93,1.59l.14,.23c.09,.12,.23,.17,.38,.15h.5c.21-.03,.42,.05,.56,.2,.1,.15,.19,.3,.27,.46,.18,.39,.43,.75,.75,1.03,.36,.31,.82,.47,1.3,.46,.21,0,.42-.03,.62-.1,1.43-.4,2.82-.94,4.15-1.6h.73c.46,.03,.91-.12,1.27-.42,.41-.6,.78-1.23,1.1-1.89,.29-.5,.29-1.11,0-1.6-.56-.81-1-1.69-1.33-2.62l-.3-.11c-.21-.1-.44-.16-.67-.16-.22-.03-.44,.08-.57,.26l1.5,3c.14,.25,.19,.54,.15,.82-.24,.62-.59,1.19-1.03,1.68-.04,.03-.09,.05-.14,.06,0,0-.1,0-.05-.19,.18-.66,.27-1.33,.28-2.01-.4-.91-.87-1.8-1.4-2.64-.23-.3-.36-.67-.38-1.05,.02-.16,.13-.3,.28-.35,.22-.07,.44-.12,.67-.17,.54-.12,1.11-.25,1.3-.55,.62-1.01,1.02-2.14,1.17-3.31,0-.06,.05-.17,.14-.17s.1,0,.12,.12c.22,1.29-.08,2.61-.84,3.68-.05,.09-.07,.19-.05,.29,.03,.08,.07,.14,.14,.19,.73,.16,1.5,.04,2.15-.33,.57,0,1.14-.07,1.7-.19l.51-.09s.09,.07,.1,.12c-.45,.52-.76,1.15-.88,1.82-.13,.13-.26,.26-.41,.38-.55,.38-.93,.96-1.05,1.62,0,.13,.1,.25,.23,.25,.09,0,.18-.03,.26-.07,.08-.04,.17-.07,.26-.06,.08,.01,.14,.08,.14,.16l-.56,.83c-.17,.34-.18,.73-.04,1.08,.06,.19,0,.35,.09,.53,.19,.4,.61,.64,1.05,.61,.71-.07,1.41-.24,2.07-.52l.36-.12c.89-.33,1.87-.4,2.81-.19,.87-.15,1.66-.59,2.25-1.25,.35,.04,.67,.22,.88,.5,.95,1.04,2.3,1.62,3.71,1.58h.32c.16,0,.2-.11,.21-.21,0-.1-.08-.23-.25-.31l-.85-.45c-.71-.34-1.27-.91-1.61-1.62-.23-.69-.54-1.34-.92-1.96l-.2-.28c-.12-.17-.24-.35-.33-.54,.92,.33,1.43,1.02,2.06,2.14,.59,1.01,1.64,1.66,2.8,1.75,.14,0,.29-.02,.43-.06,.14,.02,.27-.09,.27-.24,0-.09-.05-.18-.14-.2h-.03Zm-52.5,1.82c.11,.1,.26,.16,.41,.16,.12,0,.25-.03,.36-.1,.55-.41,1-.94,1.31-1.56,.07-.19-.15-.36-.43-.58-.15-.1-.34-.1-.49,0l-.3,.2c-.36,.23-.7,.48-1.02,.75-.13,.12-.21,.29-.22,.47-.02,.1,0,.2,.07,.28,.1,.12,.21,.23,.32,.34v.02Zm-1.24,0h-.06c-.36,.15-.63,.46-.75,.83-.09,1.14-.12,1.26-.43,1.61-.09,.1-.15,.32-.05,.42,.43,.19,.87,.34,1.33,.44,.1,0,.18-.28,.4-1.07,.12-.42,.27-.9,.41-1.34,0,0,0-.07-.09-.21-.09-.14-.53-.68-.76-.68Z"/></svg>