<?xml version="1.0" encoding="UTF-8"?><svg id="Calque_2" xmlns="http://www.w3.org/2000/svg" xmlns:xlink="http://www.w3.org/1999/xlink" viewBox="0 0 64 64"><defs><style>.cls-1{fill:none;}.cls-2{clip-path:url(#clippath);}.cls-3,.cls-4{fill:#14151f;}.cls-4{fill-rule:evenodd;}</style><clipPath id="clippath"><rect class="cls-1" width="64" height="64"/></clipPath></defs><g id="Calque_1-2"><g class="cls-2"><g><path class="cls-3" d="m27.31,17.21v29.58l-5.25-5.25c-1.41-1.41-3.62-2.33-5.62-2.33h-8.43v-14.42h8.43c2,0,4.21-.91,5.62-2.33l5.25-5.25m3.9-10.3c-.42,0-.94.27-1.49.82l-11.2,11.2c-.48.48-1.41.86-2.08.86H6.67c-2.02,0-3.66,1.64-3.66,3.66v17.09c0,2.02,1.64,3.66,3.66,3.66h9.77c.67,0,1.61.39,2.08.86l11.2,11.2c.56.56,1.07.82,1.49.82.66,0,1.1-.66,1.1-1.9V8.8c0-1.24-.43-1.9-1.1-1.9h0Z"/><path class="cls-4" d="m56.11,32h0c0-5.52-1.75-10.9-4.99-15.37-3.19-4.39-7.64-7.73-12.76-9.55l-1.16-.41c-.63-.22-.97-.92-.74-1.56l.82-2.3c.23-.63.93-.97,1.56-.74l1.15.41c6.06,2.15,11.32,6.08,15.09,11.28,3.84,5.3,5.92,11.68,5.92,18.24h0c0,6.54-2.08,12.93-5.92,18.23-3.77,5.2-9.03,9.14-15.09,11.29l-1.15.41c-.63.23-1.33-.11-1.56-.74l-.82-2.3c-.23-.63.11-1.33.74-1.56l1.16-.41c5.12-1.82,9.57-5.15,12.76-9.55,3.25-4.47,4.99-9.85,4.99-15.37Z"/><path class="cls-3" d="m38.08,19.49l-1.1-.55c-.6-.3-.85-1.04-.54-1.64l1.1-2.19c.3-.6,1.04-.84,1.64-.54l1.08.55c3.19,1.6,5.9,3.98,7.9,6.92,1.98,2.94,3.05,6.41,3.06,9.96-.01,3.55-1.09,7.01-3.06,9.95-2,2.94-4.71,5.32-7.9,6.92l-1.08.55c-.6.3-1.34.06-1.64-.54l-1.1-2.18c-.3-.6-.06-1.34.54-1.64l1.1-.55c2.43-1.22,4.5-3.05,6.04-5.3,1.43-2.14,2.21-4.64,2.22-7.22-.01-2.58-.79-5.09-2.22-7.22-1.54-2.26-3.61-4.08-6.04-5.3Z"/></g></g></g></svg>